<?xml version="1.0" encoding="utf-8"?>
<!-- Generator: Adobe Illustrator 16.0.0, SVG Export Plug-In . SVG Version: 6.00 Build 0)  -->
<!DOCTYPE svg PUBLIC "-//W3C//DTD SVG 1.1//EN" "http://www.w3.org/Graphics/SVG/1.1/DTD/svg11.dtd">
<svg version="1.1" id="Layer_1" xmlns="http://www.w3.org/2000/svg" xmlns:xlink="http://www.w3.org/1999/xlink" x="0px" y="0px"
	 width="120.4px" height="120.6px" viewBox="0 0 120.4 120.6" style="enable-background:new 0 0 120.4 120.6;" xml:space="preserve"
	>
<style type="text/css">
<![CDATA[
	.st0{fill-rule:evenodd;clip-rule:evenodd;fill:#0A723B;}
	.st1{fill-rule:evenodd;clip-rule:evenodd;fill:#FFFFFF;}
	.st2{display:none;}
	.st3{display:inline;fill-rule:evenodd;clip-rule:evenodd;fill:#076233;}
]]>
</style>
<text transform="matrix(1 0 0 1 -612.1904 62.2915)" style="display:none;fill:#885E00; font-family:'TrajanPro-Bold'; font-size:43.0351;"> YOGA FONT</text>
<circle class="st0" cx="60.2" cy="60.4" r="60.2"/>
<g>
	<path class="st1" d="M59.4,2.9c1.9-0.1,4.7,0.1,6.9,0.3c6.5,0.7,12,2.3,17.1,4.5c6.7,2.9,12.5,6.9,17.3,11.7
		c1.3,1.3,2.4,2.5,3.5,3.8c4.5,5,8.1,11.3,10.6,18.5c1.2,3.6,2.1,7.4,2.7,11.8c1.7,11.3-1,23-4.5,30.9
		c-7.4,16.4-21.1,28.1-39.1,32.6c-3.9,1-8.1,1.3-12.8,1.5c-4.7,0.2-9-0.5-13-1.2c-4-0.7-7.6-2-10.9-3.4c-6.8-2.9-12.4-7-17.3-11.6
		c-5.1-4.8-9.1-10.4-12.1-16.9c-2.3-5-4.1-10.4-4.9-16.9c-0.3-2.2-0.4-4.4-0.5-6.8C2.2,57,2.9,52.5,3.7,48.5c0.8-4,2-7.7,3.4-10.9
		C13.5,23.3,24,13.1,38.4,7.1c4.2-1.7,8.8-3.1,14-3.7c1.1-0.1,2.2-0.3,3.3-0.3C56.9,3,58.3,3,59.4,2.9z M80.9,21
		c-0.5-0.1-0.6-0.6-1.2-0.7c-0.1-0.5-0.5-0.8-0.5-1.5c-0.1-0.5,0.2-1,0-1.4c0.2,0,0.4,0,0.4-0.3c0-0.3-0.1-0.5-0.1-0.8
		c0.1-0.7,1.6-1.7,2.3-1.8c0.2,0,0.3,0.1,0.5,0.1c0.3,0,0.5-0.1,0.7-0.1c1.1,0,2.1,0.6,2.8,0.9c0.6,0.9,1.7,1.5,2,2.8
		c0.2,0.9,0,2.1,0.1,3.2c-0.5,0.4-0.4,1.5-0.7,2.1c-0.8,0.5-1.1,1.6-1.4,2.7c-0.8,0.3-0.6,1.5-1.7,1.5c-0.1,0.4-0.5,0.6-0.7,1
		c0.1,0.3,0.4,0.6,0.8,0.6c0.3-0.5,0.3-1.3,0.6-1.9c0.6-0.1,0.9-0.8,1.6-1c1-0.3,2.2,0,2.9,0.2c0.6,0.6,1.5,1.2,1.9,2
		c0.3,0.5,0.2,1.2,0.7,1.7c0.5-0.5,0.7-1.2,1-1.9c0.1-0.1,0.2-0.2,0.4-0.3c0.5-1.4,1.5-2.3,2.5-3.3c1.4-0.9,3.2-1.9,5.5-1.2
		c-0.8-1.4-2.1-2.3-3.1-3.5c-4.1-3.6-8.6-6.8-13.7-9.4c-6.7-3.1-14.7-5.7-24.2-5.7c-8.5,0-15.4,2-21.6,4.4c-5,2.4-9.7,4.9-13.6,8.4
		c-4.2,3.2-7.7,7.1-10.6,11.7c0.7-0.1,1.2,0.2,1.8,0c1.2,0.3,1.8,1.4,1.3,2.8c-0.2,0.2-0.4,0.5-0.5,0.7c-0.4,0.2-1.2,0.8-1.5,0.1
		c0.2-0.5,0.6-0.8,0.7-1.4c-0.3-0.4-0.3-1-0.9-1.1c-1-0.2-1.3,0.9-1.7,1.4c-0.2,0.3-0.5,0.5-0.6,0.7c-0.4,1-0.1,2.6,0.6,3.6
		c0.8,1.1,2.2,1.7,4,1.5c1-0.1,1.9-0.6,2.8-0.9c0.1-0.1,0.2-0.4,0.2-0.6c1-0.5,1.5-1.4,2.1-2.3c0.2,0,0.2-0.1,0.4-0.1
		c0.1-0.2,0.2-0.4,0.3-0.6c0.6-0.2,0.9-0.7,1.3-1.1c1.8-0.5,3.4-1.6,5.4-1.1c1-0.6,2.6,0,3.6,0.1c0.7,0.5,1.6,0.4,2.4,0.7
		c0.4,0.1,0.7,0.5,1.1,0.7c0.8,0.5,1.7,0.5,2.1,1.2c2.7,1.4,5.1,3.1,6.8,5.4c0.1,0.1,0.3,0.1,0.5,0.2c0,0.2,0.2,0.3,0.2,0.5
		c0.7,0.1,0.7,0.8,1.4,0.9c0.1-0.3,0.1-0.7,0.1-1.1c0.7-0.8,0.7-2.3,1.3-3.4c0.1-0.2,0.3-0.3,0.4-0.5c0.1-0.4,0.1-1,0.3-1.5
		c0.1-0.3,0.5-0.5,0.7-0.8c0.4-0.7,0.5-1.4,0.9-2c0.1-0.2,0.4-0.4,0.5-0.7c0.1-0.3,0.1-0.8,0.2-1.3c0.1-0.5,0.4-1.1,0.5-1.6
		c0.3-1.9,0-4-0.3-5.2c-0.1-0.5-0.2-1-0.3-1.4c-0.4-1.1-1.2-1.7-1.5-2.9c-0.4-0.3-0.6-0.7-0.8-1.2c-0.7-0.6-1.5-1.1-2.1-1.8
		c-0.9,0-1.4-0.4-1.9-0.8c-1.5,0-2.5-0.8-4.2-0.7c-0.4,0.2-1,0.5-1.5,0.3c-1.3,0.2-1.7,1.3-2.9,1.6c-0.1,0.5-0.6,0.6-1,1
		c-0.8,1-0.8,2.9,0.6,3.2c0.6,0,0.8-1.1,0.5-1.7c-0.5,1.7-1.6-0.7-0.5-1.1c0.6,0,1,0.4,1.7,0.5c0.7,0.5,0.5,1.6,0.7,2.4
		c0.1-0.2,0,0.2,0.2,0.1c0.5-0.3,0.3-1.3,0.5-1.8c0.8-1.2,2.5-2.5,4.6-1.8c0.2,2.6-1.8,3.4-4.1,3.8c0.6,0.6,1.5,0.9,2.1,1.5
		c0.7,0.8,0.9,2.1,1.2,3.3c-0.2,1.3-0.3,2.7-0.9,3.6c-0.8,0.7-2.3,1.5-3.6,1.1c-1-0.3-1.8-2-0.9-2.8c0.3-0.1,1-0.2,1.1,0.1
		c0.2,0.7-0.3,0.7-0.5,1.1c1.2,2.1,3.7,0.1,3.8-1.9c0.1-1.8-0.9-2.6-1.5-3.6c-0.8-0.5-1.5-1.4-2.8-1.5c-0.9-0.1-1.9,0.1-2.9,0.3
		c-0.1,0.1,0.1,0.4,0,0.7c-0.3,0.3-0.2,0.7-0.4,1.1c-0.1,0.2-0.4,0.3-0.5,0.5c-0.3,0.5-0.4,1-0.8,1.4c-0.3,0.2-0.5,0.4-0.7,0.6
		c-0.7,0.7-1.7,0.8-2.6,1.3c-0.3,0-0.7,0.1-0.9-0.1c-1.6,0.7-3.1-0.4-4.2-0.9c-1.2-1-1.9-2.9-1.5-5c0.6-1.3,1.4-2,3.5-1.8
		c0.2,0.5,0.7,0.5,0.9,0.9c0.1,0.2-0.1,0.2-0.1,0.5c0,0.3,0.2,0.7,0.1,0.9c-0.2,1.4-1.8,1.5-2.8,0.7c-0.9,1,0.7,2,1.1,2.8
		c0.8,0.4,1.5,1,2.7,0.8c0.2,0,0.3-0.2,0.5-0.3c0.6-0.2,1.1-0.2,1.5-0.5c0.3-0.2,0.5-0.6,0.9-1c0.7-0.8,1.7-1.7,1.9-2.8
		c0.2-1.4-0.7-2.2-0.6-3.4c0-0.4,0.4-0.7,0.2-1.1c0.1-0.3,0.3-0.5,0.3-0.9c0.6-0.3,0.7-1,1.3-1.4c0.2,0,0.3,0,0.5,0.1
		c0.2-0.1,0.1-0.6,0.3-0.7c0.2,0,0.4,0,0.5,0c0.1-0.1-0.1-0.3,0-0.5c0.9-0.6,2.3-1,3.6-1.3c1.9-0.4,3.8,0.1,5.2,0.5
		c0.1,0.1,0.1,0.4,0.3,0.4c0.5-0.1,0.8,0.3,1.2,0.3c0.9,0.1,0.8,0.1,1.4,0.5c0.5,0.4,1,0.5,1.5,0.9c0.7,0.6,1.6,1.6,1.9,2.4
		c0.3,0.1,0.5,0.2,0.7,0.3c0.3,1.1,1.3,1.5,1.4,2.8c0.1,0.2,0.4,0.3,0.5,0.5c-0.1,0.6,0.3,0.6,0.3,1.1c1.1,0.8,1.3,2.7,1.5,4.1
		c0.9-0.1,1.8-0.9,2.5-1.3c1.1-0.7,2.1-1.4,3-2.2c1.3-1.2,1.8-2.9,2.8-4.6c0.4-1.7,0.5-3.4,0.4-5.3c-0.4-0.5-0.1-1.1-0.3-1.7
		C64,10.3,62.6,9.7,62,9c-1.3,0-2.6-0.6-3.7-0.1c-1,0.5-1.9,1.6-2.4,2.5c0,0.7-0.2,1.3-0.4,1.8c0.2,0.9,0.9,2,1.7,2.3
		c1,0.4,2.4-0.6,2.4-1.6c0-0.5-0.4-0.7-0.5-1.2c0.2-0.2,0.6-0.2,1.1-0.2c1.9,2.3-0.3,4.8-3,4.3c-1.8-0.3-3.3-2.3-2.8-4.2
		c-0.6-0.9,0.4-1.9,0.4-3c0.6-0.8,1-1.7,1.9-2.3c0.1-0.1,0.2,0,0.3-0.1c0.3-0.2,0.4-0.5,0.7-0.6c0.9-0.4,3-0.6,4-0.1
		c0.2,0.1,0.4,0.4,0.7,0.6c0.8,0.4,1.1,0.6,1.7,1.2c0.3,0.3,0.4,0.7,0.6,1c0.3,0.4,0.8,0.8,0.7,1.5c0.5,0.5,0.6,2.1,0.8,2.8
		c0.1,0.6,0,1.2,0,1.7c0.1,1,0,2.5-0.2,3.5c-0.1,0.7-0.7,1.3-0.7,2.1c2.2-0.3,5.2-0.8,7.4,0c0,0.1,0.3-0.2,0.5-0.1
		c0.7,0.4,1.8,0.4,2.6,0.7c0.7,0.3,1.3,0.9,1.9,0.9c0.3,0.3,0.7,0.5,0.9,0.9c1.7,0.3,2,2.1,3.1,3c0,0.3-0.1,0.4,0.1,0.6
		c1-0.4,1.8-1,2.2-2.1c0.2-0.2,0.4-0.4,0.6-0.5c0-0.2,0.1-0.3,0.1-0.5c0.2-0.2,0.5-0.4,0.7-0.7c0.4-1.1,1.3-2.2,1.3-3.5
		c0-0.7-0.3-1-0.4-1.5c0-0.2,0-0.4-0.1-0.6c-0.2-0.6-1.3-1.4-1.9-1.5c-1.7-0.5-3,0.3-3.6,1.5c-0.1,1,0.2,1.9,0.8,1.9
		c0.7,0,0.7-1.1,1.2-1.5C84.3,19.2,82.6,21.3,80.9,21z M77.1,24.2c-0.2-0.1-0.4-0.3-0.7-0.4c-0.6-0.2-1.2-0.3-1.7-0.5
		c-0.3-0.1-0.5-0.4-0.8-0.5C73,22.6,72,22.3,71,22.6c-1.1-0.2-2.2,0.4-3.6,0.3c-0.4,0.3-0.6,0.4-1.4,0.4c-1.2,0.5-2.2,1.2-3.5,1.6
		c-0.8,0.8-1.8,1.4-2.7,2.1c-0.4,0.8-1.3,1.1-1.5,2.1c-0.7,0.8-1.6,1.5-2.1,2.6c-0.9,1.2-1.4,2.8-2.3,4.1c0.1,0.6-0.5,0.8-0.1,1.1
		c1.6-0.9,3.4-2.1,5.5-2.6c2.2-0.5,3.3-0.3,5.1,0c1.4-1.4,3-2.6,4.4-3.9c1.8-0.7,3.1-2.1,5.4-2.3c0.9-0.3,1.9-0.8,2.9-0.9
		c0.2,0,0.4,0.1,0.6,0.1c0.3,0,0.6-0.2,0.9-0.2c0.6,0,1.3,0.5,1.9,0.1C80.2,25.7,78.7,24.9,77.1,24.2z M100,28.8
		c0,0,0.1-0.1,0.2-0.1c0.6-0.1,1.3-0.1,1.5-0.5c0.8-1.1,0.3-2.6-0.8-3.2c-0.2-0.1-0.7-0.1-0.9-0.3c-0.2,0.3-0.7,0.1-1,0.2
		c-2,0.4-2.6,1.9-4,3c0,0.2-0.1,0.3-0.1,0.6c-0.2,0.2-0.4,0.5-0.7,0.7c0,0.2,0,0.4-0.1,0.6c-1.6,2.8-2.7,6-4.1,9
		c-0.6,0.7-0.9,1.7-1.7,2.2c-0.2,1-1.3,1.6-1.5,2.4c0.8,0.2,2-0.1,2.8-0.1c0.7,0,1.1,0.4,1.6,0.6c0.2,0.1,0.5,0,0.7,0.1
		c0.6,0.1,1.1,0.5,1.5,0.7c0.2,0.1,0.4,0,0.5,0.1c0.4,0.2,0.6,0.6,0.9,0.7c0.2,0.1,0.5,0,0.7,0.1c0.9,0.4,1.5,1.1,2.4,1.2
		c2.1,0.2,3.6-0.5,4.8-1.3c1.7-1.2,2.9-2.5,3-5.2c-0.2-0.4-0.5-0.6-0.4-1.2c-1.1-1.8-5.5-1.5-5.3,1.3c0.2,0.4,1.1,0.7,1.5,0.3
		c0.2-0.3-0.5-0.5-0.2-0.9c1-0.1,1.7,0.7,1.3,1.5c-0.4,1.1-2.2,1.2-3,0.5c-0.4-0.9-1.4-1.4-1.2-2.8c0.1-0.9,0.5-1.6,0.9-2
		c0.4-0.4,0.6-0.8,1-1.1c0.9,0.1,1.5-0.4,2.2-0.3c0.3,0,0.4,0.2,0.7,0.3c1,0.4,2.2,0.8,3,1.4c0.3,0.7,0.7,1.4,1.1,2
		c0.1,1.8-0.3,3.4-0.8,4.5c-0.1,0.3-0.2,0.7-0.3,0.9c-0.3,0.7-1.3,1-1.5,1.7c-0.6,0.1-0.8,0.7-1.2,1.1c-0.2,0-0.4,0-0.5,0.1
		c-0.1,0.8-1.2,0.6-1.5,1.2c1,0.3,1.5,1.1,2.1,1.7c0.3,0.3,0.8,0.5,1.1,0.7c1.2,1.1,2.2,2.4,3.3,3.6c0.2,0.9,0.9,1.3,1.1,2.3
		c0.8,0.3,0.8,1.2,1.2,1.9c0.3,0.5,0.9,0.8,0.7,1.4c0.8,0.4,0.5,1.8,1.1,2.5c0.1,0.3-0.2,0.3-0.1,0.5c0.4,0.8,0.5,1.8,0.5,2.6
		c0,0.4,0,0.9,0,1.4c-0.1,1-0.1,2.3-0.4,3c-0.1,0.2-0.3,0.4-0.4,0.6c-0.1,0.3-0.1,0.6-0.2,0.9c-0.4,1.2-1.4,2.6-2.1,3.2
		c-0.2,0.2-0.6,0.4-0.9,0.6c-0.3,0.2-0.5,0.6-0.7,0.7c-0.3,0.2-0.6,0.2-0.9,0.4c-0.2,0.1-0.4,0.4-0.6,0.5c-2.2,1-5.2-0.8-5.4-2.5
		c-0.2-1.4,0.7-3.2,1.7-3.5c1.3-0.4,2.9,0.6,3,1.5c0.3,1.6-1.6,3.3-2.6,1.9c0.4-0.5,0.6-1.3,1-1.8c-0.8-1.2-2,0.4-1.9,1.7
		c0.2,0.5,0.5,0.8,0.8,1.1c0.6,0.1,1.2,0.4,1.9,0.4c1.6-0.5,2.7-1.3,3.7-2.3c0.7-0.7,1.5-1.6,1.5-2.6c0.5-1.7,0.9-4.5,0.4-6.6
		c-0.2-0.7-0.6-1.4-0.8-1.9c-0.2-0.5-0.2-1.1-0.4-1.4c-0.4-0.7-1-1.8-1.7-2.1c-0.3,0.7,0,1.4-0.2,2.1c-0.1,0.5-0.6,1-0.7,1.2
		c-0.2,0.4-0.2,0.8-0.3,1.2c-0.1,0.2-0.4,0.4-0.5,0.7c-0.1,0.1,0,0.4-0.1,0.5c-0.1,0.1-0.3,0.2-0.3,0.4c-0.4,1.1-0.8,1.8-1.5,2.5
		c-0.7,0.2-1.2,0.8-1.7,1.3c-0.4,0-0.7,0.2-0.8,0.5c-0.4-0.1-0.5,0.3-1.1,0.2c-0.6,0.7-2,0.9-3.1,0.8c0.9,0.9,2,1.3,2.6,2.4
		c0.5,1,0.6,3.1,0.1,4.2c-0.3,0.7-1.4,1.6-2.1,1.9c-0.3,0.2-0.7,0.1-1.1,0.3c-0.3,0.1-0.4,0.3-0.7,0.3c-1.5,0.4-3.1-0.4-4.4-0.8
		c-1.9,0.1-2.7-1.3-4.4-1.6c-0.5,0.6-0.3,1.4-0.5,2.1c-0.3,1-1.9,2.3-2.9,2.5c-1.8,0.4-3.6-0.8-4-2c-0.5-1.3,0-3.2,1.4-3.4
		c0.5-0.1,1.3,0,1.3,0.6c-0.9,0.4-2,1.1-1.8,2.2c0.1,0.8,1.1,0.8,1.7,1.3c0.4-0.4,0.9-0.7,1.3-1.1c0.2-0.6,0.3-1.3,0.3-2
		c0-0.2-0.2-0.3-0.2-0.5c0-0.3,0.1-0.5,0-0.7c-0.3-0.9-1-0.7-1.8-1.1c-0.2-0.1-0.3-0.4-0.5-0.5c-1.9-1-4.2-0.9-6.5-0.6
		c-2,0.8-3.9,1.6-5.5,2.7c-0.8,0.9-1.5,1.9-2.4,2.7c-0.4,1.3-1.5,2-1.8,3.4c-0.1,0.2-0.3,0.3-0.4,0.5c-0.3,2.5-1.4,4.6-0.9,7.3
		c0.2,1.1,1.1,2.4,1.5,3.2c0.5,1.1,0.7,2.1,1.5,2.7c0.4,1.3,1.3,2.1,2.1,3c0.3,1.2,1.4,1.5,1.7,2.6c1,1.1,1.8,2.5,2.9,3.5
		c0.7,1.4,2.3,2,2.8,3.6c0.9,0.7,1.5,1.7,2.4,2.4c0,0.2,0,0.5,0.1,0.6c0.3,0,0.5,0.1,0.8,0.2c13.7-5.3,23.8-14.7,30-27.8
		c3-5.7,4.9-12.9,5.6-20.9c0.3-3.4-0.1-6.6-0.4-9.5c-0.7-7.1-3.1-13.1-5.6-18.3c-1.1-2.1-2.3-4.1-3.5-6.1c-0.8-1-1.7-2.2-2.4-3.2
		c-0.3-0.3-0.6-0.9-0.9-0.8c0.3,1.6,0.2,2.5-0.5,3.3c-0.7,0.7-2.2,1.3-3.3,0.8c-1.4-0.6-1.2-3.3,0.3-3.6c2-0.4,1.3,1.4,0.2,1.4
		C99.5,28.3,99.7,28.7,100,28.8z M65.8,53.3c0.4-0.3,0.6-0.7,1-1c1.8-1.4,3.7-2.6,5.4-4c1.4-0.4,2.3-1.5,3.6-2.1
		c0.1-0.1,0.3,0,0.5-0.1c0.5-0.2,0.9-0.7,1.3-0.8c0.7-0.2,1.2-0.1,1.5-0.6c0.3,0,0.4-0.1,0.7-0.1c0.5-0.6,1.2-0.7,2.1-1
		c0.1-0.1,0.2-0.3,0.3-0.3c1.1-0.4,2.1-1.4,2.9-2c1.1-0.8,2.1-1.9,2.8-2.9c0.5-0.7,1.1-1.5,1.5-2.1c0.5-0.9,0.6-2,1.3-2.8
		c0.4-1.8,0.2-3.4-0.5-4.6c-0.4-0.8-1.7-1.5-2.4-1.5c-1,0-1.7,0.8-2.1,1.8c0.2,0.3,0.3,0.6,0.5,1c0.8,0.5,1.4-0.1,1.3-0.9
		c1.6,0.1,0.8,2.3-0.3,2.4c-0.6,0.1-1.3-0.1-1.7-0.1c0.4,1.8-0.2,4.2-1.2,5c-0.1,0.1-0.7,0.3-1,0.5c-0.6,0.4-0.5,0.4-1.3,0.3
		c-0.7-0.1-1.4-0.1-1.7-0.4c-0.2-0.2-0.2-0.5-0.5-0.5c-0.7,0-1.6,1.6-2.5,0.8c-0.3,0.1-0.4,0.3-0.7,0.3c-0.5-0.3-1.3-0.3-2-0.4
		c-0.3-1.6-1.6,0.1-2.3,0.1c0,0.3-0.2,0.6-0.3,0.9c-0.2,0-0.3,0.2-0.5,0.2c-0.7,1.3-1.9,2-2.8,3.1c-0.6,1-1.3,1.9-1.9,3
		c-0.2,0-0.3,0.1-0.4,0.1c0,0.6-0.4,0.9-0.4,1.6c-0.4,0.3-0.7,0.8-0.7,1.5c-1.4,2.5-2.7,5.4-3,8.8C63.5,55.4,64.6,54.3,65.8,53.3z
		 M76.8,29c-1,0.4-2.2,0.7-3.5,0.9c0,0.2-0.2,0.1-0.3,0.3c-1.5,0.4-2.5,1.2-3.8,1.8c-0.2,0.5-0.6,0.7-1,1c-0.2,0.1-0.5,0.2-0.7,0.4
		c-0.3,0.3-1.5,1.5-1.5,1.8c0,0.3,0.7,0.6,0.9,0.9c0.5,0.6,0.8,1.6,1.3,2.2c0.8-0.7,1.9-1.4,3-2.3c0.4-0.3,1-0.9,1.3-1.3
		c0.3-0.4,0-1.4,0.1-1.9c0.2-1.3,1.8-2.8,2.9-1.3c-0.3,0.4-0.5,0.9-0.8,1.3c0.7-0.2,1.2-0.7,1.8-1c0.5-1,1.6-1.4,2.3-2.2
		c0.4-0.1,0.8-0.3,0.9-0.7C79.1,28.4,77.7,29.2,76.8,29z M80.6,30.6c-0.1,0.8-1.1,0.7-1.4,1.3c-0.2,0-0.3,0-0.5-0.1
		c-0.6,0.7-1,1.5-1.8,1.9c-0.2,0-0.2-0.1-0.4-0.1c-0.5,0.6-1.1,1.1-1.7,1.7c0.6,0.8,1.9,0.8,2.5,0.6c0.7-0.2,1.5-0.2,1.8-0.7
		c0.2-0.4,0-0.9,0.2-1.5c0.2-0.7,1-0.8,1.8-0.8c0.3-0.8,0.5-1.9,0.4-2.9C81,30.1,81.3,30.9,80.6,30.6z M82.6,36.3
		c1.5-0.9,2.3-5,0.4-5.6c0,1.6-1.2,2.5-1.2,4.4c-0.3,0.2-0.4-0.2-0.8-0.1c-0.1,0.2-0.1,0.5-0.1,0.8C81.2,36.2,81.8,36.5,82.6,36.3z
		 M37.6,35.8c-0.1-0.2-0.1-0.4-0.3-0.5c-0.6-0.3-1.1-0.5-1.7-0.8c-0.5-0.2-1-0.7-1.5-0.9c-0.6-0.3-2.3-0.7-3.2-0.9
		c-0.4-0.1-0.7,0-1,0.1c-0.2,0-0.2-0.2-0.5-0.1c-2.6,0.1-5,1.3-6.1,3.2C22.7,37,22,38.3,22,39.7c0,0.4,0,1.4,0.1,1.8
		c0.1,0.3,0.6,1,1,1.5c0.2,0.2,0.7,0.7,0.9,0.8c1,0.4,1.5-0.4,2.4-0.3c0.1-0.2,0.3-0.3,0.3-0.7c-0.2-0.5-1.2-0.4-1.1-1.1
		c0.2-0.8,1.7,0,2.1,0.1c0,0.5,0.6,0.7,0.7,1.2c0.2,1-0.6,1.8-1.1,2.4c1.1,0.5,0,2.9-1,1.7c-0.2-0.9,0.5-1.1,0.6-1.4
		c-0.7,0-1.8,0.3-2.6,0.1c-0.8-0.1-1.4-0.5-1.9-0.9c-0.7-0.5-0.9-1-1.3-1.8c-0.2-0.4-0.4-0.7-0.6-1.1c-0.4-0.9-0.1-1.9-0.5-2.7
		c-1,0.1-1.5,0.8-2.8,0.7c-1.7-0.4-3.2-0.6-4.1-1.8c-0.8-1-1.2-2.3-1.5-3.9c-0.5,0.5-0.9,1.2-1.2,1.8c-0.5,1-1,2.1-1.5,3.1
		c-1,2.4-1.8,5-2.6,7.5c-0.2,0.7-0.4,1.6-0.5,2.3c0,0.3,0.1,0.6,0.1,0.9c-0.1,0.3-0.4,0.5-0.5,0.8c-0.2,0.4-0.1,0.9-0.1,1.3
		c1.7-0.4,1.5,1.5,0.3,1.6c-0.3-0.1-0.1-0.5-0.3-0.7c-1.1,2.2-0.4,5.6-0.8,8.3c-0.1,0.8,0,1.8,0.1,2.8C5,68.7,6,73.1,7.3,77
		c0.9,2.9,2.1,5.7,3.2,8.3c2.4,4.7,5.3,8.8,8.5,12.6c0.2,0.1,0.4,0.3,0.6,0.4c2.7,3.3,6.3,6,9.7,8.4c0.4,0.3,0.8,0.6,1.2,0.8
		c0.2,0.1,0.6,0.2,0.8,0.3c0.4,0.2,0.7,0.6,1.1,0.8c1.3,0.7,2.5,1.3,3.8,1.9c0.9,0.4,1.6,0.9,2.6,1.3c0.7,0.2,1.6,0.7,2.6,0.8
		c0.3-0.5,0.5-1.2,0.6-1.9c0.1-0.2,0.4-0.3,0.6-0.5c0.1-0.1-0.1-0.3,0-0.5c0.1-0.3,0.6-0.4,0.7-0.7c0.2-0.3,0.2-0.8,0.1-1.3
		c0.3-0.2,0.5-0.6,0.9-0.7c0.2-1.3,0.7-2.2,0.8-3.5c0.2,0,0.4,0,0.5-0.1c-0.3-0.8,0.2-1.3,0.4-1.7c0.5-1,0.4-2.4,1.1-3.2
		c0.1-0.2-0.1-0.3-0.1-0.5c0.5-0.6,0.7-1.3,0.5-2.3c0.5-0.5,0.4-1.2,0.7-2.1c0.1-0.3,0.3-0.6,0.3-0.8c0.1-0.5-0.1-1,0-1.5
		c0.1-0.2,0.3-0.4,0.3-0.6c0-0.1,0-0.5,0.1-0.7c0.2-1.5,0.3-3.1,0.5-4.6c0.1-0.4,0.2-0.7,0.3-1.1c0.1-1.6-0.1-3.2,0-4.8
		c0.1-1-0.2-2.1-0.2-3.1c0-0.3,0.1-0.5,0.1-0.7c-0.1-0.7-0.5-1.4-0.6-2.2c-0.1-0.6,0-1.3-0.1-1.9c-0.1-0.8-0.7-1.5-0.6-2.3
		c-0.6-0.6-0.5-1.9-1.1-2.4c0-0.2,0-0.4,0-0.5c-0.1-0.1-0.4,0-0.5-0.1c-0.3-1.5-1.8-1.8-2.5-2.8c-1.4-0.6-2.5-1.3-4.1-1.4
		c-1.4-0.1-2.9,0.2-3.7,0.7c-1.7,0.8-3,2.2-3.4,4.3c-0.4,1.8,0.2,3,0.7,4.2c0.2,0.5,0.3,1,0.5,1.3c0.5,1,2.4,2.9,3.4,3.2
		c0.7,0.2,1.3,0,2.3,0.2c0.4-0.4,0.8-0.6,0.7-1.5c-0.7,0-1-0.5-1.1-1.2c0.9-0.7,2.1,0.4,2.4,1c0.3,0.8,0,1.9-0.6,2.4
		c-0.2,0.2-0.6,0.2-0.9,0.3c-0.4,0.2-0.6,0.5-0.9,0.5c-0.8,0.1-1.5-0.2-2.3,0c-0.4-0.2-0.6-0.7-1.3-0.6c-0.3-0.4-0.7-0.6-1.3-0.7
		c-0.5-0.6-0.7-1.3-1.3-1.7c-0.2,0.6,0.1,1.7,0,2.5c-0.4,0.6-0.1,1.2-0.3,1.7c-0.1,0.3-0.5,0.6-0.6,0.9c-0.1,0.2,0,0.5-0.1,0.7
		c-0.1,0.2-0.4,0.4-0.6,0.7c-0.6,0.8-1.1,1.5-1.9,2c-0.4,0.3-1,0.4-1.4,0.7c-0.2,0.1-0.4,0.4-0.6,0.6c-1.6,1.2-3.2,2.6-3.5,4.9
		c0,1.2,0.3,2.1,1.4,2.4c0.8-0.1,1.9-0.3,2-1.1c0-0.3-0.1-1-0.5-1.2c-0.5,0-0.6,0.4-1.1,0.4c-0.2-0.2-0.4-0.4-0.3-0.9
		c0.4-0.7,1.3-0.5,2.1-0.3c1.4,0.8,1.3,2.9,0.3,3.8c-0.8,0.3-1.1,0.6-1.9,0.8c0,0.4,0.4,0.4,0.4,0.7c-0.3,0.4-0.3,0.9-0.8,0.9
		c-0.5,0.1-0.8-0.3-0.8-0.7c0-0.4,0.5-0.6,0.5-1c-1.1-0.3-2-0.7-2.6-1.7c-0.7-1.7-0.1-3.7,0.5-5.2c0.4-0.4,1.1-0.9,1.1-1.5
		c-1.9,1-4.9,1.1-6.6-0.1c-0.1-0.4-0.5-0.6-0.5-1.2c0.8,0,1.3-1,2.1-1.2c0.7-0.2,1.7-0.1,2.4-0.1c1.2,0.1,2.4,0.6,3.1,1.1
		c0.1,0.4-0.2,0.6,0.1,0.7c0.6-0.4,1.2-0.8,1.5-1.4c-0.7-0.6-1.7-0.9-2.1-1.9c-0.1-0.2,0-0.5-0.1-0.7c-0.1-0.2-0.2-0.3-0.3-0.5
		c-0.2-1,0.2-1.8,0.3-2.6c0.6-0.5,1.1-0.9,2-1.1c0.8,0.3,2.1,0.8,2.1,1.7c0,0.4-0.4,0.6-0.5,1.1c-0.7,0.2-1.5,0.1-1.7-0.4
		c-0.5,0.2-0.6,0.8-0.5,1.5c0.3,0.7,0.4,1.5,1.1,1.9c0.8,0.4,1.9,0,2.4-0.7c0.3-0.4,0.3-0.8,0.9-1c0-0.6,0.3-0.9,0.5-1.3
		c0-0.8,0.5-1.5,0.7-2.3c0.2-1.4-0.2-2.8-0.1-4.4c-0.1-0.3-0.3-0.6-0.1-0.9c-0.1-0.1-0.3-0.1-0.3-0.3c0.2-0.8-0.4-1.4-0.5-2.2
		c0-0.3,0.2-0.6,0.2-0.9c0.2-1.4,0.1-2.8,0.7-3.6c-1.3-1.2-3.9-1.1-5.8-1.7c-1.1-0.3-1.7-0.9-2.6-1.3c-0.7-1-1.4-1.4-1.5-2.6
		c-0.2-1.8,1.6-3.7,3.2-3.6c0.9,0.1,1.8,0.8,1.9,1.8c0.4-0.1,0.5-0.5,1.1-0.4c0,0.1,0.1,0.1,0.1,0.1c0.2,0.7,0,1.3-0.6,1.2
		c-0.4,0-0.2-0.4-0.6-0.5c-0.2,0.2-0.1,0.6-0.3,0.9c-0.6,0.6-2.4,0.8-2.3-0.7c0.3-0.2,1-0.1,1.3-0.4c-0.9-2.4-3.5,0.8-2.3,2.4
		c1.2,1.5,3.8,2.1,6.2,2.3c0.8,0.1,1.4-0.1,1.7-0.2c0.8-0.2,1.5-0.2,2.3-0.4c1.5-0.4,2.6-1.2,4-1.9c0.6-0.3,1.3-0.6,1.9-0.7
		c1-0.2,2.2,0,2.9-0.5c-0.1-0.3-0.4-0.4-0.5-0.8c-0.6-0.3-1-0.8-1.5-1.2c-0.6-0.4-1.1-0.7-1.7-1.1c-0.2-0.1-0.3-0.3-0.5-0.5
		c-0.9-0.5-2.1-1-2.9-1.2c-1.7-0.4-3.3-0.7-4.9-0.5c-0.2-0.3-0.6,0-0.9-0.2c-0.3,0-0.2,0.3-0.5,0.3c-1.9,0.1-3.5,1-5.1,1.3
		c-0.2,0.1-0.5,0-0.7,0.1c-1.2,0.3-2.2,1.4-3.2,1.8c-0.1,0.2-0.1,0.3-0.1,0.5c-0.6,0.3-0.8,0.8-1.1,1.5c-0.2,0.3-0.5,0.6-0.6,0.9
		c-0.3,0.6-0.2,1.2-0.4,1.9c-0.1,0.3-0.3,0.6-0.3,0.9c-0.1,1.7,0.6,3.4,1.3,4.2c0.5,0.5,1,0.7,1.9,0.7c0.6-0.3,1-0.8,1.1-1.5
		c-0.3-0.4-0.8-0.7-1-1.3c0.9-0.4,1.9,0,2.4,0.7c0.6,0.8,0.1,2-0.5,2.6c-1.3,0.7-3,0.5-4.3,0.1c-0.3,0.7-0.2,1.4-0.4,2.1
		c-0.1,0.5-0.5,0.8-0.6,1.3c-0.1,0.2,0,0.4-0.1,0.6c-0.5,1-1.8,2-3.4,1.6c-0.4-0.1-1.2-0.6-1.4-1.1c-0.5-1.2,0.1-2.9,1.5-2.8
		c0.3,0.3,0.5,0.6,0.5,0.9c-0.1,0.6-0.9,0.5-0.9,0.9c-0.1,0.7,0.7,0.8,1.2,0.6c0.3-0.1,1.2-1,1.6-1.7c0.4-0.8,0.4-1.7,0.6-2.6
		c-0.3-1.3-1.2-2.3-1.2-3.6c-0.7-1.1,0.2-2.2,0.2-3.4c0.6-0.8,1-1.8,1.5-2.8c1.1-1.7,2.7-3.2,4.5-4c-0.8-0.1-1.7,0-2.5,0.1
		c-0.8,0.1-1.5,0.3-2.1,0.4c-1.4,0.3-3.4,0.1-4.5,0.5C10.8,54.1,9.4,54,8.9,53C8.1,53,8,52,7.7,51.6C7.3,51,7.2,50.1,7,49.3
		c0-0.2,0.1-0.4,0.2-0.5c-0.3-1.6,0.8-2.3,1.3-3.4c1.1-1.2,3.1-1.8,5.4-1.3c0.3,0.3,0.7,0.4,1,0.6c0.2,0.5,0.6,0.7,0.8,1.2
		c0.6,1.7-0.7,3.4-2.8,3c-0.8-0.3-0.9-2,0.3-1.9c-0.1,0.6,0.1,1,0.7,0.9c0.2-0.4,0.2-0.9,0.3-1.3c-0.2-0.2-0.4-0.4-0.5-0.8
		c-0.6-0.1-1-0.3-1.5-0.5c-0.8,0.3-1.8,0-2.4,0.5c-0.6,0.4-1.3,1.9-1.4,2.6c-0.1,1,0.4,1.9,0.6,2.7c0.9,0.6,2.3,1.1,3.6,1
		c0.1-0.1-0.2-0.6,0.3-0.5c0.4-0.1,0,0.6,0.4,0.5c1,0,2.1-0.4,3.2-0.7c0.6-0.2,1.3-0.2,1.9-0.4c0.3-0.1,0.5-0.3,0.7-0.3
		c1.7-0.3,3.3-0.5,4.8-0.5c0.4-0.4,1.3-0.4,2.2-0.4c0.7,0,1.4-0.1,1.9-0.1c0.5,0,1.1,0.4,1.4-0.1c-0.3-1.2-0.9-2.4-0.9-3.7
		c0-1.5,0.2-2.9,0.7-3.9c0.5-1.3,1.2-1.8,2.1-2.8c0.6-0.6,1.3-1.1,1.9-1.5c0.6-0.3,1.6-0.6,2-0.7c1.4-0.3,3.3,0.2,3.9-0.9
		C38.6,36.2,38.2,36.1,37.6,35.8z M60.5,35.6c-1.3,0.3-1.9,1.5-3.3,1.6c-0.9,0.8-1.6,1.7-2.6,2.4c-0.2,1.4-1.4,1.7-1.4,3.2
		c-0.1,0.1-0.4,0.2-0.4,0.4c0.4,0.3,0.2,1.3,0.1,1.8c0,0.3,0.3,0.2,0.3,0.5c-0.2,0.7,0,1.3-0.2,1.9c0.1,0.2,0.4,0.2,0.3,0.5
		c0,0.8,0.3,1.2,0.3,1.9c0,0.9,0,1.4,0.3,2.2c0.3,1.2,0.6,2.3,1.2,3c0,0.2-0.1,0.6,0.2,0.5c0.5-1.1,0.8-2.6,1-3.8
		c0.1-0.6,0.5-1.3,0.6-1.7c0.2-0.5,0.1-1.1,0.3-1.6c0.1-0.3,0.4-0.5,0.5-0.8c0.1-0.5,0.1-1,0.3-1.4c0.1-0.3,0.4-0.5,0.5-0.8
		c0.2-0.6,0.4-1.1,0.6-1.5c0.1-0.3,0.1-0.6,0.2-0.9c0.2-0.4,0.5-0.7,0.7-1.1c0.2-0.4,0.3-1,0.5-1.4c0.3-0.5,0.9-0.9,0.9-1.6
		c0.9-1,1.3-2.4,2.3-3.3C62.5,35.2,61.5,35.4,60.5,35.6z M64.6,37.1c-0.6,0.9-1,2-1.5,3c0.1,0.6-0.1,1.2-0.5,1.5
		c0.1,0.8-0.2,1.2-0.2,2c0.6-0.4,1.3-1,1.8-1.6c0.3-0.3,0.4-0.8,0.8-1.1c0.7-0.6,1.6-1,2-1.9C66.3,38.2,65.9,36.6,64.6,37.1z
		 M33.1,40c-1.7,0.6-2.6,2.6-2.7,4.8c-0.2,2.8,1.5,4.7,3,5.7c2,0.3,3.6,0.6,5,1.5c2.3,0.7,4.1,1.7,5.8,3.2c0.7,0.2,1.1,0.6,1.6,1.1
		c1,1,2,2.2,2.8,3.3c0.7,0.4,1,1.1,1.6,1.6c0.5,0.8,1,1.5,1.5,2.1c0-0.9,0.1-1.8,0-2.7c-0.1-1-0.6-1.9-0.7-2.8
		c0-0.3,0.1-0.5,0.1-0.8c0-0.3-0.2-0.6-0.3-0.9c-0.2-1.3-0.5-2.5-0.7-3.8c-0.4-0.4-0.6-1.2-0.6-2c-0.1-0.2-0.3-0.3-0.3-0.5
		c-1.1-3.8-2.9-6.9-5.4-9.3c0-0.2,0-0.4-0.1-0.5c-0.4-0.2-0.7-0.3-1.2-0.4c-0.1,0.5,0.4,1,0.5,1.5c0,0.3,0.1,1,0.1,1.1
		c-0.1,0.5-0.6,0.6-0.6,1.1c-0.4,0-0.5,0.2-0.7,0.5c0.3,0.2,0.4,0.8,0.3,1.3c-0.9,0.1-1.4-0.3-1.8-0.7c-2.3,0.5-3.7-0.8-3.2-3.2
		c0.3-0.4,1.5-0.7,1.9-0.1c-0.1,0.4-0.6,0.3-0.7,0.7c0.1,0.9,0.5,1.6,1.3,1.7c0.6-0.4,1.3-1,1.5-1.9c0.2-1.1-0.4-2-0.9-2.6
		c-2.9-0.1-5.7,1.8-5.4,4.8c0,0.2-0.2,0.3-0.1,0.5c0.7,1.4,1.4,2.7,3.6,2.6c0.2-0.2,0.6-0.3,0.7-0.6c-0.1-0.7-0.8-0.7-0.9-1.5
		c0.7-0.6,1.6,0.1,2.1,0.4c0.6,1.8-0.4,3.2-1.7,3.4c-1.5,0.3-4-0.5-4.7-2.1c-0.1-0.2,0-0.5-0.1-0.7c-0.1-0.3-0.3-0.4-0.4-0.6
		c-0.2-0.7,0.1-1.2-0.1-1.8c0.2-0.4,0.4-0.8,0.3-1.5c0.3-0.5,0.6-1,0.8-1.7c0.4-0.4,1-0.6,1.1-1.3c0.4-0.1,0.7-0.4,0.8-0.8
		C34.7,38.3,33.5,39,33.1,40z M96,53.9c0.9-0.6,1.5-2.3,1.3-3.6c-0.4-0.7-0.4-1.6-0.8-2.3c-0.7-0.3-1.1-1-1.8-1.4
		c-0.3-0.2-0.7-0.2-1.1-0.3c-0.2-0.1-0.3-0.3-0.5-0.3c-0.5-0.2-0.9-0.1-1.4-0.1c-0.9-0.1-1.7-0.4-2.6-0.5c-0.6,0.3-1.3,0.3-1.8,0.5
		c-0.2,0-0.2-0.2-0.4-0.2c-0.3,0.4-1.4,0.2-1.9,0.3c-0.4,0.1-1.1,0.3-1.5,0.4c-1.6,0.5-2.8,1.4-4,1.9c-0.2,0.1-0.2,0.4-0.5,0.5
		c-1.2,0.5-2.2,1.3-3.1,1.9c-0.7,0.5-1.3,1-1.9,1.5c-1.2,1.2-2.4,2.6-3.2,4.2c-0.4,0.1-0.7,0.4-0.8,0.7c0.7,0.1,1.4-0.5,1.9-0.5
		c0.1,0,0.3,0.1,0.5,0.1c0.2,0,0.4-0.2,0.5-0.3c0.8-0.2,1.5-0.1,2.1-0.1c0.3,0,0.6-0.2,0.9-0.2c0.6,0,1.4,0.3,2-0.1
		c1.1,0.5,2.9,0.4,3.6,1.1c1,0.1,1.7,0.9,2.8,0.9c1.6,0,3.8-0.7,4.6-1.7c0.4-0.5,0.5-1.3,0.5-2.1c-0.4-1.1-2.5-3.2-3.4-1.4
		c0.2,0.5,1,0.2,0.9,1c-1.6,0.4-2.3-1-1.9-2.4c0.5-0.7,1.1-1.3,2.5-1.1c0.4,0.4,1.1,0.6,1.7,0.7c0.2,0.5,0.7,0.7,1.1,0.9
		c0,0.6,0.5,0.9,0.6,1.4c0.4,1.4-0.5,2.5-0.7,3.7c-1.4,1.2-2.8,2.6-5,2.6c0.1,0.9,0.6,1.7,0.6,2.8c0,1.4-0.4,2.8-0.8,4
		c-0.5,0.4-0.9,1-1.4,1.4c-1,0.8-2.4,1-3.9,0.6c-0.6-0.2-1.7-0.7-2.1-1c-0.8-0.7-1.3-2.7-0.1-3.6c0-0.2,0-0.3,0-0.5
		c0.7-0.5,1.5-0.8,2.8-0.7c0.4,0.3,0.7,0.6,1.1,0.9c0.1,0.7-0.2,1.3-0.9,1.3c-0.4-0.3-0.1-0.9-0.6-1c-0.4-0.1-1.1,0.6-1.2,1.2
		c-0.1,0.7,0.8,2,1.1,2.3c0.8,0.6,1.8-0.1,2.3-0.5c1.4-1,2.7-2.4,2.1-4.9c-0.2-0.7-0.6-1.2-0.9-1.8c-0.6-1-1.1-1.4-2.2-1.8
		c-0.4,0.1-0.7,0.1-0.9-0.2c-0.5,0.5-1.4,0.1-2.1,0.1c-2.3,0-4.6,0.5-5.7,1.5c-2.1,1-4,2.5-5,4.4c1-0.1,2.1-0.1,3,0.3
		c0.7,0.4,1.7,1,1.7,2c1.1,1.1,0.3,3.4,0.2,5c-0.2,0.3-0.5,0.6-0.3,0.9c1.7-0.2,3.8-0.8,5.9-0.7c2.7,0.2,4.9,1.3,7,1.9
		c1.8,1.1,3.7,2.4,5.8,3.1c0.2,0.1,0.4,0.4,0.6,0.5c0.5,0.2,1.3,0.5,1.8,0.6c1,0.3,2.9,0.3,3.8,0.1c0.4-0.1,0.6-0.2,1-0.3
		c0.8-0.3,1.6-1.1,1.7-2.1c0-0.2-0.2-0.4-0.2-0.8c0,0,0.1-0.2,0.1-0.3c0-0.1-0.5-0.9-0.5-1c-0.2-0.3-0.9-0.6-1.2-0.7
		c-1.2-0.2-2.1,0.8-2.3,2.1c0.6,0.6,0.9-0.3,1.6-0.3c0,0.1,0.1,0.1,0.2,0.1c0.1,2.2-2.3,2-3.1,1.1c-1-1.1-1-3.5,0.5-4.4
		c0.4-0.2,0.8-0.1,1.1-0.6c-0.2-0.3-0.6-0.2-0.9-0.3c-0.7-0.2-1.2-0.9-1.8-1.3c-0.4-0.9-1.3-1.7-1.5-2.9c-0.1-0.5,0-1.2,0-1.8
		c0-0.2-0.1-0.4-0.1-0.5c0.1-1.1,1-1.6,1.2-2.5c1-0.9,2.5-2.2,4.6-1.9c0.4,0.1,0.6,0.4,1.1,0.3c0,0.5,0.3,0.6,0.6,0.7
		c0.1,0.4,0.5,0.6,0.6,1.1c0.3,1.1-0.7,3.4-2.2,2.8c-0.1-0.2-0.3-0.4-0.3-0.8c0.5-0.4,1.3-0.8,1.3-1.5c0-0.6-0.9-1-1.3-1.5
		c-0.9,0-1.7,0.6-2.5,0.8c-0.5,0.5-0.8,1.2-1.3,1.7c-0.6,2.7,1.1,4.2,2.6,5.4c1.1,0.2,2.2,0.7,3.4,0.3c1.1-0.3,2.1-0.8,2.9-1.5
		c0.9-0.8,1.9-1.6,1.9-3c0.2-0.2,0.5-0.1,0.7-0.3c-0.1-0.7,0.5-0.9,0.3-1.7c0.9-0.9,0.3-2.3,0.3-3.7c-0.3-0.4-0.3-1-0.3-1.7
		c-0.5-1.1-0.9-2.2-1.4-3.4c-0.4-0.2-0.6-0.7-0.7-1.2c-1-0.6-1.6-1.6-2.6-2.3c-0.6,0.5-0.7,1.6-0.7,2.4c-0.3,0.9-1.2,1.4-1.5,2.3
		c-0.7,0.2-1,0.7-1.7,0.9c-1.6,0.3-3.5-0.9-3.4-2.3c0-0.4,0.8-1.4,1.1-1.5c0.9-0.2,2,0.5,1.5,1.4c-0.5,0-0.9,0.2-1,0.6
		C94.8,54.3,95.6,54.1,96,53.9z M63.5,77.4c0.3,0,0.4-0.3,0.7-0.3c0.9-1,2-1.9,3.3-2.5c1.4-1.3,2.8-2.7,3.2-4.9
		c0.8-1.2,0.6-3.3-0.4-4c-1.2-0.8-3.1,0.4-2.3,1.8c0.1,0.1,0.4,0,0.5,0.2c0,0.2,0,0.4,0,0.5c-0.4,0.3-0.9,0.5-1.6,0.4
		c-0.7-0.4-0.8-1.4-1.4-1.9c-0.8,1.2-0.9,3.1-1.7,4.3c-0.6,2.4-1.4,4.6-1.5,7.5C62.8,78.5,63.3,77.9,63.5,77.4z M26.2,78.1
		c0.3,0.4,0.8,0.1,0.9-0.3C26.7,77.6,26.3,77.9,26.2,78.1z"/>
	<path class="st1" d="M62.2,12.3c0.3,0.2,0.4,0.9,0.1,1.2c-0.4,0-0.8,0-1-0.2c0-0.2,0-0.4,0-0.7C61.5,12.5,61.7,12.3,62.2,12.3z"/>
	<path class="st1" d="M72.3,14.3c0.6,0.6,0.1,1.9-0.5,2.1c-0.2,0.9-0.8,1.4-1.2,2.1c-0.5,0.1-0.7,0.4-0.9,0.7
		c-0.7,0.1-1.7,0.7-2.4,0.2c-0.2-1.3,0.5-2.2,0.9-3.1c0.8-0.3,1-1.3,1.9-1.6C70.8,14.5,71.6,14.6,72.3,14.3z"/>
	<path class="st1" d="M62.7,14.9c0.2,0.4,0,0.9-0.1,1.2c-0.2,0.1-0.7,0.1-0.9,0C61.4,15.3,61.8,14.4,62.7,14.9z"/>
	<path class="st1" d="M60.9,16.9c0,0.5-0.1,0.9-0.4,1.2c-0.3,0.1-0.4-0.1-0.7-0.1c-0.1-0.3-0.3-0.6-0.1-1
		C60,16.9,60.6,16.8,60.9,16.9z"/>
	<path class="st1" d="M27.9,18c0.2,0.5,0,1.2-0.6,1.1C26.8,18.7,27.1,17.5,27.9,18z"/>
	<path class="st1" d="M78,18.2c0.1,0.3,0.1,0.7,0.1,1.2C77.2,20.3,76.5,17.8,78,18.2z"/>
	<path class="st1" d="M29.6,19.3c0,0.7-0.2,1-0.9,1c-0.2-0.2-0.2-0.5-0.2-0.9C28.8,19.1,29.3,19.1,29.6,19.3z"/>
	<path class="st1" d="M78.6,20.2c0.3,0.3,0.3,1.5-0.5,1.3C77.7,21.2,77.7,19.9,78.6,20.2z"/>
	<path class="st1" d="M92.6,27.8c-1-0.3-1.4-1.1-2.2-1.6c0-0.8-0.4-1.1-0.4-1.7c0-0.2,0.2-0.5,0.3-1c0.2-0.9-0.1-2.4,0.7-2.4
		c0.5,0,0.7,0.6,0.9,1.1c0.3,0.6,1,1.5,1.1,2.3c0,0.1-0.1,0.3-0.1,0.5c0,0.2,0.2,0.3,0.2,0.5C93.2,26.2,92.9,27.1,92.6,27.8z"/>
	<path class="st1" d="M80.7,21.4c0.1,0.6,0,1.3-0.7,1.3c-0.1-0.4-0.4-0.6-0.3-1.1C79.9,21.4,80.4,21.1,80.7,21.4z"/>
	<path class="st1" d="M29.9,21.5c0.1,0.2,0.1,0.7,0,0.9C28.8,23.3,28.5,20.7,29.9,21.5z"/>
	<path class="st1" d="M17.5,28c0.1,0.5-0.1,0.7-0.3,0.9c-0.2,0-0.4,0-0.7,0C16,28.3,17,27.3,17.5,28z"/>
	<path class="st1" d="M44.2,29.6c0.2,0.4,0.1,0.9-0.1,1.2c-0.3,0.1-0.6,0.2-0.9,0.1c-0.3-0.2-0.3-0.8-0.2-1.2
		C43.2,29.4,43.9,29.3,44.2,29.6z"/>
	<path class="st1" d="M97.8,29.6c0.2,0.5-0.1,1.3-0.5,1.2C96.6,30.7,96.7,29,97.8,29.6z"/>
	<path class="st1" d="M18.6,29.6c0.3,0.3,0.5,0.9,0.3,1.5c-0.4,0-0.6,0.1-0.9,0c-0.2-0.3-0.3-0.7-0.3-1.2
		C18,29.7,18.2,29.6,18.6,29.6z"/>
	<path class="st1" d="M101.8,30.8c0.2,0.9-0.7,1.1-1.3,0.8C100.3,30.6,101.2,30.4,101.8,30.8z"/>
	<path class="st1" d="M41,31.9c-0.3-1.5,1.6-1.2,1.3-0.1C42.1,32.3,41.5,32,41,31.9z"/>
	<path class="st1" d="M99.2,30.9c0.7,0.8-0.7,1.5-1.1,0.7c0-0.2,0-0.4,0.1-0.5C98.5,30.9,98.8,30.9,99.2,30.9z"/>
	<path class="st1" d="M40.2,32.3c-0.5,0.2-1,0-1.3-0.3c-0.1-0.3-0.1-0.8,0.1-1C39.8,30.8,40.5,31.4,40.2,32.3z"/>
	<path class="st1" d="M18.9,32.9c0.1,0.2,0.1,0.7,0,0.9c-0.2,0.1-0.6,0.1-0.9,0.1c-0.1-0.3-0.2-0.5-0.2-0.9
		C18.1,32.7,18.5,32.8,18.9,32.9z"/>
	<path class="st1" d="M79.9,37.4c0.3,0.7,0,1.9-0.9,1.9C78.6,38.6,78.8,37,79.9,37.4z"/>
	<path class="st1" d="M75.3,38.1c0.1,0.9-0.4,1.3-0.7,1.7c-0.2,0-0.4,0-0.6,0C73.1,38.9,74,37.7,75.3,38.1z"/>
	<path class="st1" d="M76.9,39.8c-0.3-0.2-0.6-0.4-0.7-0.7c-0.1-1.3,1.6-1.2,1.3,0.1C77.5,39.4,77.3,39.5,76.9,39.8z"/>
	<path class="st1" d="M19.6,40.4c-0.2,0.6,0,0.8,0,1.5c-0.1,2-1.1,3.7-2.6,4.6c-0.3,0-0.6,0-0.8-0.1c-0.6-1.4-0.5-3.8,0.4-4.8
		C17.5,41.1,18.1,39.9,19.6,40.4z"/>
	<path class="st1" d="M98.3,41.4c0.1,0.8-0.3,1.4-1.1,1.1c-0.1-0.4-0.3-0.7-0.1-1.1C97.5,41.1,97.9,41.1,98.3,41.4z"/>
	<path class="st1" d="M99.9,43.8c-0.3,0.1-0.5,0.1-0.9,0.1c-0.3-0.6-0.2-1.4,0.3-1.5C99.9,42.3,100.4,43.2,99.9,43.8z"/>
	<path class="st1" d="M101.8,42.6c0.4,0.7-0.1,1.7-0.8,1.5C100.2,43.9,100.5,42.2,101.8,42.6z"/>
	<path class="st1" d="M22.2,46.1c0.5,0.5,0.2,1.6-0.5,1.7C20.7,47.8,20.7,45.5,22.2,46.1z"/>
	<path class="st1" d="M41.8,46.4c0.3,0.2,0.4,0.9,0.3,1.4c-0.2,0.1-0.5,0.1-0.7,0.1C40.9,47.7,40.7,46,41.8,46.4z"/>
	<path class="st1" d="M24.6,46.8c0.2,0.2,0.2,0.6,0.1,1c-0.3,0.2-0.9,0.2-1.1-0.1C23.6,47.1,24,46.8,24.6,46.8z"/>
	<path class="st1" d="M104,48c1.3-1,4.1-1.1,5.6-0.1c0.5,0.3,1.4,1.2,1.4,1.7c0,1.1-1.8,1-2.6,1.5c-1.9,0.2-3.7-0.7-4.4-2.1
		C104,48.6,104,48.3,104,48z"/>
	<path class="st1" d="M88.4,48.3c0.1,0.3,0.3,0.6,0.3,1.1c-0.4,0.1-0.8,0.2-1.1,0.4C86.4,49.4,87.2,47.5,88.4,48.3z"/>
	<path class="st1" d="M85.6,49c0,0.4,0,0.7,0,1.1c-0.2,0.3-0.6,0.3-1.1,0.3C83.7,49.5,84.4,48,85.6,49z"/>
	<path class="st1" d="M40.4,50.1c-0.4,0-0.5-0.1-0.8-0.2c0-0.3-0.1-0.4-0.1-0.7C39.9,48.2,41.1,49.4,40.4,50.1z"/>
	<path class="st1" d="M84.1,52.2c-0.3,0.5-1.1,0.6-1.6,0.2c-0.1-0.8,0.2-1.3,0.6-1.6C83.7,51,84.2,51.3,84.1,52.2z"/>
	<path class="st1" d="M8.6,54.1c0.4,1.4-1.4,1.7-1.4,0.5C7.2,53.9,8.1,53.7,8.6,54.1z"/>
	<path class="st1" d="M26.7,54.8c0.1,0.3,0.1,0.9-0.1,1.1c-0.1,0-0.1,0-0.1,0.1C25.3,56.2,25.5,54.1,26.7,54.8z"/>
	<path class="st1" d="M14.4,58.3c-0.4,0.1-0.7,0.2-0.9,0.5c-0.8,0.1-3.9,0.6-3.9-0.5c0-0.6,0.9-0.7,0.9-1.5c0.3-0.2,0.6-0.5,0.8-0.8
		c0.8,0,1.1-0.9,1.9-1.1c0.9-0.2,2.9-0.2,3,0.4c0.2,0.6-0.6,1.4-0.9,1.8C15,57.6,14.9,57.9,14.4,58.3z"/>
	<path class="st1" d="M100.1,58.8c0.2,0.5-0.1,1.2-1,0.9C98.6,59,99.4,58.4,100.1,58.8z"/>
	<path class="st1" d="M26.4,58.8c0.3,0.3,0.2,1.1,0,1.4c-0.4,0.1-0.7,0-0.9-0.2C25.5,59.3,25.6,58.6,26.4,58.8z"/>
	<path class="st1" d="M90.9,64.1c-2.5,1.1-4.9-0.7-4.8-3.6c1.3-0.8,3,0.3,3.6,1.1C90.3,62.3,90.7,63.3,90.9,64.1z"/>
	<path class="st1" d="M80,60.7c0,0.2,0,0.4,0,0.6c-0.2,0.3-0.8,0.4-1.1,0.1C78.5,60.5,79.6,60,80,60.7z"/>
	<path class="st1" d="M101.1,60.9c0.2,0.8-0.8,1-1.1,0.5C99.8,60.8,100.7,60.6,101.1,60.9z"/>
	<path class="st1" d="M77.2,61.7c0.1,0.7-0.3,1-0.9,1c-0.3-0.2-0.4-0.6-0.3-1.1C76.4,61.2,76.8,61.6,77.2,61.7z"/>
	<path class="st1" d="M23,62.6c0.2,0.3,0.1,0.7,0,1C21.7,63.9,21.9,61.9,23,62.6z"/>
	<path class="st1" d="M100.6,63.5c0.1,0.8-0.2,1.1-1,1.1c-0.1-0.3-0.2-0.6-0.1-0.9C99.8,63.5,100.3,63.3,100.6,63.5z"/>
	<path class="st1" d="M75.4,65.4c-0.6,0-1.1-0.2-1.2-0.7c-0.2-0.7,0.3-1.5,1-1C75.7,64,75.3,64.6,75.4,65.4z"/>
	<path class="st1" d="M24.1,64.4c0,0.3,0,0.6-0.1,0.9c-0.2-0.1-0.2,0.1-0.3,0.1c-0.4-0.1-0.6-0.4-0.5-0.9
		C23.5,64.3,23.9,64.2,24.1,64.4z"/>
	<path class="st1" d="M24.1,66.6c0.1,0.3,0.1,0.7,0.1,1.1c-0.3,0.2-0.9,0.1-1.1-0.1C22.8,66.8,23.4,66.2,24.1,66.6z"/>
	<path class="st1" d="M11.4,68c0.2,0.5,0,1.5-0.5,1.6c-0.5,0.1-0.9-0.6-0.7-1.3C10.6,68.1,11,67.8,11.4,68z"/>
	<path class="st1" d="M20.4,74.3c-1.6,0.3-2.7-0.7-2.8-2.3c-0.1-0.5,0.2-1.2,0.2-1.8c0-0.5-0.1-1.3,0.7-1.3c0.6,0,0.9,0.8,1.2,1.2
		c0.2,0.3,0.6,0.5,0.7,0.8C20.9,71.9,20.8,73.4,20.4,74.3z"/>
	<path class="st1" d="M10.9,72.1c-0.2,0.2-0.6,0.4-1.1,0.3C9.7,72,9.6,71.5,9.6,71C10.2,70.2,11.2,70.9,10.9,72.1z"/>
	<path class="st1" d="M41.5,71.7c0.2,0.4,0.2,0.8,0,1.2c-0.2,0.1-0.4,0.1-0.7,0.1C40.3,72.4,40.4,71.3,41.5,71.7z"/>
	<path class="st1" d="M11.8,73.6c0,0.5,0,1-0.1,1.3c-1,0.3-1.3-0.5-1.3-1.5C10.7,72.9,11.6,73.3,11.8,73.6z"/>
	<path class="st1" d="M43.5,73.9c0.1,0.5,0,0.8-0.3,1.1c-0.4,0.2-0.8-0.1-1.1-0.3c-0.1-0.3-0.1-0.7,0.1-0.9
		C42.7,73.7,43,73.9,43.5,73.9z"/>
	<path class="st1" d="M42.7,76.2c0.4,0.3,0.4,1-0.1,1.1C42.1,77.5,41.6,76,42.7,76.2z"/>
	<path class="st1" d="M79.4,76.6c0.2,0.2,0.2,0.7,0.1,1c-0.2,0.1-0.4,0.3-0.8,0.3C78.1,77.3,78.5,75.8,79.4,76.6z"/>
	<path class="st1" d="M23.7,76.6c0.2,0.3,0,0.7-0.2,0.9c-0.4,0-0.7-0.1-0.9-0.2C22.2,76.4,23.2,76.3,23.7,76.6z"/>
	<path class="st1" d="M101.5,76.8c0.8-0.3,1,1.4,0.3,1.5C101.1,78.5,100.6,77.1,101.5,76.8z"/>
	<path class="st1" d="M36.3,82.7c-1.8,0.1-2.3-1.3-3.2-2.2C33,79.1,33.2,78,33.5,77c0.1,0,0.2,0,0.4,0c0.5,0.1,2.3,2.1,2.6,2.9
		C36.8,80.9,36.4,81.8,36.3,82.7z"/>
	<path class="st1" d="M103.9,77.9c0.1,0.3,0.2,1.1,0,1.4c-0.5,0-0.8-0.1-1.1-0.3c-0.1-0.3-0.1-0.8,0.1-1
		C103.1,77.9,103.5,77.9,103.9,77.9z"/>
	<path class="st1" d="M106.9,78.3c0.2,0.9-1.2,1-1.6,0.5C105.1,77.6,106.5,77.8,106.9,78.3z"/>
	<path class="st1" d="M90.9,84.5c-0.5,0-0.8-0.1-1.1-0.4c-2.7-0.1-2.9-3.4-2.2-5.8C90.1,78.9,91.9,81.5,90.9,84.5z"/>
	<path class="st1" d="M21.8,78.8c0.3,0,0.6,0,0.9,0C23.5,80,21,80.3,21.8,78.8z"/>
	<path class="st1" d="M78.4,80.8c-0.2,0-0.5,0-0.7,0c-0.3-0.2-0.4-0.9-0.2-1.4C78.3,79.3,78.7,80.1,78.4,80.8z"/>
	<path class="st1" d="M22.7,80.9c0.3-0.2,1.1,0.1,1.1,0.7C23.7,83,21.6,81.7,22.7,80.9z"/>
	<path class="st1" d="M80.5,81.7c0.1,0.5-0.1,0.8-0.2,1.1c-0.4,0-0.5-0.2-0.9-0.2C78.9,81.8,79.9,81.1,80.5,81.7z"/>
	<path class="st1" d="M30.1,89.6c0.1,0.4,0.3,1,0,1.3C28.8,91.2,28.8,88.8,30.1,89.6z"/>
	<path class="st1" d="M28.9,92.8c0,0.6-0.1,1-0.4,1.3c-0.6,0.1-0.9-0.1-1.1-0.5C27.6,93.1,28.1,92.5,28.9,92.8z"/>
</g>
<g class="st2">
	<path class="st3" d="M-111.7,0c1.9-0.1,4.7,0.1,6.9,0.3c6.5,0.7,12,2.3,17.1,4.5c6.7,2.9,12.5,6.9,17.3,11.7
		c1.3,1.3,2.4,2.5,3.5,3.8c4.5,5,8.1,11.3,10.6,18.5c1.2,3.6,2.1,7.4,2.7,11.8c1.7,11.3-1,23-4.5,30.9
		c-7.4,16.4-21.1,28.1-39.1,32.6c-3.9,1-8.1,1.3-12.8,1.5c-4.7,0.2-9-0.5-13-1.2c-4-0.7-7.6-2-10.9-3.4c-6.8-2.9-12.4-7-17.3-11.6
		c-5.1-4.8-9.1-10.4-12.1-16.9c-2.3-5-4.1-10.4-4.9-16.9c-0.3-2.2-0.4-4.4-0.5-6.8c-0.2-4.7,0.5-9.2,1.3-13.2c0.8-4,2-7.7,3.4-10.9
		c6.4-14.2,16.9-24.5,31.3-30.5c4.2-1.7,8.8-3.1,14-3.7c1.1-0.1,2.2-0.3,3.3-0.3C-114.3,0.1-112.8,0.1-111.7,0z M-90.3,18
		c-0.5-0.1-0.6-0.6-1.2-0.7c-0.1-0.5-0.5-0.8-0.5-1.5c-0.1-0.5,0.2-1,0-1.4c0.2,0,0.4,0,0.4-0.3c0-0.3-0.1-0.5-0.1-0.8
		c0.1-0.7,1.6-1.7,2.3-1.8c0.2,0,0.3,0.1,0.5,0.1c0.3,0,0.5-0.1,0.7-0.1c1.1,0,2.1,0.6,2.8,0.9c0.6,0.9,1.7,1.5,2,2.8
		c0.2,0.9,0,2.1,0.1,3.2c-0.5,0.4-0.4,1.5-0.7,2.1c-0.8,0.5-1.1,1.6-1.4,2.7c-0.8,0.3-0.6,1.5-1.7,1.5c-0.1,0.4-0.5,0.6-0.7,1
		c0.1,0.3,0.4,0.6,0.8,0.6c0.3-0.5,0.3-1.3,0.6-1.9c0.6-0.1,0.9-0.8,1.6-1c1-0.3,2.2,0,2.9,0.2c0.6,0.6,1.5,1.2,1.9,2
		c0.3,0.5,0.2,1.2,0.7,1.7c0.5-0.5,0.7-1.2,1-1.9c0.1-0.1,0.2-0.2,0.4-0.3c0.5-1.4,1.5-2.3,2.5-3.3c1.4-0.9,3.2-1.9,5.5-1.2
		c-0.8-1.4-2.1-2.3-3.1-3.5c-4.1-3.6-8.6-6.8-13.7-9.4c-6.7-3.1-14.7-5.7-24.2-5.7c-8.5,0-15.4,2-21.6,4.4c-5,2.4-9.7,4.9-13.6,8.4
		c-4.2,3.2-7.7,7.1-10.6,11.7c0.7-0.1,1.2,0.2,1.8,0c1.2,0.3,1.8,1.4,1.3,2.8c-0.2,0.2-0.4,0.5-0.5,0.7c-0.4,0.2-1.2,0.8-1.5,0.1
		c0.2-0.5,0.6-0.8,0.7-1.4c-0.3-0.4-0.3-1-0.9-1.1c-1-0.2-1.3,0.9-1.7,1.4c-0.2,0.3-0.5,0.5-0.6,0.7c-0.4,1-0.1,2.6,0.6,3.6
		c0.8,1.1,2.2,1.7,4,1.5c1-0.1,1.9-0.6,2.8-0.9c0.1-0.1,0.2-0.4,0.2-0.6c1-0.5,1.5-1.4,2.1-2.3c0.2,0,0.2-0.1,0.4-0.1
		c0.1-0.2,0.2-0.4,0.3-0.6c0.6-0.2,0.9-0.7,1.3-1.1c1.8-0.5,3.4-1.6,5.4-1.1c1-0.6,2.6,0,3.6,0.1c0.7,0.5,1.6,0.4,2.4,0.7
		c0.4,0.1,0.7,0.5,1.1,0.7c0.8,0.5,1.7,0.5,2.1,1.2c2.7,1.4,5.1,3.1,6.8,5.4c0.1,0.1,0.3,0.1,0.5,0.2c0,0.2,0.2,0.3,0.2,0.5
		c0.7,0.1,0.7,0.8,1.4,0.9c0.1-0.3,0.1-0.7,0.1-1.1c0.7-0.8,0.7-2.3,1.3-3.4c0.1-0.2,0.3-0.3,0.4-0.5c0.1-0.4,0.1-1,0.3-1.5
		c0.1-0.3,0.5-0.5,0.7-0.8c0.4-0.7,0.5-1.4,0.9-2c0.1-0.2,0.4-0.4,0.5-0.7c0.1-0.3,0.1-0.8,0.2-1.3c0.1-0.5,0.4-1.1,0.5-1.6
		c0.3-1.9,0-4-0.3-5.2c-0.1-0.5-0.2-1-0.3-1.4c-0.4-1.1-1.2-1.7-1.5-2.9c-0.4-0.3-0.6-0.7-0.8-1.2c-0.7-0.6-1.5-1.1-2.1-1.8
		c-0.9,0-1.4-0.4-1.9-0.8c-1.5,0-2.5-0.8-4.2-0.7c-0.4,0.2-1,0.5-1.5,0.3c-1.3,0.2-1.7,1.3-2.9,1.6c-0.1,0.5-0.6,0.6-1,1
		c-0.8,1-0.8,2.9,0.6,3.2c0.6,0,0.8-1.1,0.5-1.7c-0.5,1.7-1.6-0.7-0.5-1.1c0.6,0,1,0.4,1.7,0.5c0.7,0.5,0.5,1.6,0.7,2.4
		c0.1-0.2,0,0.2,0.2,0.1c0.5-0.3,0.3-1.3,0.5-1.8c0.8-1.2,2.5-2.5,4.6-1.8c0.2,2.6-1.8,3.4-4.1,3.8c0.6,0.6,1.5,0.9,2.1,1.5
		c0.7,0.8,0.9,2.1,1.2,3.3c-0.2,1.3-0.3,2.7-0.9,3.6c-0.8,0.7-2.3,1.5-3.6,1.1c-1-0.3-1.8-2-0.9-2.8c0.3-0.1,1-0.2,1.1,0.1
		c0.2,0.7-0.3,0.7-0.5,1.1c1.2,2.1,3.7,0.1,3.8-1.9c0.1-1.8-0.9-2.6-1.5-3.6c-0.8-0.5-1.5-1.4-2.8-1.5c-0.9-0.1-1.9,0.1-2.9,0.3
		c-0.1,0.1,0.1,0.4,0,0.7c-0.3,0.3-0.2,0.7-0.4,1.1c-0.1,0.2-0.4,0.3-0.5,0.5c-0.3,0.5-0.4,1-0.8,1.4c-0.3,0.2-0.5,0.4-0.7,0.6
		c-0.7,0.7-1.7,0.8-2.6,1.3c-0.3,0-0.7,0.1-0.9-0.1c-1.6,0.7-3.1-0.4-4.2-0.9c-1.2-1-1.9-2.9-1.5-5c0.6-1.3,1.4-2,3.5-1.8
		c0.2,0.5,0.7,0.5,0.9,0.9c0.1,0.2-0.1,0.2-0.1,0.5c0,0.3,0.2,0.7,0.1,0.9c-0.2,1.4-1.8,1.5-2.8,0.7c-0.9,1,0.7,2,1.1,2.8
		c0.8,0.4,1.5,1,2.7,0.8c0.2,0,0.3-0.2,0.5-0.3c0.6-0.2,1.1-0.2,1.5-0.5c0.3-0.2,0.5-0.6,0.9-1c0.7-0.8,1.7-1.7,1.9-2.8
		c0.2-1.4-0.7-2.2-0.6-3.4c0-0.4,0.4-0.7,0.2-1.1c0.1-0.3,0.3-0.5,0.3-0.9c0.6-0.3,0.7-1,1.3-1.4c0.2,0,0.3,0,0.5,0.1
		c0.2-0.1,0.1-0.6,0.3-0.7c0.2,0,0.4,0,0.5,0c0.1-0.1-0.1-0.3,0-0.5c0.9-0.6,2.3-1,3.6-1.3c1.9-0.4,3.8,0.1,5.2,0.5
		c0.1,0.1,0.1,0.4,0.3,0.4c0.5-0.1,0.8,0.3,1.2,0.3c0.9,0.1,0.8,0.1,1.4,0.5c0.5,0.4,1,0.5,1.5,0.9c0.7,0.6,1.6,1.6,1.9,2.4
		c0.3,0.1,0.5,0.2,0.7,0.3c0.3,1.1,1.3,1.5,1.4,2.8c0.1,0.2,0.4,0.3,0.5,0.5c-0.1,0.6,0.3,0.6,0.3,1.1c1.1,0.8,1.3,2.7,1.5,4.1
		c0.9-0.1,1.8-0.9,2.5-1.3c1.1-0.7,2.1-1.4,3-2.2c1.3-1.2,1.8-2.9,2.8-4.6c0.4-1.7,0.5-3.4,0.4-5.3c-0.4-0.5-0.1-1.1-0.3-1.7
		c-0.4-1-1.7-1.6-2.3-2.3c-1.3,0-2.6-0.6-3.7-0.1c-1,0.5-1.9,1.6-2.4,2.5c0,0.7-0.2,1.3-0.4,1.8c0.2,0.9,0.9,2,1.7,2.3
		c1,0.4,2.4-0.6,2.4-1.6c0-0.5-0.4-0.7-0.5-1.2c0.2-0.2,0.6-0.2,1.1-0.2c1.9,2.3-0.3,4.8-3,4.3c-1.8-0.3-3.3-2.3-2.8-4.2
		c-0.6-0.9,0.4-1.9,0.4-3c0.6-0.8,1-1.7,1.9-2.3c0.1-0.1,0.2,0,0.3-0.1c0.3-0.2,0.4-0.5,0.7-0.6c0.9-0.4,3-0.6,4-0.1
		c0.2,0.1,0.4,0.4,0.7,0.6c0.8,0.4,1.1,0.6,1.7,1.2c0.3,0.3,0.4,0.7,0.6,1c0.3,0.4,0.8,0.8,0.7,1.5c0.5,0.5,0.6,2.1,0.8,2.8
		c0.1,0.6,0,1.2,0,1.7c0.1,1,0,2.5-0.2,3.5c-0.1,0.7-0.7,1.3-0.7,2.1c2.2-0.3,5.2-0.8,7.4,0c0,0.1,0.3-0.2,0.5-0.1
		c0.7,0.4,1.8,0.4,2.6,0.7c0.7,0.3,1.3,0.9,1.9,0.9c0.3,0.3,0.7,0.5,0.9,0.9c1.7,0.3,2,2.1,3.1,3c0,0.3-0.1,0.4,0.1,0.6
		c1-0.4,1.8-1,2.2-2.1c0.2-0.2,0.4-0.4,0.6-0.5c0-0.2,0.1-0.3,0.1-0.5c0.2-0.2,0.5-0.4,0.7-0.7c0.4-1.1,1.3-2.2,1.3-3.5
		c0-0.7-0.3-1-0.4-1.5c0-0.2,0-0.4-0.1-0.6c-0.2-0.6-1.3-1.4-1.9-1.5c-1.7-0.5-3,0.3-3.6,1.5c-0.1,1,0.2,1.9,0.8,1.9
		c0.7,0,0.7-1.1,1.2-1.5C-86.9,16.3-88.6,18.4-90.3,18z M-94.1,21.3c-0.2-0.1-0.4-0.3-0.7-0.4c-0.6-0.2-1.2-0.3-1.7-0.5
		c-0.3-0.1-0.5-0.4-0.8-0.5c-0.9-0.3-1.9-0.5-2.9-0.3c-1.1-0.2-2.2,0.4-3.6,0.3c-0.4,0.3-0.6,0.4-1.4,0.4c-1.2,0.5-2.2,1.2-3.5,1.6
		c-0.8,0.8-1.8,1.4-2.7,2.1c-0.4,0.8-1.3,1.1-1.5,2.1c-0.7,0.8-1.6,1.5-2.1,2.6c-0.9,1.2-1.4,2.8-2.3,4.1c0.1,0.6-0.5,0.8-0.1,1.1
		c1.6-0.9,3.4-2.1,5.5-2.6c2.2-0.5,3.3-0.3,5.1,0c1.4-1.4,3-2.6,4.4-3.9c1.8-0.7,3.1-2.1,5.4-2.3c0.9-0.3,1.9-0.8,2.9-0.9
		c0.2,0,0.4,0.1,0.6,0.1c0.3,0,0.6-0.2,0.9-0.2c0.6,0,1.3,0.5,1.9,0.1C-91,22.8-92.5,22-94.1,21.3z M-71.2,25.8c0,0,0.1-0.1,0.2-0.1
		c0.6-0.1,1.3-0.1,1.5-0.5c0.8-1.1,0.3-2.6-0.8-3.2c-0.2-0.1-0.7-0.1-0.9-0.3c-0.2,0.3-0.7,0.1-1,0.2c-2,0.4-2.6,1.9-4,3
		c0,0.2-0.1,0.3-0.1,0.6c-0.2,0.2-0.4,0.5-0.7,0.7c0,0.2,0,0.4-0.1,0.6c-1.6,2.8-2.7,6-4.1,9c-0.6,0.7-0.9,1.7-1.7,2.2
		c-0.2,1-1.3,1.6-1.5,2.4c0.8,0.2,2-0.1,2.8-0.1c0.7,0,1.1,0.4,1.6,0.6c0.2,0.1,0.5,0,0.7,0.1c0.6,0.1,1.1,0.5,1.5,0.7
		c0.2,0.1,0.4,0,0.5,0.1c0.4,0.2,0.6,0.6,0.9,0.7c0.2,0.1,0.5,0,0.7,0.1c0.9,0.4,1.5,1.1,2.4,1.2c2.1,0.2,3.6-0.5,4.8-1.3
		c1.7-1.2,2.9-2.5,3-5.2c-0.2-0.4-0.5-0.6-0.4-1.2c-1.1-1.8-5.5-1.5-5.3,1.3c0.2,0.4,1.1,0.7,1.5,0.3c0.2-0.3-0.5-0.5-0.2-0.9
		c1-0.1,1.7,0.7,1.3,1.5c-0.4,1.1-2.2,1.2-3,0.5c-0.4-0.9-1.4-1.4-1.2-2.8c0.1-0.9,0.5-1.6,0.9-2c0.4-0.4,0.6-0.8,1-1.1
		c0.9,0.1,1.5-0.4,2.2-0.3c0.3,0,0.4,0.2,0.7,0.3c1,0.4,2.2,0.8,3,1.4c0.3,0.7,0.7,1.4,1.1,2c0.1,1.8-0.3,3.4-0.8,4.5
		c-0.1,0.3-0.2,0.7-0.3,0.9c-0.3,0.7-1.3,1-1.5,1.7c-0.6,0.1-0.8,0.7-1.2,1.1c-0.2,0-0.4,0-0.5,0.1c-0.1,0.8-1.2,0.6-1.5,1.2
		c1,0.3,1.5,1.1,2.1,1.7c0.3,0.3,0.8,0.5,1.1,0.7c1.2,1.1,2.2,2.4,3.3,3.6c0.2,0.9,0.9,1.3,1.1,2.3c0.8,0.3,0.8,1.2,1.2,1.9
		c0.3,0.5,0.9,0.8,0.7,1.4c0.8,0.4,0.5,1.8,1.1,2.5c0.1,0.3-0.2,0.3-0.1,0.5c0.4,0.8,0.5,1.8,0.5,2.6c0,0.4,0,0.9,0,1.4
		c-0.1,1-0.1,2.3-0.4,3c-0.1,0.2-0.3,0.4-0.4,0.6c-0.1,0.3-0.1,0.6-0.2,0.9c-0.4,1.2-1.4,2.6-2.1,3.2c-0.2,0.2-0.6,0.4-0.9,0.6
		c-0.3,0.2-0.5,0.6-0.7,0.7c-0.3,0.2-0.6,0.2-0.9,0.4c-0.2,0.1-0.4,0.4-0.6,0.5c-2.2,1-5.2-0.8-5.4-2.5c-0.2-1.4,0.7-3.2,1.7-3.5
		c1.3-0.4,2.9,0.6,3,1.5c0.3,1.6-1.6,3.3-2.6,1.9c0.4-0.5,0.6-1.3,1-1.8c-0.8-1.2-2,0.4-1.9,1.7c0.2,0.5,0.5,0.8,0.8,1.1
		c0.6,0.1,1.2,0.4,1.9,0.4c1.6-0.5,2.7-1.3,3.7-2.3c0.7-0.7,1.5-1.6,1.5-2.6c0.5-1.7,0.9-4.5,0.4-6.6c-0.2-0.7-0.6-1.4-0.8-1.9
		c-0.2-0.5-0.2-1.1-0.4-1.4c-0.4-0.7-1-1.8-1.7-2.1c-0.3,0.7,0,1.4-0.2,2.1c-0.1,0.5-0.6,1-0.7,1.2c-0.2,0.4-0.2,0.8-0.3,1.2
		c-0.1,0.2-0.4,0.4-0.5,0.7c-0.1,0.1,0,0.4-0.1,0.5c-0.1,0.1-0.3,0.2-0.3,0.4c-0.4,1.1-0.8,1.8-1.5,2.5c-0.7,0.2-1.2,0.8-1.7,1.3
		c-0.4,0-0.7,0.2-0.8,0.5c-0.4-0.1-0.5,0.3-1.1,0.2c-0.6,0.7-2,0.9-3.1,0.8c0.9,0.9,2,1.3,2.6,2.4c0.5,1,0.6,3.1,0.1,4.2
		c-0.3,0.7-1.4,1.6-2.1,1.9c-0.3,0.2-0.7,0.1-1.1,0.3c-0.3,0.1-0.4,0.3-0.7,0.3c-1.5,0.4-3.1-0.4-4.4-0.8c-1.9,0.1-2.7-1.3-4.4-1.6
		c-0.5,0.6-0.3,1.4-0.5,2.1c-0.3,1-1.9,2.3-2.9,2.5c-1.8,0.4-3.6-0.8-4-2c-0.5-1.3,0-3.2,1.4-3.4c0.5-0.1,1.3,0,1.3,0.6
		c-0.9,0.4-2,1.1-1.8,2.2c0.1,0.8,1.1,0.8,1.7,1.3c0.4-0.4,0.9-0.7,1.3-1.1c0.2-0.6,0.3-1.3,0.3-2c0-0.2-0.2-0.3-0.2-0.5
		c0-0.3,0.1-0.5,0-0.7c-0.3-0.9-1-0.7-1.8-1.1c-0.2-0.1-0.3-0.4-0.5-0.5c-1.9-1-4.2-0.9-6.5-0.6c-2,0.8-3.9,1.6-5.5,2.7
		c-0.8,0.9-1.5,1.9-2.4,2.7c-0.4,1.3-1.5,2-1.8,3.4c-0.1,0.2-0.3,0.3-0.4,0.5c-0.3,2.5-1.4,4.6-0.9,7.3c0.2,1.1,1.1,2.4,1.5,3.2
		c0.5,1.1,0.7,2.1,1.5,2.7c0.4,1.3,1.3,2.1,2.1,3c0.3,1.2,1.4,1.5,1.7,2.6c1,1.1,1.8,2.5,2.9,3.5c0.7,1.4,2.3,2,2.8,3.6
		c0.9,0.7,1.5,1.7,2.4,2.4c0,0.2,0,0.5,0.1,0.6c0.3,0,0.5,0.1,0.8,0.2c13.7-5.3,23.8-14.7,30-27.8c3-5.7,4.9-12.9,5.6-20.9
		c0.3-3.4-0.1-6.6-0.4-9.5c-0.7-7.1-3.1-13.1-5.6-18.3c-1.1-2.1-2.3-4.1-3.5-6.1c-0.8-1-1.7-2.2-2.4-3.2c-0.3-0.3-0.6-0.9-0.9-0.8
		c0.3,1.6,0.2,2.5-0.5,3.3c-0.7,0.7-2.2,1.3-3.3,0.8c-1.4-0.6-1.2-3.3,0.3-3.6c2-0.4,1.3,1.4,0.2,1.4
		C-71.7,25.4-71.5,25.8-71.2,25.8z M-105.3,50.4c0.4-0.3,0.6-0.7,1-1c1.8-1.4,3.7-2.6,5.4-4c1.4-0.4,2.3-1.5,3.6-2.1
		c0.1-0.1,0.3,0,0.5-0.1c0.5-0.2,0.9-0.7,1.3-0.8c0.7-0.2,1.2-0.1,1.5-0.6c0.3,0,0.4-0.1,0.7-0.1c0.5-0.6,1.2-0.7,2.1-1
		c0.1-0.1,0.2-0.3,0.3-0.3c1.1-0.4,2.1-1.4,2.9-2c1.1-0.8,2.1-1.9,2.8-2.9c0.5-0.7,1.1-1.5,1.5-2.1c0.5-0.9,0.6-2,1.3-2.8
		c0.4-1.8,0.2-3.4-0.5-4.6c-0.4-0.8-1.7-1.5-2.4-1.5c-1,0-1.7,0.8-2.1,1.8c0.2,0.3,0.3,0.6,0.5,1c0.8,0.5,1.4-0.1,1.3-0.9
		c1.6,0.1,0.8,2.3-0.3,2.4c-0.6,0.1-1.3-0.1-1.7-0.1c0.4,1.8-0.2,4.2-1.2,5c-0.1,0.1-0.7,0.3-1,0.5c-0.6,0.4-0.5,0.4-1.3,0.3
		c-0.7-0.1-1.4-0.1-1.7-0.4c-0.2-0.2-0.2-0.5-0.5-0.5c-0.7,0-1.6,1.6-2.5,0.8c-0.3,0.1-0.4,0.3-0.7,0.3c-0.5-0.3-1.3-0.3-2-0.4
		c-0.3-1.6-1.6,0.1-2.3,0.1c0,0.3-0.2,0.6-0.3,0.9c-0.2,0-0.3,0.2-0.5,0.2c-0.7,1.3-1.9,2-2.8,3.1c-0.6,1-1.3,1.9-1.9,3
		c-0.2,0-0.3,0.1-0.4,0.1c0,0.6-0.4,0.9-0.4,1.6c-0.4,0.3-0.7,0.8-0.7,1.5c-1.4,2.5-2.7,5.4-3,8.8
		C-107.7,52.5-106.5,51.3-105.3,50.4z M-94.3,26.1c-1,0.4-2.2,0.7-3.5,0.9c0,0.2-0.2,0.1-0.3,0.3c-1.5,0.4-2.5,1.2-3.8,1.8
		c-0.2,0.5-0.6,0.7-1,1c-0.2,0.1-0.5,0.2-0.7,0.4c-0.3,0.3-1.5,1.5-1.5,1.8c0,0.3,0.7,0.6,0.9,0.9c0.5,0.6,0.8,1.6,1.3,2.2
		c0.8-0.7,1.9-1.4,3-2.3c0.4-0.3,1-0.9,1.3-1.3c0.3-0.4,0-1.4,0.1-1.9c0.2-1.3,1.8-2.8,2.9-1.3c-0.3,0.4-0.5,0.9-0.8,1.3
		c0.7-0.2,1.2-0.7,1.8-1c0.5-1,1.6-1.4,2.3-2.2c0.4-0.1,0.8-0.3,0.9-0.7C-92.1,25.5-93.4,26.3-94.3,26.1z M-90.6,27.7
		c-0.1,0.8-1.1,0.7-1.4,1.3c-0.2,0-0.3,0-0.5-0.1c-0.6,0.7-1,1.5-1.8,1.9c-0.2,0-0.2-0.1-0.4-0.1c-0.5,0.6-1.1,1.1-1.7,1.7
		c0.6,0.8,1.9,0.8,2.5,0.6c0.7-0.2,1.5-0.2,1.8-0.7c0.2-0.4,0-0.9,0.2-1.5c0.2-0.7,1-0.8,1.8-0.8c0.3-0.8,0.5-1.9,0.4-2.9
		C-90.1,27.2-89.8,27.9-90.6,27.7z M-88.6,33.4c1.5-0.9,2.3-5,0.4-5.6c0,1.6-1.2,2.5-1.2,4.4c-0.3,0.2-0.4-0.2-0.8-0.1
		c-0.1,0.2-0.1,0.5-0.1,0.8C-89.9,33.3-89.4,33.6-88.6,33.4z M-133.5,32.9c-0.1-0.2-0.1-0.4-0.3-0.5c-0.6-0.3-1.1-0.5-1.7-0.8
		c-0.5-0.2-1-0.7-1.5-0.9c-0.6-0.3-2.3-0.7-3.2-0.9c-0.4-0.1-0.7,0-1,0.1c-0.2,0-0.2-0.2-0.5-0.1c-2.6,0.1-5,1.3-6.1,3.2
		c-0.7,1.1-1.4,2.5-1.4,3.8c0,0.4,0,1.4,0.1,1.8c0.1,0.3,0.6,1,1,1.5c0.2,0.2,0.7,0.7,0.9,0.8c1,0.4,1.5-0.4,2.4-0.3
		c0.1-0.2,0.3-0.3,0.3-0.7c-0.2-0.5-1.2-0.4-1.1-1.1c0.2-0.8,1.7,0,2.1,0.1c0,0.5,0.6,0.7,0.7,1.2c0.2,1-0.6,1.8-1.1,2.4
		c1.1,0.5,0,2.9-1,1.7c-0.2-0.9,0.5-1.1,0.6-1.4c-0.7,0-1.8,0.3-2.6,0.1c-0.8-0.1-1.4-0.5-1.9-0.9c-0.7-0.5-0.9-1-1.3-1.8
		c-0.2-0.4-0.4-0.7-0.6-1.1c-0.4-0.9-0.1-1.9-0.5-2.7c-1,0.1-1.5,0.8-2.8,0.7c-1.7-0.4-3.2-0.6-4.1-1.8c-0.8-1-1.2-2.3-1.5-3.9
		c-0.5,0.5-0.9,1.2-1.2,1.8c-0.5,1-1,2.1-1.5,3.1c-1,2.4-1.8,5-2.6,7.5c-0.2,0.7-0.4,1.6-0.5,2.3c0,0.3,0.1,0.6,0.1,0.9
		c-0.1,0.3-0.4,0.5-0.5,0.8c-0.2,0.4-0.1,0.9-0.1,1.3c1.7-0.4,1.5,1.5,0.3,1.6c-0.3-0.1-0.1-0.5-0.3-0.7c-1.1,2.2-0.4,5.6-0.8,8.3
		c-0.1,0.8,0,1.8,0.1,2.8c0.2,4.8,1.3,9.2,2.5,13.1c0.9,2.9,2.1,5.7,3.2,8.3c2.4,4.7,5.3,8.8,8.5,12.6c0.2,0.1,0.4,0.3,0.6,0.4
		c2.7,3.3,6.3,6,9.7,8.4c0.4,0.3,0.8,0.6,1.2,0.8c0.2,0.1,0.6,0.2,0.8,0.3c0.4,0.2,0.7,0.6,1.1,0.8c1.3,0.7,2.5,1.3,3.8,1.9
		c0.9,0.4,1.6,0.9,2.6,1.3c0.7,0.2,1.6,0.7,2.6,0.8c0.3-0.5,0.5-1.2,0.6-1.9c0.1-0.2,0.4-0.3,0.6-0.5c0.1-0.1-0.1-0.3,0-0.5
		c0.1-0.3,0.6-0.4,0.7-0.7c0.2-0.3,0.2-0.8,0.1-1.3c0.3-0.2,0.5-0.6,0.9-0.7c0.2-1.3,0.7-2.2,0.8-3.5c0.2,0,0.4,0,0.5-0.1
		c-0.3-0.8,0.2-1.3,0.4-1.7c0.5-1,0.4-2.4,1.1-3.2c0.1-0.2-0.1-0.3-0.1-0.5c0.5-0.6,0.7-1.3,0.5-2.3c0.5-0.5,0.4-1.2,0.7-2.1
		c0.1-0.3,0.3-0.6,0.3-0.8c0.1-0.5-0.1-1,0-1.5c0.1-0.2,0.3-0.4,0.3-0.6c0-0.1,0-0.5,0.1-0.7c0.2-1.5,0.3-3.1,0.5-4.6
		c0.1-0.4,0.2-0.7,0.3-1.1c0.1-1.6-0.1-3.2,0-4.8c0.1-1-0.2-2.1-0.2-3.1c0-0.3,0.1-0.5,0.1-0.7c-0.1-0.7-0.5-1.4-0.6-2.2
		c-0.1-0.6,0-1.3-0.1-1.9c-0.1-0.8-0.7-1.5-0.6-2.3c-0.6-0.6-0.5-1.9-1.1-2.4c0-0.2,0-0.4,0-0.5c-0.1-0.1-0.4,0-0.5-0.1
		c-0.3-1.5-1.8-1.8-2.5-2.8c-1.4-0.6-2.5-1.3-4.1-1.4c-1.4-0.1-2.9,0.2-3.7,0.7c-1.7,0.8-3,2.2-3.4,4.3c-0.4,1.8,0.2,3,0.7,4.2
		c0.2,0.5,0.3,1,0.5,1.3c0.5,1,2.4,2.9,3.4,3.2c0.7,0.2,1.3,0,2.3,0.2c0.4-0.4,0.8-0.6,0.7-1.5c-0.7,0-1-0.5-1.1-1.2
		c0.9-0.7,2.1,0.4,2.4,1c0.3,0.8,0,1.9-0.6,2.4c-0.2,0.2-0.6,0.2-0.9,0.3c-0.4,0.2-0.6,0.5-0.9,0.5c-0.8,0.1-1.5-0.2-2.3,0
		c-0.4-0.2-0.6-0.7-1.3-0.6c-0.3-0.4-0.7-0.6-1.3-0.7c-0.5-0.6-0.7-1.3-1.3-1.7c-0.2,0.6,0.1,1.7,0,2.5c-0.4,0.6-0.1,1.2-0.3,1.7
		c-0.1,0.3-0.5,0.6-0.6,0.9c-0.1,0.2,0,0.5-0.1,0.7c-0.1,0.2-0.4,0.4-0.6,0.7c-0.6,0.8-1.1,1.5-1.9,2c-0.4,0.3-1,0.4-1.4,0.7
		c-0.2,0.1-0.4,0.4-0.6,0.6c-1.6,1.2-3.2,2.6-3.5,4.9c0,1.2,0.3,2.1,1.4,2.4c0.8-0.1,1.9-0.3,2-1.1c0-0.3-0.1-1-0.5-1.2
		c-0.5,0-0.6,0.4-1.1,0.4c-0.2-0.2-0.4-0.4-0.3-0.9c0.4-0.7,1.3-0.5,2.1-0.3c1.4,0.8,1.3,2.9,0.3,3.8c-0.8,0.3-1.1,0.6-1.9,0.8
		c0,0.4,0.4,0.4,0.4,0.7c-0.3,0.4-0.3,0.9-0.8,0.9c-0.5,0.1-0.8-0.3-0.8-0.7c0-0.4,0.5-0.6,0.5-1c-1.1-0.3-2-0.7-2.6-1.7
		c-0.7-1.7-0.1-3.7,0.5-5.2c0.4-0.4,1.1-0.9,1.1-1.5c-1.9,1-4.9,1.1-6.6-0.1c-0.1-0.4-0.5-0.6-0.5-1.2c0.8,0,1.3-1,2.1-1.2
		c0.7-0.2,1.7-0.1,2.4-0.1c1.2,0.1,2.4,0.6,3.1,1.1c0.1,0.4-0.2,0.6,0.1,0.7c0.6-0.4,1.2-0.8,1.5-1.4c-0.7-0.6-1.7-0.9-2.1-1.9
		c-0.1-0.2,0-0.5-0.1-0.7c-0.1-0.2-0.2-0.3-0.3-0.5c-0.2-1,0.2-1.8,0.3-2.6c0.6-0.5,1.1-0.9,2-1.1c0.8,0.3,2.1,0.8,2.1,1.7
		c0,0.4-0.4,0.6-0.5,1.1c-0.7,0.2-1.5,0.1-1.7-0.4c-0.5,0.2-0.6,0.8-0.5,1.5c0.3,0.7,0.4,1.5,1.1,1.9c0.8,0.4,1.9,0,2.4-0.7
		c0.3-0.4,0.3-0.8,0.9-1c0-0.6,0.3-0.9,0.5-1.3c0-0.8,0.5-1.5,0.7-2.3c0.2-1.4-0.2-2.8-0.1-4.4c-0.1-0.3-0.3-0.6-0.1-0.9
		c-0.1-0.1-0.3-0.1-0.3-0.3c0.2-0.8-0.4-1.4-0.5-2.2c0-0.3,0.2-0.6,0.2-0.9c0.2-1.4,0.1-2.8,0.7-3.6c-1.3-1.2-3.9-1.1-5.8-1.7
		c-1.1-0.3-1.7-0.9-2.6-1.3c-0.7-1-1.4-1.4-1.5-2.6c-0.2-1.8,1.6-3.7,3.2-3.6c0.9,0.1,1.8,0.8,1.9,1.8c0.4-0.1,0.5-0.5,1.1-0.4
		c0,0.1,0.1,0.1,0.1,0.1c0.2,0.7,0,1.3-0.6,1.2c-0.4,0-0.2-0.4-0.6-0.5c-0.2,0.2-0.1,0.6-0.3,0.9c-0.6,0.6-2.4,0.8-2.3-0.7
		c0.3-0.2,1-0.1,1.3-0.4c-0.9-2.4-3.5,0.8-2.3,2.4c1.2,1.5,3.8,2.1,6.2,2.3c0.8,0.1,1.4-0.1,1.7-0.2c0.8-0.2,1.5-0.2,2.3-0.4
		c1.5-0.4,2.6-1.2,4-1.9c0.6-0.3,1.3-0.6,1.9-0.7c1-0.2,2.2,0,2.9-0.5c-0.1-0.3-0.4-0.4-0.5-0.8c-0.6-0.3-1-0.8-1.5-1.2
		c-0.6-0.4-1.1-0.7-1.7-1.1c-0.2-0.1-0.3-0.3-0.5-0.5c-0.9-0.5-2.1-1-2.9-1.2c-1.7-0.4-3.3-0.7-4.9-0.5c-0.2-0.3-0.6,0-0.9-0.2
		c-0.3,0-0.2,0.3-0.5,0.3c-1.9,0.1-3.5,1-5.1,1.3c-0.2,0.1-0.5,0-0.7,0.1c-1.2,0.3-2.2,1.4-3.2,1.8c-0.1,0.2-0.1,0.3-0.1,0.5
		c-0.6,0.3-0.8,0.8-1.1,1.5c-0.2,0.3-0.5,0.6-0.6,0.9c-0.3,0.6-0.2,1.2-0.4,1.9c-0.1,0.3-0.3,0.6-0.3,0.9c-0.1,1.7,0.6,3.4,1.3,4.2
		c0.5,0.5,1,0.7,1.9,0.7c0.6-0.3,1-0.8,1.1-1.5c-0.3-0.4-0.8-0.7-1-1.3c0.9-0.4,1.9,0,2.4,0.7c0.6,0.8,0.1,2-0.5,2.6
		c-1.3,0.7-3,0.5-4.3,0.1c-0.3,0.7-0.2,1.4-0.4,2.1c-0.1,0.5-0.5,0.8-0.6,1.3c-0.1,0.2,0,0.4-0.1,0.6c-0.5,1-1.8,2-3.4,1.6
		c-0.4-0.1-1.2-0.6-1.4-1.1c-0.5-1.2,0.1-2.9,1.5-2.8c0.3,0.3,0.5,0.6,0.5,0.9c-0.1,0.6-0.9,0.5-0.9,0.9c-0.1,0.7,0.7,0.8,1.2,0.6
		c0.3-0.1,1.2-1,1.6-1.7c0.4-0.8,0.4-1.7,0.6-2.6c-0.3-1.3-1.2-2.3-1.2-3.6c-0.7-1.1,0.2-2.2,0.2-3.4c0.6-0.8,1-1.8,1.5-2.8
		c1.1-1.7,2.7-3.2,4.5-4c-0.8-0.1-1.7,0-2.5,0.1c-0.8,0.1-1.5,0.3-2.1,0.4c-1.4,0.3-3.4,0.1-4.5,0.5c-1.2-0.3-2.6-0.4-3.1-1.4
		c-0.8,0-0.9-0.9-1.2-1.4c-0.4-0.6-0.6-1.5-0.7-2.3c0-0.2,0.1-0.4,0.2-0.5c-0.3-1.6,0.8-2.3,1.3-3.4c1.1-1.2,3.1-1.8,5.4-1.3
		c0.3,0.3,0.7,0.4,1,0.6c0.2,0.5,0.6,0.7,0.8,1.2c0.6,1.7-0.7,3.4-2.8,3c-0.8-0.3-0.9-2,0.3-1.9c-0.1,0.6,0.1,1,0.7,0.9
		c0.2-0.4,0.2-0.9,0.3-1.3c-0.2-0.2-0.4-0.4-0.5-0.8c-0.6-0.1-1-0.3-1.5-0.5c-0.8,0.3-1.8,0-2.4,0.5c-0.6,0.4-1.3,1.9-1.4,2.6
		c-0.1,1,0.4,1.9,0.6,2.7c0.9,0.6,2.3,1.1,3.6,1c0.1-0.1-0.2-0.6,0.3-0.5c0.4-0.1,0,0.6,0.4,0.5c1,0,2.1-0.4,3.2-0.7
		c0.6-0.2,1.3-0.2,1.9-0.4c0.3-0.1,0.5-0.3,0.7-0.3c1.7-0.3,3.3-0.5,4.8-0.5c0.4-0.4,1.3-0.4,2.2-0.4c0.7,0,1.4-0.1,1.9-0.1
		c0.5,0,1.1,0.4,1.4-0.1c-0.3-1.2-0.9-2.4-0.9-3.7c0-1.5,0.2-2.9,0.7-3.9c0.5-1.3,1.2-1.8,2.1-2.8c0.6-0.6,1.3-1.1,1.9-1.5
		c0.6-0.3,1.6-0.6,2-0.7c1.4-0.3,3.3,0.2,3.9-0.9C-132.6,33.2-132.9,33.2-133.5,32.9z M-110.7,32.7c-1.3,0.3-1.9,1.5-3.3,1.6
		c-0.9,0.8-1.6,1.7-2.6,2.4c-0.2,1.4-1.4,1.7-1.4,3.2c-0.1,0.1-0.4,0.2-0.4,0.4c0.4,0.3,0.2,1.3,0.1,1.8c0,0.3,0.3,0.2,0.3,0.5
		c-0.2,0.7,0,1.3-0.2,1.9c0.1,0.2,0.4,0.2,0.3,0.5c0,0.8,0.3,1.2,0.3,1.9c0,0.9,0,1.4,0.3,2.2c0.3,1.2,0.6,2.3,1.2,3
		c0,0.2-0.1,0.6,0.2,0.5c0.5-1.1,0.8-2.6,1-3.8c0.1-0.6,0.5-1.3,0.6-1.7c0.2-0.5,0.1-1.1,0.3-1.6c0.1-0.3,0.4-0.5,0.5-0.8
		c0.1-0.5,0.1-1,0.3-1.4c0.1-0.3,0.4-0.5,0.5-0.8c0.2-0.6,0.4-1.1,0.6-1.5c0.1-0.3,0.1-0.6,0.2-0.9c0.2-0.4,0.5-0.7,0.7-1.1
		c0.2-0.4,0.3-1,0.5-1.4c0.3-0.5,0.9-0.9,0.9-1.6c0.9-1,1.3-2.4,2.3-3.3C-108.7,32.3-109.7,32.5-110.7,32.7z M-106.6,34.2
		c-0.6,0.9-1,2-1.5,3c0.1,0.6-0.1,1.2-0.5,1.5c0.1,0.8-0.2,1.2-0.2,2c0.6-0.4,1.3-1,1.8-1.6c0.3-0.3,0.4-0.8,0.8-1.1
		c0.7-0.6,1.6-1,2-1.9C-104.9,35.3-105.2,33.7-106.6,34.2z M-138.1,37.1c-1.7,0.6-2.6,2.6-2.7,4.8c-0.2,2.8,1.5,4.7,3,5.7
		c2,0.3,3.6,0.6,5,1.5c2.3,0.7,4.1,1.7,5.8,3.2c0.7,0.2,1.1,0.6,1.6,1.1c1,1,2,2.2,2.8,3.3c0.7,0.4,1,1.1,1.6,1.6
		c0.5,0.8,1,1.5,1.5,2.1c0-0.9,0.1-1.8,0-2.7c-0.1-1-0.6-1.9-0.7-2.8c0-0.3,0.1-0.5,0.1-0.8c0-0.3-0.2-0.6-0.3-0.9
		c-0.2-1.3-0.5-2.5-0.7-3.8c-0.4-0.4-0.6-1.2-0.6-2c-0.1-0.2-0.3-0.3-0.3-0.5c-1.1-3.8-2.9-6.9-5.4-9.3c0-0.2,0-0.4-0.1-0.5
		c-0.4-0.2-0.7-0.3-1.2-0.4c-0.1,0.5,0.4,1,0.5,1.5c0,0.3,0.1,1,0.1,1.1c-0.1,0.5-0.6,0.6-0.6,1.1c-0.4,0-0.5,0.2-0.7,0.5
		c0.3,0.2,0.4,0.8,0.3,1.3c-0.9,0.1-1.4-0.3-1.8-0.7c-2.3,0.5-3.7-0.8-3.2-3.2c0.3-0.4,1.5-0.7,1.9-0.1c-0.1,0.4-0.6,0.3-0.7,0.7
		c0.1,0.9,0.5,1.6,1.3,1.7c0.6-0.4,1.3-1,1.5-1.9c0.2-1.1-0.4-2-0.9-2.6c-2.9-0.1-5.7,1.8-5.4,4.8c0,0.2-0.2,0.3-0.1,0.5
		c0.7,1.4,1.4,2.7,3.6,2.6c0.2-0.2,0.6-0.3,0.7-0.6c-0.1-0.7-0.8-0.7-0.9-1.5c0.7-0.6,1.6,0.1,2.1,0.4c0.6,1.8-0.4,3.2-1.7,3.4
		c-1.5,0.3-4-0.5-4.7-2.1c-0.1-0.2,0-0.5-0.1-0.7c-0.1-0.3-0.3-0.4-0.4-0.6c-0.2-0.7,0.1-1.2-0.1-1.8c0.2-0.4,0.4-0.8,0.3-1.5
		c0.3-0.5,0.6-1,0.8-1.7c0.4-0.4,1-0.6,1.1-1.3c0.4-0.1,0.7-0.4,0.8-0.8C-136.5,35.4-137.7,36.1-138.1,37.1z M-75.2,50.9
		c0.9-0.6,1.5-2.3,1.3-3.6c-0.4-0.7-0.4-1.6-0.8-2.3c-0.7-0.3-1.1-1-1.8-1.4c-0.3-0.2-0.7-0.2-1.1-0.3c-0.2-0.1-0.3-0.3-0.5-0.3
		c-0.5-0.2-0.9-0.1-1.4-0.1c-0.9-0.1-1.7-0.4-2.6-0.5c-0.6,0.3-1.3,0.3-1.8,0.5c-0.2,0-0.2-0.2-0.4-0.2c-0.3,0.4-1.4,0.2-1.9,0.3
		c-0.4,0.1-1.1,0.3-1.5,0.4c-1.6,0.5-2.8,1.4-4,1.9c-0.2,0.1-0.2,0.4-0.5,0.5c-1.2,0.5-2.2,1.3-3.1,1.9c-0.7,0.5-1.3,1-1.9,1.5
		c-1.2,1.2-2.4,2.6-3.2,4.2c-0.4,0.1-0.7,0.4-0.8,0.7c0.7,0.1,1.4-0.5,1.9-0.5c0.1,0,0.3,0.1,0.5,0.1c0.2,0,0.4-0.2,0.5-0.3
		c0.8-0.2,1.5-0.1,2.1-0.1c0.3,0,0.6-0.2,0.9-0.2c0.6,0,1.4,0.3,2-0.1c1.1,0.5,2.9,0.4,3.6,1.1c1,0.1,1.7,0.9,2.8,0.9
		c1.6,0,3.8-0.7,4.6-1.7c0.4-0.5,0.5-1.3,0.5-2.1c-0.4-1.1-2.5-3.2-3.4-1.4c0.2,0.5,1,0.2,0.9,1c-1.6,0.4-2.3-1-1.9-2.4
		c0.5-0.7,1.1-1.3,2.5-1.1c0.4,0.4,1.1,0.6,1.7,0.7c0.2,0.5,0.7,0.7,1.1,0.9c0,0.6,0.5,0.9,0.6,1.4c0.4,1.4-0.5,2.5-0.7,3.7
		c-1.4,1.2-2.8,2.6-5,2.6c0.1,0.9,0.6,1.7,0.6,2.8c0,1.4-0.4,2.8-0.8,4c-0.5,0.4-0.9,1-1.4,1.4c-1,0.8-2.4,1-3.9,0.6
		c-0.6-0.2-1.7-0.7-2.1-1c-0.8-0.7-1.3-2.7-0.1-3.6c0-0.2,0-0.3,0-0.5c0.7-0.5,1.5-0.8,2.8-0.7c0.4,0.3,0.7,0.6,1.1,0.9
		c0.1,0.7-0.2,1.3-0.9,1.3c-0.4-0.3-0.1-0.9-0.6-1c-0.4-0.1-1.1,0.6-1.2,1.2c-0.1,0.7,0.8,2,1.1,2.3c0.8,0.6,1.8-0.1,2.3-0.5
		c1.4-1,2.7-2.4,2.1-4.9c-0.2-0.7-0.6-1.2-0.9-1.8c-0.6-1-1.1-1.4-2.2-1.8c-0.4,0.1-0.7,0.1-0.9-0.2c-0.5,0.5-1.4,0.1-2.1,0.1
		c-2.3,0-4.6,0.5-5.7,1.5c-2.1,1-4,2.5-5,4.4c1-0.1,2.1-0.1,3,0.3c0.7,0.4,1.7,1,1.7,2c1.1,1.1,0.3,3.4,0.2,5
		c-0.2,0.3-0.5,0.6-0.3,0.9c1.7-0.2,3.8-0.8,5.9-0.7c2.7,0.2,4.9,1.3,7,1.9c1.8,1.1,3.7,2.4,5.8,3.1c0.2,0.1,0.4,0.4,0.6,0.5
		c0.5,0.2,1.3,0.5,1.8,0.6c1,0.3,2.9,0.3,3.8,0.1c0.4-0.1,0.6-0.2,1-0.3c0.8-0.3,1.6-1.1,1.7-2.1c0-0.2-0.2-0.4-0.2-0.8
		c0,0,0.1-0.2,0.1-0.3c0-0.1-0.5-0.9-0.5-1c-0.2-0.3-0.9-0.6-1.2-0.7c-1.2-0.2-2.1,0.8-2.3,2.1c0.6,0.6,0.9-0.3,1.6-0.3
		c0,0.1,0.1,0.1,0.2,0.1c0.1,2.2-2.3,2-3.1,1.1c-1-1.1-1-3.5,0.5-4.4c0.4-0.2,0.8-0.1,1.1-0.6c-0.2-0.3-0.6-0.2-0.9-0.3
		c-0.7-0.2-1.2-0.9-1.8-1.3c-0.4-0.9-1.3-1.7-1.5-2.9c-0.1-0.5,0-1.2,0-1.8c0-0.2-0.1-0.4-0.1-0.5c0.1-1.1,1-1.6,1.2-2.5
		c1-0.9,2.5-2.2,4.6-1.9c0.4,0.1,0.6,0.4,1.1,0.3c0,0.5,0.3,0.6,0.6,0.7c0.1,0.4,0.5,0.6,0.6,1.1c0.3,1.1-0.7,3.4-2.2,2.8
		c-0.1-0.2-0.3-0.4-0.3-0.8c0.5-0.4,1.3-0.8,1.3-1.5c0-0.6-0.9-1-1.3-1.5c-0.9,0-1.7,0.6-2.5,0.8c-0.5,0.5-0.8,1.2-1.3,1.7
		c-0.6,2.7,1.1,4.2,2.6,5.4c1.1,0.2,2.2,0.7,3.4,0.3c1.1-0.3,2.1-0.8,2.9-1.5c0.9-0.8,1.9-1.6,1.9-3c0.2-0.2,0.5-0.1,0.7-0.3
		c-0.1-0.7,0.5-0.9,0.3-1.7c0.9-0.9,0.3-2.3,0.3-3.7c-0.3-0.4-0.3-1-0.3-1.7c-0.5-1.1-0.9-2.2-1.4-3.4c-0.4-0.2-0.6-0.7-0.7-1.2
		c-1-0.6-1.6-1.6-2.6-2.3c-0.6,0.5-0.7,1.6-0.7,2.4c-0.3,0.9-1.2,1.4-1.5,2.3c-0.7,0.2-1,0.7-1.7,0.9c-1.6,0.3-3.5-0.9-3.4-2.3
		c0-0.4,0.8-1.4,1.1-1.5c0.9-0.2,2,0.5,1.5,1.4c-0.5,0-0.9,0.2-1,0.6C-76.3,51.4-75.6,51.2-75.2,50.9z M-107.6,74.5
		c0.3,0,0.4-0.3,0.7-0.3c0.9-1,2-1.9,3.3-2.5c1.4-1.3,2.8-2.7,3.2-4.9c0.8-1.2,0.6-3.3-0.4-4c-1.2-0.8-3.1,0.4-2.3,1.8
		c0.1,0.1,0.4,0,0.5,0.2c0,0.2,0,0.4,0,0.5c-0.4,0.3-0.9,0.5-1.6,0.4c-0.7-0.4-0.8-1.4-1.4-1.9c-0.8,1.2-0.9,3.1-1.7,4.3
		c-0.6,2.4-1.4,4.6-1.5,7.5C-108.4,75.6-107.9,75-107.6,74.5z M-145,75.2c0.3,0.4,0.8,0.1,0.9-0.3C-144.4,74.7-144.8,75-145,75.2z"
		/>
	<path class="st3" d="M-109,9.4c0.3,0.2,0.4,0.9,0.1,1.2c-0.4,0-0.8,0-1-0.2c0-0.2,0-0.4,0-0.7C-109.7,9.5-109.4,9.4-109,9.4z"/>
	<path class="st3" d="M-98.8,11.4c0.6,0.6,0.1,1.9-0.5,2.1c-0.2,0.9-0.8,1.4-1.2,2.1c-0.5,0.1-0.7,0.4-0.9,0.7
		c-0.7,0.1-1.7,0.7-2.4,0.2c-0.2-1.3,0.5-2.2,0.9-3.1c0.8-0.3,1-1.3,1.9-1.6C-100.4,11.6-99.6,11.6-98.8,11.4z"/>
	<path class="st3" d="M-108.5,11.9c0.2,0.4,0,0.9-0.1,1.2c-0.2,0.1-0.7,0.1-0.9,0C-109.8,12.4-109.4,11.5-108.5,11.9z"/>
	<path class="st3" d="M-110.2,14c0,0.5-0.1,0.9-0.4,1.2c-0.3,0.1-0.4-0.1-0.7-0.1c-0.1-0.3-0.3-0.6-0.1-1
		C-111.2,14-110.6,13.8-110.2,14z"/>
	<path class="st3" d="M-143.2,15.1c0.2,0.5,0,1.2-0.6,1.1C-144.4,15.8-144.1,14.6-143.2,15.1z"/>
	<path class="st3" d="M-93.2,15.3c0.1,0.3,0.1,0.7,0.1,1.2C-94,17.4-94.7,14.9-93.2,15.3z"/>
	<path class="st3" d="M-141.6,16.4c0,0.7-0.2,1-0.9,1c-0.2-0.2-0.2-0.5-0.2-0.9C-142.4,16.1-141.9,16.1-141.6,16.4z"/>
	<path class="st3" d="M-92.6,17.2c0.3,0.3,0.3,1.5-0.5,1.3C-93.5,18.3-93.5,17-92.6,17.2z"/>
	<path class="st3" d="M-78.6,24.9c-1-0.3-1.4-1.1-2.2-1.6c0-0.8-0.4-1.1-0.4-1.7c0-0.2,0.2-0.5,0.3-1c0.2-0.9-0.1-2.4,0.7-2.4
		c0.5,0,0.7,0.6,0.9,1.1c0.3,0.6,1,1.5,1.1,2.3c0,0.1-0.1,0.3-0.1,0.5c0,0.2,0.2,0.3,0.2,0.5C-78,23.3-78.3,24.2-78.6,24.9z"/>
	<path class="st3" d="M-90.5,18.5c0.1,0.6,0,1.3-0.7,1.3c-0.1-0.4-0.4-0.6-0.3-1.1C-91.3,18.4-90.8,18.2-90.5,18.5z"/>
	<path class="st3" d="M-141.3,18.6c0.1,0.2,0.1,0.7,0,0.9C-142.4,20.4-142.7,17.8-141.3,18.6z"/>
	<path class="st3" d="M-153.6,25.1c0.1,0.5-0.1,0.7-0.3,0.9c-0.2,0-0.4,0-0.7,0C-155.2,25.4-154.1,24.3-153.6,25.1z"/>
	<path class="st3" d="M-127,26.7c0.2,0.4,0.1,0.9-0.1,1.2c-0.3,0.1-0.6,0.2-0.9,0.1c-0.3-0.2-0.3-0.8-0.2-1.2
		C-127.9,26.5-127.3,26.4-127,26.7z"/>
	<path class="st3" d="M-73.4,26.6c0.2,0.5-0.1,1.3-0.5,1.2C-74.5,27.7-74.4,26.1-73.4,26.6z"/>
	<path class="st3" d="M-152.5,26.7c0.3,0.3,0.5,0.9,0.3,1.5c-0.4,0-0.6,0.1-0.9,0c-0.2-0.3-0.3-0.7-0.3-1.2
		C-153.2,26.8-152.9,26.7-152.5,26.7z"/>
	<path class="st3" d="M-69.4,27.9c0.2,0.9-0.7,1.1-1.3,0.8C-70.9,27.6-70,27.4-69.4,27.9z"/>
	<path class="st3" d="M-130.1,29c-0.3-1.5,1.6-1.2,1.3-0.1C-129.1,29.4-129.6,29.1-130.1,29z"/>
	<path class="st3" d="M-71.9,28c0.7,0.8-0.7,1.5-1.1,0.7c0-0.2,0-0.4,0.1-0.5C-72.7,28-72.3,28-71.9,28z"/>
	<path class="st3" d="M-130.9,29.4c-0.5,0.2-1,0-1.3-0.3c-0.1-0.3-0.1-0.8,0.1-1C-131.4,27.9-130.6,28.5-130.9,29.4z"/>
	<path class="st3" d="M-152.3,30c0.1,0.2,0.1,0.7,0,0.9c-0.2,0.1-0.6,0.1-0.9,0.1c-0.1-0.3-0.2-0.5-0.2-0.9
		C-153.1,29.8-152.7,29.9-152.3,30z"/>
	<path class="st3" d="M-91.3,34.5c0.3,0.7,0,1.9-0.9,1.9C-92.5,35.7-92.3,34.1-91.3,34.5z"/>
	<path class="st3" d="M-95.8,35.2c0.1,0.9-0.4,1.3-0.7,1.7c-0.2,0-0.4,0-0.6,0C-98,36-97.1,34.8-95.8,35.2z"/>
	<path class="st3" d="M-94.3,36.8c-0.3-0.2-0.6-0.4-0.7-0.7c-0.1-1.3,1.6-1.2,1.3,0.1C-93.7,36.5-93.9,36.6-94.3,36.8z"/>
	<path class="st3" d="M-151.6,37.5c-0.2,0.6,0,0.8,0,1.5c-0.1,2-1.1,3.7-2.6,4.6c-0.3,0-0.6,0-0.8-0.1c-0.6-1.4-0.5-3.8,0.4-4.8
		C-153.7,38.2-153,37-151.6,37.5z"/>
	<path class="st3" d="M-72.9,38.5c0.1,0.8-0.3,1.4-1.1,1.1c-0.1-0.4-0.3-0.7-0.1-1.1C-73.7,38.2-73.3,38.2-72.9,38.5z"/>
	<path class="st3" d="M-71.2,40.9c-0.3,0.1-0.5,0.1-0.9,0.1c-0.3-0.6-0.2-1.4,0.3-1.5C-71.3,39.4-70.7,40.3-71.2,40.9z"/>
	<path class="st3" d="M-69.4,39.7c0.4,0.7-0.1,1.7-0.8,1.5C-70.9,41-70.7,39.3-69.4,39.7z"/>
	<path class="st3" d="M-148.9,43.2c0.5,0.5,0.2,1.6-0.5,1.7C-150.5,44.9-150.4,42.6-148.9,43.2z"/>
	<path class="st3" d="M-129.3,43.5c0.3,0.2,0.4,0.9,0.3,1.4c-0.2,0.1-0.5,0.1-0.7,0.1C-130.2,44.7-130.5,43.1-129.3,43.5z"/>
	<path class="st3" d="M-146.6,43.9c0.2,0.2,0.2,0.6,0.1,1c-0.3,0.2-0.9,0.2-1.1-0.1C-147.5,44.2-147.2,43.9-146.6,43.9z"/>
	<path class="st3" d="M-67.2,45.1c1.3-1,4.1-1.1,5.6-0.1c0.5,0.3,1.4,1.2,1.4,1.7c0,1.1-1.8,1-2.6,1.5c-1.9,0.2-3.7-0.7-4.4-2.1
		C-67.2,45.7-67.2,45.4-67.2,45.1z"/>
	<path class="st3" d="M-82.8,45.4c0.1,0.3,0.3,0.6,0.3,1.1c-0.4,0.1-0.8,0.2-1.1,0.4C-84.8,46.5-84,44.6-82.8,45.4z"/>
	<path class="st3" d="M-85.6,46c0,0.4,0,0.7,0,1.1c-0.2,0.3-0.6,0.3-1.1,0.3C-87.5,46.6-86.8,45.1-85.6,46z"/>
	<path class="st3" d="M-130.8,47.2c-0.4,0-0.5-0.1-0.8-0.2c0-0.3-0.1-0.4-0.1-0.7C-131.2,45.3-130,46.5-130.8,47.2z"/>
	<path class="st3" d="M-87,49.3c-0.3,0.5-1.1,0.6-1.6,0.2c-0.1-0.8,0.2-1.3,0.6-1.6C-87.5,48.1-86.9,48.4-87,49.3z"/>
	<path class="st3" d="M-162.6,51.2c0.4,1.4-1.4,1.7-1.4,0.5C-164,51-163,50.8-162.6,51.2z"/>
	<path class="st3" d="M-144.5,51.9c0.1,0.3,0.1,0.9-0.1,1.1c-0.1,0-0.1,0-0.1,0.1C-145.9,53.3-145.6,51.2-144.5,51.9z"/>
	<path class="st3" d="M-156.8,55.4c-0.4,0.1-0.7,0.2-0.9,0.5c-0.8,0.1-3.9,0.6-3.9-0.5c0-0.6,0.9-0.7,0.9-1.5
		c0.3-0.2,0.6-0.5,0.8-0.8c0.8,0,1.1-0.9,1.9-1.1c0.9-0.2,2.9-0.2,3,0.4c0.2,0.6-0.6,1.4-0.9,1.8C-156.2,54.7-156.3,55-156.8,55.4z"
		/>
	<path class="st3" d="M-71.1,55.9c0.2,0.5-0.1,1.2-1,0.9C-72.5,56.1-71.8,55.5-71.1,55.9z"/>
	<path class="st3" d="M-144.8,55.8c0.3,0.3,0.2,1.1,0,1.4c-0.4,0.1-0.7,0-0.9-0.2C-145.7,56.4-145.6,55.7-144.8,55.8z"/>
	<path class="st3" d="M-80.3,61.2c-2.5,1.1-4.9-0.7-4.8-3.6c1.3-0.8,3,0.3,3.6,1.1C-80.8,59.4-80.5,60.4-80.3,61.2z"/>
	<path class="st3" d="M-91.1,57.8c0,0.2,0,0.4,0,0.6c-0.2,0.3-0.8,0.4-1.1,0.1C-92.7,57.6-91.6,57-91.1,57.8z"/>
	<path class="st3" d="M-70.1,58c0.2,0.8-0.8,1-1.1,0.5C-71.4,57.9-70.5,57.7-70.1,58z"/>
	<path class="st3" d="M-93.9,58.8c0.1,0.7-0.3,1-0.9,1c-0.3-0.2-0.4-0.6-0.3-1.1C-94.8,58.3-94.3,58.7-93.9,58.8z"/>
	<path class="st3" d="M-148.1,59.7c0.2,0.3,0.1,0.7,0,1C-149.5,61-149.3,59-148.1,59.7z"/>
	<path class="st3" d="M-70.6,60.5c0.1,0.8-0.2,1.1-1,1.1c-0.1-0.3-0.2-0.6-0.1-0.9C-71.4,60.5-70.9,60.4-70.6,60.5z"/>
	<path class="st3" d="M-95.8,62.5c-0.6,0-1.1-0.2-1.2-0.7c-0.2-0.7,0.3-1.5,1-1C-95.4,61.1-95.8,61.6-95.8,62.5z"/>
	<path class="st3" d="M-147,61.5c0,0.3,0,0.6-0.1,0.9c-0.2-0.1-0.2,0.1-0.3,0.1c-0.4-0.1-0.6-0.4-0.5-0.9
		C-147.7,61.4-147.2,61.2-147,61.5z"/>
	<path class="st3" d="M-147.1,63.7c0.1,0.3,0.1,0.7,0.1,1.1c-0.3,0.2-0.9,0.1-1.1-0.1C-148.3,63.9-147.8,63.3-147.1,63.7z"/>
	<path class="st3" d="M-159.7,65.1c0.2,0.5,0,1.5-0.5,1.6c-0.5,0.1-0.9-0.6-0.7-1.3C-160.6,65.2-160.2,64.9-159.7,65.1z"/>
	<path class="st3" d="M-150.7,71.4c-1.6,0.3-2.7-0.7-2.8-2.3c-0.1-0.5,0.2-1.2,0.2-1.8c0-0.5-0.1-1.3,0.7-1.3c0.6,0,0.9,0.8,1.2,1.2
		c0.2,0.3,0.6,0.5,0.7,0.8C-150.3,69-150.4,70.5-150.7,71.4z"/>
	<path class="st3" d="M-160.3,69.1c-0.2,0.2-0.6,0.4-1.1,0.3c-0.2-0.3-0.2-0.8-0.2-1.3C-160.9,67.3-160,68-160.3,69.1z"/>
	<path class="st3" d="M-129.7,68.7c0.2,0.4,0.2,0.8,0,1.2c-0.2,0.1-0.4,0.1-0.7,0.1C-130.9,69.5-130.8,68.3-129.7,68.7z"/>
	<path class="st3" d="M-159.3,70.7c0,0.5,0,1-0.1,1.3c-1,0.3-1.3-0.5-1.3-1.5C-160.4,70-159.6,70.4-159.3,70.7z"/>
	<path class="st3" d="M-127.6,71c0.1,0.5,0,0.8-0.3,1.1c-0.4,0.2-0.8-0.1-1.1-0.3c-0.1-0.3-0.1-0.7,0.1-0.9
		C-128.5,70.8-128.1,71-127.6,71z"/>
	<path class="st3" d="M-128.4,73.3c0.4,0.3,0.4,1-0.1,1.1C-129.1,74.6-129.5,73.1-128.4,73.3z"/>
	<path class="st3" d="M-91.7,73.6c0.2,0.2,0.2,0.7,0.1,1c-0.2,0.1-0.4,0.3-0.8,0.3C-93.1,74.4-92.6,72.9-91.7,73.6z"/>
	<path class="st3" d="M-147.4,73.6c0.2,0.3,0,0.7-0.2,0.9c-0.4,0-0.7-0.1-0.9-0.2C-149,73.4-148,73.4-147.4,73.6z"/>
	<path class="st3" d="M-69.7,73.9c0.8-0.3,1,1.4,0.3,1.5C-70.1,75.5-70.5,74.2-69.7,73.9z"/>
	<path class="st3" d="M-134.9,79.8c-1.8,0.1-2.3-1.3-3.2-2.2c-0.1-1.4,0.1-2.6,0.4-3.6c0.1,0,0.2,0,0.4,0c0.5,0.1,2.3,2.1,2.6,2.9
		C-134.4,78-134.7,78.9-134.9,79.8z"/>
	<path class="st3" d="M-67.2,75c0.1,0.3,0.2,1.1,0,1.4c-0.5,0-0.8-0.1-1.1-0.3c-0.1-0.3-0.1-0.8,0.1-1C-68,74.9-67.6,75-67.2,75z"/>
	<path class="st3" d="M-64.3,75.4c0.2,0.9-1.2,1-1.6,0.5C-66.1,74.7-64.7,74.9-64.3,75.4z"/>
	<path class="st3" d="M-80.3,81.6c-0.5,0-0.8-0.1-1.1-0.4c-2.7-0.1-2.9-3.4-2.2-5.8C-81.1,76-79.3,78.6-80.3,81.6z"/>
	<path class="st3" d="M-149.4,75.9c0.3,0,0.6,0,0.9,0C-147.7,77-150.2,77.4-149.4,75.9z"/>
	<path class="st3" d="M-92.8,77.9c-0.2,0-0.5,0-0.7,0c-0.3-0.2-0.4-0.9-0.2-1.4C-92.8,76.3-92.5,77.2-92.8,77.9z"/>
	<path class="st3" d="M-148.4,78c0.3-0.2,1.1,0.1,1.1,0.7C-147.5,80.1-149.6,78.7-148.4,78z"/>
	<path class="st3" d="M-90.7,78.8c0.1,0.5-0.1,0.8-0.2,1.1c-0.4,0-0.5-0.2-0.9-0.2C-92.2,78.8-91.3,78.2-90.7,78.8z"/>
	<path class="st3" d="M-141.1,86.7c0.1,0.4,0.3,1,0,1.3C-142.4,88.3-142.3,85.9-141.1,86.7z"/>
	<path class="st3" d="M-142.3,89.9c0,0.6-0.1,1-0.4,1.3c-0.6,0.1-0.9-0.1-1.1-0.5C-143.6,90.1-143.1,89.5-142.3,89.9z"/>
</g>
</svg>
