<?xml version="1.0" encoding="utf-8"?>
<!-- Generator: Adobe Illustrator 16.0.0, SVG Export Plug-In . SVG Version: 6.00 Build 0)  -->
<!DOCTYPE svg PUBLIC "-//W3C//DTD SVG 1.1//EN" "http://www.w3.org/Graphics/SVG/1.1/DTD/svg11.dtd">
<svg version="1.1"
	 id="svg2989" xmlns:dc="http://purl.org/dc/elements/1.1/" xmlns:cc="http://creativecommons.org/ns#" xmlns:rdf="http://www.w3.org/1999/02/22-rdf-syntax-ns#" xmlns:svg="http://www.w3.org/2000/svg" xmlns:sodipodi="http://sodipodi.sourceforge.net/DTD/sodipodi-0.dtd" xmlns:inkscape="http://www.inkscape.org/namespaces/inkscape" sodipodi:docname="shopping_cart_font_awesome.svg" inkscape:version="0.48.3.1 r9886"
	 xmlns="http://www.w3.org/2000/svg" xmlns:xlink="http://www.w3.org/1999/xlink" x="0px" y="0px" width="612px" height="792px"
	 viewBox="0 0 612 792" enable-background="new 0 0 612 792" xml:space="preserve">
<sodipodi:namedview  inkscape:cy="896" inkscape:cx="896" inkscape:zoom="0.13169643" showgrid="false" guidetolerance="10" gridtolerance="10" objecttolerance="10" bordercolor="#666666" pagecolor="#ffffff" borderopacity="1" id="namedview2995" inkscape:current-layer="svg2989" inkscape:window-maximized="0" inkscape:window-y="25" inkscape:window-x="0" inkscape:window-height="480" inkscape:pageshadow="2" inkscape:window-width="640" inkscape:pageopacity="0">
	</sodipodi:namedview>
<g id="g2991" transform="matrix(1,0,0,-1,68.338983,1209.4915)">
	<path id="path2993" inkscape:connector-curvature="0" fill="#E86C00" d="M150.233,697.105c0-12.066-4.269-22.369-12.807-30.907
		s-18.84-12.808-30.907-12.808s-22.37,4.27-30.908,12.808c-8.538,8.538-12.807,18.841-12.807,30.907s4.269,22.369,12.807,30.908
		c8.538,8.537,18.841,12.807,30.908,12.807s22.369-4.27,30.907-12.807C145.964,719.474,150.233,709.171,150.233,697.105z
		 M456.232,697.105c0-12.066-4.269-22.369-12.807-30.907s-18.841-12.808-30.907-12.808c-12.067,0-22.369,4.27-30.907,12.808
		s-12.808,18.841-12.808,30.907s4.27,22.369,12.808,30.908c8.538,8.537,18.84,12.807,30.907,12.807
		c12.066,0,22.369-4.27,30.907-12.807C451.964,719.474,456.232,709.171,456.232,697.105z M499.947,1068.677V893.819
		c0-5.464-1.821-10.302-5.465-14.515c-3.643-4.212-8.31-6.659-14.002-7.342l-356.544-41.666c0.228-1.594,0.74-4.041,1.537-7.342
		s1.48-6.318,2.049-9.05c0.569-2.733,0.854-5.237,0.854-7.514c0-3.643-2.732-10.928-8.196-21.856h314.197
		c5.919,0,11.042-2.163,15.368-6.489c4.325-4.326,6.488-9.448,6.488-15.367c0-5.92-2.163-11.043-6.488-15.369
		c-4.326-4.326-9.449-6.488-15.368-6.488H84.661c-5.919,0-11.042,2.162-15.368,6.488s-6.489,9.449-6.489,15.369
		c0,3.188,1.252,7.684,3.757,13.489c2.504,5.806,5.862,12.579,10.075,20.32c4.212,7.741,6.545,12.067,7.001,12.978l-60.449,281.069
		h-69.669c-5.92,0-11.042,2.163-15.369,6.489c-4.326,4.326-6.489,9.449-6.489,15.368c0,5.92,2.163,11.043,6.489,15.369
		c4.326,4.326,9.449,6.489,15.369,6.489h87.428c3.643,0,6.888-0.74,9.733-2.22c2.846-1.48,5.123-3.245,6.831-5.294
		c1.708-2.049,3.188-4.838,4.439-8.367c1.252-3.529,2.106-6.545,2.562-9.05c0.456-2.505,1.082-5.863,1.878-10.075
		c0.797-4.212,1.309-7.115,1.537-8.708H478.09c5.92,0,11.042-2.163,15.368-6.489
		C497.784,1079.719,499.947,1074.596,499.947,1068.677z"/>
</g>
</svg>
