<?xml version="1.0" encoding="utf-8"?>
<!-- Generator: Adobe Illustrator 16.0.0, SVG Export Plug-In . SVG Version: 6.00 Build 0)  -->
<!DOCTYPE svg PUBLIC "-//W3C//DTD SVG 1.1//EN" "http://www.w3.org/Graphics/SVG/1.1/DTD/svg11.dtd">
<svg version="1.1" id="Layer_1" xmlns="http://www.w3.org/2000/svg" xmlns:xlink="http://www.w3.org/1999/xlink" x="0px" y="0px"
	 width="115.7px" height="115.6px" viewBox="0 0 115.7 115.6" style="enable-background:new 0 0 115.7 115.6;" xml:space="preserve"
	>
<style type="text/css">
<![CDATA[
	.st0{fill-rule:evenodd;clip-rule:evenodd;fill:#076233;}
]]>
</style>
<text transform="matrix(1 0 0 1 -614.5728 59.3745)" style="fill:#885E00; font-family:'TrajanPro-Bold'; font-size:43.0351;"> YOGA FONT</text>
<g>
	<path class="st0" d="M57,0c1.9-0.1,4.7,0.1,6.9,0.3c6.5,0.7,12,2.3,17.1,4.5c6.7,2.9,12.5,6.9,17.3,11.7c1.3,1.3,2.4,2.5,3.5,3.8
		c4.5,5,8.1,11.3,10.6,18.5c1.2,3.6,2.1,7.4,2.7,11.8c1.7,11.3-1,23-4.5,30.9c-7.4,16.4-21.1,28.1-39.1,32.6
		c-3.9,1-8.1,1.3-12.8,1.5c-4.7,0.2-9-0.5-13-1.2c-4-0.7-7.6-2-10.9-3.4c-6.8-2.9-12.4-7-17.3-11.6c-5.1-4.8-9.1-10.4-12.1-16.9
		c-2.3-5-4.1-10.4-4.9-16.9c-0.3-2.2-0.4-4.4-0.5-6.8c-0.2-4.7,0.5-9.2,1.3-13.2c0.8-4,2-7.7,3.4-10.9c6.4-14.2,16.9-24.5,31.3-30.5
		c4.2-1.7,8.8-3.1,14-3.7c1.1-0.1,2.2-0.3,3.3-0.3C54.5,0.1,55.9,0.1,57,0z M78.5,18c-0.5-0.1-0.6-0.6-1.2-0.7
		c-0.1-0.5-0.5-0.8-0.5-1.5c-0.1-0.5,0.2-1,0-1.4c0.2,0,0.4,0,0.4-0.3c0-0.3-0.1-0.5-0.1-0.8c0.1-0.7,1.6-1.7,2.3-1.8
		c0.2,0,0.3,0.1,0.5,0.1c0.3,0,0.5-0.1,0.7-0.1c1.1,0,2.1,0.6,2.8,0.9c0.6,0.9,1.7,1.5,2,2.8c0.2,0.9,0,2.1,0.1,3.2
		c-0.5,0.4-0.4,1.5-0.7,2.1c-0.8,0.5-1.1,1.6-1.4,2.7c-0.8,0.3-0.6,1.5-1.7,1.5c-0.1,0.4-0.5,0.6-0.7,1c0.1,0.3,0.4,0.6,0.8,0.6
		c0.3-0.5,0.3-1.3,0.6-1.9c0.6-0.1,0.9-0.8,1.6-1c1-0.3,2.2,0,2.9,0.2c0.6,0.6,1.5,1.2,1.9,2c0.3,0.5,0.2,1.2,0.7,1.7
		c0.5-0.5,0.7-1.2,1-1.9c0.1-0.1,0.2-0.2,0.4-0.3c0.5-1.4,1.5-2.3,2.5-3.3c1.4-0.9,3.2-1.9,5.5-1.2c-0.8-1.4-2.1-2.3-3.1-3.5
		c-4.1-3.6-8.6-6.8-13.7-9.4c-6.7-3.1-14.7-5.7-24.2-5.7c-8.5,0-15.4,2-21.6,4.4c-5,2.4-9.7,4.9-13.6,8.4
		c-4.2,3.2-7.7,7.1-10.6,11.7c0.7-0.1,1.2,0.2,1.8,0c1.2,0.3,1.8,1.4,1.3,2.8c-0.2,0.2-0.4,0.5-0.5,0.7c-0.4,0.2-1.2,0.8-1.5,0.1
		c0.2-0.5,0.6-0.8,0.7-1.4c-0.3-0.4-0.3-1-0.9-1.1c-1-0.2-1.3,0.9-1.7,1.4c-0.2,0.3-0.5,0.5-0.6,0.7c-0.4,1-0.1,2.6,0.6,3.6
		c0.8,1.1,2.2,1.7,4,1.5c1-0.1,1.9-0.6,2.8-0.9c0.1-0.1,0.2-0.4,0.2-0.6c1-0.5,1.5-1.4,2.1-2.3c0.2,0,0.2-0.1,0.4-0.1
		c0.1-0.2,0.2-0.4,0.3-0.6c0.6-0.2,0.9-0.7,1.3-1.1c1.8-0.5,3.4-1.6,5.4-1.1c1-0.6,2.6,0,3.6,0.1c0.7,0.5,1.6,0.4,2.4,0.7
		c0.4,0.1,0.7,0.5,1.1,0.7c0.8,0.5,1.7,0.5,2.1,1.2c2.7,1.4,5.1,3.1,6.8,5.4c0.1,0.1,0.3,0.1,0.5,0.2c0,0.2,0.2,0.3,0.2,0.5
		c0.7,0.1,0.7,0.8,1.4,0.9c0.1-0.3,0.1-0.7,0.1-1.1c0.7-0.8,0.7-2.3,1.3-3.4c0.1-0.2,0.3-0.3,0.4-0.5c0.1-0.4,0.1-1,0.3-1.5
		c0.1-0.3,0.5-0.5,0.7-0.8c0.4-0.7,0.5-1.4,0.9-2c0.1-0.2,0.4-0.4,0.5-0.7c0.1-0.3,0.1-0.8,0.2-1.3c0.1-0.5,0.4-1.1,0.5-1.6
		c0.3-1.9,0-4-0.3-5.2c-0.1-0.5-0.2-1-0.3-1.4c-0.4-1.1-1.2-1.7-1.5-2.9c-0.4-0.3-0.6-0.7-0.8-1.2c-0.7-0.6-1.5-1.1-2.1-1.8
		c-0.9,0-1.4-0.4-1.9-0.8c-1.5,0-2.5-0.8-4.2-0.7c-0.4,0.2-1,0.5-1.5,0.3c-1.3,0.2-1.7,1.3-2.9,1.6c-0.1,0.5-0.6,0.6-1,1
		c-0.8,1-0.8,2.9,0.6,3.2c0.6,0,0.8-1.1,0.5-1.7c-0.5,1.7-1.6-0.7-0.5-1.1c0.6,0,1,0.4,1.7,0.5c0.7,0.5,0.5,1.6,0.7,2.4
		c0.1-0.2,0,0.2,0.2,0.1c0.5-0.3,0.3-1.3,0.5-1.8c0.8-1.2,2.5-2.5,4.6-1.8c0.2,2.6-1.8,3.4-4.1,3.8c0.6,0.6,1.5,0.9,2.1,1.5
		c0.7,0.8,0.9,2.1,1.2,3.3c-0.2,1.3-0.3,2.7-0.9,3.6c-0.8,0.7-2.3,1.5-3.6,1.1c-1-0.3-1.8-2-0.9-2.8c0.3-0.1,1-0.2,1.1,0.1
		c0.2,0.7-0.3,0.7-0.5,1.1c1.2,2.1,3.7,0.1,3.8-1.9c0.1-1.8-0.9-2.6-1.5-3.6c-0.8-0.5-1.5-1.4-2.8-1.5c-0.9-0.1-1.9,0.1-2.9,0.3
		c-0.1,0.1,0.1,0.4,0,0.7c-0.3,0.3-0.2,0.7-0.4,1.1c-0.1,0.2-0.4,0.3-0.5,0.5c-0.3,0.5-0.4,1-0.8,1.4c-0.3,0.2-0.5,0.4-0.7,0.6
		c-0.7,0.7-1.7,0.8-2.6,1.3c-0.3,0-0.7,0.1-0.9-0.1c-1.6,0.7-3.1-0.4-4.2-0.9c-1.2-1-1.9-2.9-1.5-5c0.6-1.3,1.4-2,3.5-1.8
		c0.2,0.5,0.7,0.5,0.9,0.9c0.1,0.2-0.1,0.2-0.1,0.5c0,0.3,0.2,0.7,0.1,0.9c-0.2,1.4-1.8,1.5-2.8,0.7c-0.9,1,0.7,2,1.1,2.8
		c0.8,0.4,1.5,1,2.7,0.8c0.2,0,0.3-0.2,0.5-0.3c0.6-0.2,1.1-0.2,1.5-0.5c0.3-0.2,0.5-0.6,0.9-1c0.7-0.8,1.7-1.7,1.9-2.8
		c0.2-1.4-0.7-2.2-0.6-3.4c0-0.4,0.4-0.7,0.2-1.1c0.1-0.3,0.3-0.5,0.3-0.9c0.6-0.3,0.7-1,1.3-1.4c0.2,0,0.3,0,0.5,0.1
		c0.2-0.1,0.1-0.6,0.3-0.7c0.2,0,0.4,0,0.5,0c0.1-0.1-0.1-0.3,0-0.5c0.9-0.6,2.3-1,3.6-1.3c1.9-0.4,3.8,0.1,5.2,0.5
		c0.1,0.1,0.1,0.4,0.3,0.4c0.5-0.1,0.8,0.3,1.2,0.3c0.9,0.1,0.8,0.1,1.4,0.5c0.5,0.4,1,0.5,1.5,0.9c0.7,0.6,1.6,1.6,1.9,2.4
		c0.3,0.1,0.5,0.2,0.7,0.3c0.3,1.1,1.3,1.5,1.4,2.8c0.1,0.2,0.4,0.3,0.5,0.5c-0.1,0.6,0.3,0.6,0.3,1.1c1.1,0.8,1.3,2.7,1.5,4.1
		c0.9-0.1,1.8-0.9,2.5-1.3c1.1-0.7,2.1-1.4,3-2.2c1.3-1.2,1.8-2.9,2.8-4.6c0.4-1.7,0.5-3.4,0.4-5.3c-0.4-0.5-0.1-1.1-0.3-1.7
		c-0.4-1-1.7-1.6-2.3-2.3c-1.3,0-2.6-0.6-3.7-0.1c-1,0.5-1.9,1.6-2.4,2.5c0,0.7-0.2,1.3-0.4,1.8c0.2,0.9,0.9,2,1.7,2.3
		c1,0.4,2.4-0.6,2.4-1.6c0-0.5-0.4-0.7-0.5-1.2c0.2-0.2,0.6-0.2,1.1-0.2c1.9,2.3-0.3,4.8-3,4.3c-1.8-0.3-3.3-2.3-2.8-4.2
		c-0.6-0.9,0.4-1.9,0.4-3c0.6-0.8,1-1.7,1.9-2.3c0.1-0.1,0.2,0,0.3-0.1C55,4.3,55.2,4,55.5,3.9c0.9-0.4,3-0.6,4-0.1
		c0.2,0.1,0.4,0.4,0.7,0.6c0.8,0.4,1.1,0.6,1.7,1.2c0.3,0.3,0.4,0.7,0.6,1c0.3,0.4,0.8,0.8,0.7,1.5c0.5,0.5,0.6,2.1,0.8,2.8
		c0.1,0.6,0,1.2,0,1.7c0.1,1,0,2.5-0.2,3.5c-0.1,0.7-0.7,1.3-0.7,2.1c2.2-0.3,5.2-0.8,7.4,0c0,0.1,0.3-0.2,0.5-0.1
		c0.7,0.4,1.8,0.4,2.6,0.7c0.7,0.3,1.3,0.9,1.9,0.9c0.3,0.3,0.7,0.5,0.9,0.9c1.7,0.3,2,2.1,3.1,3c0,0.3-0.1,0.4,0.1,0.6
		c1-0.4,1.8-1,2.2-2.1c0.2-0.2,0.4-0.4,0.6-0.5c0-0.2,0.1-0.3,0.1-0.5c0.2-0.2,0.5-0.4,0.7-0.7c0.4-1.1,1.3-2.2,1.3-3.5
		c0-0.7-0.3-1-0.4-1.5c0-0.2,0-0.4-0.1-0.6c-0.2-0.6-1.3-1.4-1.9-1.5c-1.7-0.5-3,0.3-3.6,1.5c-0.1,1,0.2,1.9,0.8,1.9
		c0.7,0,0.7-1.1,1.2-1.5C81.9,16.3,80.2,18.4,78.5,18z M74.7,21.3c-0.2-0.1-0.4-0.3-0.7-0.4c-0.6-0.2-1.2-0.3-1.7-0.5
		C72,20.3,71.9,20,71.5,20c-0.9-0.3-1.9-0.5-2.9-0.3c-1.1-0.2-2.2,0.4-3.6,0.3c-0.4,0.3-0.6,0.4-1.4,0.4c-1.2,0.5-2.2,1.2-3.5,1.6
		c-0.8,0.8-1.8,1.4-2.7,2.1c-0.4,0.8-1.3,1.1-1.5,2.1c-0.7,0.8-1.6,1.5-2.1,2.6c-0.9,1.2-1.4,2.8-2.3,4.1c0.1,0.6-0.5,0.8-0.1,1.1
		c1.6-0.9,3.4-2.1,5.5-2.6c2.2-0.5,3.3-0.3,5.1,0c1.4-1.4,3-2.6,4.4-3.9c1.8-0.7,3.1-2.1,5.4-2.3c0.9-0.3,1.9-0.8,2.9-0.9
		c0.2,0,0.4,0.1,0.6,0.1c0.3,0,0.6-0.2,0.9-0.2c0.6,0,1.3,0.5,1.9,0.1C77.8,22.8,76.3,22,74.7,21.3z M97.6,25.8c0,0,0.1-0.1,0.2-0.1
		c0.6-0.1,1.3-0.1,1.5-0.5c0.8-1.1,0.3-2.6-0.8-3.2c-0.2-0.1-0.7-0.1-0.9-0.3c-0.2,0.3-0.7,0.1-1,0.2c-2,0.4-2.6,1.9-4,3
		c0,0.2-0.1,0.3-0.1,0.6c-0.2,0.2-0.4,0.5-0.7,0.7c0,0.2,0,0.4-0.1,0.6c-1.6,2.8-2.7,6-4.1,9c-0.6,0.7-0.9,1.7-1.7,2.2
		c-0.2,1-1.3,1.6-1.5,2.4c0.8,0.2,2-0.1,2.8-0.1c0.7,0,1.1,0.4,1.6,0.6c0.2,0.1,0.5,0,0.7,0.1c0.6,0.1,1.1,0.5,1.5,0.7
		c0.2,0.1,0.4,0,0.5,0.1c0.4,0.2,0.6,0.6,0.9,0.7c0.2,0.1,0.5,0,0.7,0.1c0.9,0.4,1.5,1.1,2.4,1.2c2.1,0.2,3.6-0.5,4.8-1.3
		c1.7-1.2,2.9-2.5,3-5.2c-0.2-0.4-0.5-0.6-0.4-1.2c-1.1-1.8-5.5-1.5-5.3,1.3c0.2,0.4,1.1,0.7,1.5,0.3c0.2-0.3-0.5-0.5-0.2-0.9
		c1-0.1,1.7,0.7,1.3,1.5c-0.4,1.1-2.2,1.2-3,0.5C97,37.9,96,37.5,96.2,36c0.1-0.9,0.5-1.6,0.9-2c0.4-0.4,0.6-0.8,1-1.1
		c0.9,0.1,1.5-0.4,2.2-0.3c0.3,0,0.4,0.2,0.7,0.3c1,0.4,2.2,0.8,3,1.4c0.3,0.7,0.7,1.4,1.1,2c0.1,1.8-0.3,3.4-0.8,4.5
		c-0.1,0.3-0.2,0.7-0.3,0.9c-0.3,0.7-1.3,1-1.5,1.7c-0.6,0.1-0.8,0.7-1.2,1.1c-0.2,0-0.4,0-0.5,0.1c-0.1,0.8-1.2,0.6-1.5,1.2
		c1,0.3,1.5,1.1,2.1,1.7c0.3,0.3,0.8,0.5,1.1,0.7c1.2,1.1,2.2,2.4,3.3,3.6c0.2,0.9,0.9,1.3,1.1,2.3c0.8,0.3,0.8,1.2,1.2,1.9
		c0.3,0.5,0.9,0.8,0.7,1.4c0.8,0.4,0.5,1.8,1.1,2.5c0.1,0.3-0.2,0.3-0.1,0.5c0.4,0.8,0.5,1.8,0.5,2.6c0,0.4,0,0.9,0,1.4
		c-0.1,1-0.1,2.3-0.4,3c-0.1,0.2-0.3,0.4-0.4,0.6c-0.1,0.3-0.1,0.6-0.2,0.9c-0.4,1.2-1.4,2.6-2.1,3.2c-0.2,0.2-0.6,0.4-0.9,0.6
		c-0.3,0.2-0.5,0.6-0.7,0.7c-0.3,0.2-0.6,0.2-0.9,0.4c-0.2,0.1-0.4,0.4-0.6,0.5c-2.2,1-5.2-0.8-5.4-2.5c-0.2-1.4,0.7-3.2,1.7-3.5
		c1.3-0.4,2.9,0.6,3,1.5c0.3,1.6-1.6,3.3-2.6,1.9c0.4-0.5,0.6-1.3,1-1.8c-0.8-1.2-2,0.4-1.9,1.7c0.2,0.5,0.5,0.8,0.8,1.1
		c0.6,0.1,1.2,0.4,1.9,0.4c1.6-0.5,2.7-1.3,3.7-2.3c0.7-0.7,1.5-1.6,1.5-2.6c0.5-1.7,0.9-4.5,0.4-6.6c-0.2-0.7-0.6-1.4-0.8-1.9
		c-0.2-0.5-0.2-1.1-0.4-1.4c-0.4-0.7-1-1.8-1.7-2.1c-0.3,0.7,0,1.4-0.2,2.1c-0.1,0.5-0.6,1-0.7,1.2c-0.2,0.4-0.2,0.8-0.3,1.2
		c-0.1,0.2-0.4,0.4-0.5,0.7c-0.1,0.1,0,0.4-0.1,0.5c-0.1,0.1-0.3,0.2-0.3,0.4c-0.4,1.1-0.8,1.8-1.5,2.5c-0.7,0.2-1.2,0.8-1.7,1.3
		c-0.4,0-0.7,0.2-0.8,0.5c-0.4-0.1-0.5,0.3-1.1,0.2c-0.6,0.7-2,0.9-3.1,0.8c0.9,0.9,2,1.3,2.6,2.4c0.5,1,0.6,3.1,0.1,4.2
		c-0.3,0.7-1.4,1.6-2.1,1.9c-0.3,0.2-0.7,0.1-1.1,0.3c-0.3,0.1-0.4,0.3-0.7,0.3c-1.5,0.4-3.1-0.4-4.4-0.8c-1.9,0.1-2.7-1.3-4.4-1.6
		c-0.5,0.6-0.3,1.4-0.5,2.1c-0.3,1-1.9,2.3-2.9,2.5c-1.8,0.4-3.6-0.8-4-2c-0.5-1.3,0-3.2,1.4-3.4c0.5-0.1,1.3,0,1.3,0.6
		c-0.9,0.4-2,1.1-1.8,2.2c0.1,0.8,1.1,0.8,1.7,1.3c0.4-0.4,0.9-0.7,1.3-1.1c0.2-0.6,0.3-1.3,0.3-2c0-0.2-0.2-0.3-0.2-0.5
		c0-0.3,0.1-0.5,0-0.7c-0.3-0.9-1-0.7-1.8-1.1c-0.2-0.1-0.3-0.4-0.5-0.5c-1.9-1-4.2-0.9-6.5-0.6c-2,0.8-3.9,1.6-5.5,2.7
		c-0.8,0.9-1.5,1.9-2.4,2.7c-0.4,1.3-1.5,2-1.8,3.4c-0.1,0.2-0.3,0.3-0.4,0.5c-0.3,2.5-1.4,4.6-0.9,7.3c0.2,1.1,1.1,2.4,1.5,3.2
		c0.5,1.1,0.7,2.1,1.5,2.7c0.4,1.3,1.3,2.1,2.1,3c0.3,1.2,1.4,1.5,1.7,2.6c1,1.1,1.8,2.5,2.9,3.5c0.7,1.4,2.3,2,2.8,3.6
		c0.9,0.7,1.5,1.7,2.4,2.4c0,0.2,0,0.5,0.1,0.6c0.3,0,0.5,0.1,0.8,0.2c13.7-5.3,23.8-14.7,30-27.8c3-5.7,4.9-12.9,5.6-20.9
		c0.3-3.4-0.1-6.6-0.4-9.5c-0.7-7.1-3.1-13.1-5.6-18.3c-1.1-2.1-2.3-4.1-3.5-6.1c-0.8-1-1.7-2.2-2.4-3.2c-0.3-0.3-0.6-0.9-0.9-0.8
		c0.3,1.6,0.2,2.5-0.5,3.3c-0.7,0.7-2.2,1.3-3.3,0.8c-1.4-0.6-1.2-3.3,0.3-3.6c2-0.4,1.3,1.4,0.2,1.4C97.1,25.4,97.3,25.8,97.6,25.8
		z M63.5,50.4c0.4-0.3,0.6-0.7,1-1c1.8-1.4,3.7-2.6,5.4-4c1.4-0.4,2.3-1.5,3.6-2.1c0.1-0.1,0.3,0,0.5-0.1c0.5-0.2,0.9-0.7,1.3-0.8
		c0.7-0.2,1.2-0.1,1.5-0.6c0.3,0,0.4-0.1,0.7-0.1c0.5-0.6,1.2-0.7,2.1-1c0.1-0.1,0.2-0.3,0.3-0.3c1.1-0.4,2.1-1.4,2.9-2
		c1.1-0.8,2.1-1.9,2.8-2.9c0.5-0.7,1.1-1.5,1.5-2.1c0.5-0.9,0.6-2,1.3-2.8c0.4-1.8,0.2-3.4-0.5-4.6c-0.4-0.8-1.7-1.5-2.4-1.5
		c-1,0-1.7,0.8-2.1,1.8c0.2,0.3,0.3,0.6,0.5,1c0.8,0.5,1.4-0.1,1.3-0.9c1.6,0.1,0.8,2.3-0.3,2.4c-0.6,0.1-1.3-0.1-1.7-0.1
		c0.4,1.8-0.2,4.2-1.2,5c-0.1,0.1-0.7,0.3-1,0.5c-0.6,0.4-0.5,0.4-1.3,0.3c-0.7-0.1-1.4-0.1-1.7-0.4c-0.2-0.2-0.2-0.5-0.5-0.5
		c-0.7,0-1.6,1.6-2.5,0.8c-0.3,0.1-0.4,0.3-0.7,0.3c-0.5-0.3-1.3-0.3-2-0.4c-0.3-1.6-1.6,0.1-2.3,0.1c0,0.3-0.2,0.6-0.3,0.9
		c-0.2,0-0.3,0.2-0.5,0.2c-0.7,1.3-1.9,2-2.8,3.1c-0.6,1-1.3,1.9-1.9,3c-0.2,0-0.3,0.1-0.4,0.1c0,0.6-0.4,0.9-0.4,1.6
		c-0.4,0.3-0.7,0.8-0.7,1.5c-1.4,2.5-2.7,5.4-3,8.8C61.1,52.5,62.2,51.3,63.5,50.4z M74.5,26.1c-1,0.4-2.2,0.7-3.5,0.9
		c0,0.2-0.2,0.1-0.3,0.3c-1.5,0.4-2.5,1.2-3.8,1.8c-0.2,0.5-0.6,0.7-1,1c-0.2,0.1-0.5,0.2-0.7,0.4c-0.3,0.3-1.5,1.5-1.5,1.8
		c0,0.3,0.7,0.6,0.9,0.9c0.5,0.6,0.8,1.6,1.3,2.2c0.8-0.7,1.9-1.4,3-2.3c0.4-0.3,1-0.9,1.3-1.3c0.3-0.4,0-1.4,0.1-1.9
		c0.2-1.3,1.8-2.8,2.9-1.3c-0.3,0.4-0.5,0.9-0.8,1.3c0.7-0.2,1.2-0.7,1.8-1c0.5-1,1.6-1.4,2.3-2.2c0.4-0.1,0.8-0.3,0.9-0.7
		C76.7,25.5,75.4,26.3,74.5,26.1z M78.2,27.7c-0.1,0.8-1.1,0.7-1.4,1.3c-0.2,0-0.3,0-0.5-0.1c-0.6,0.7-1,1.5-1.8,1.9
		c-0.2,0-0.2-0.1-0.4-0.1c-0.5,0.6-1.1,1.1-1.7,1.7c0.6,0.8,1.9,0.8,2.5,0.6c0.7-0.2,1.5-0.2,1.8-0.7c0.2-0.4,0-0.9,0.2-1.5
		c0.2-0.7,1-0.8,1.8-0.8c0.3-0.8,0.5-1.9,0.4-2.9C78.7,27.2,79,27.9,78.2,27.7z M80.2,33.4c1.5-0.9,2.3-5,0.4-5.6
		c0,1.6-1.2,2.5-1.2,4.4C79.1,32.3,79,32,78.6,32c-0.1,0.2-0.1,0.5-0.1,0.8C78.8,33.3,79.4,33.6,80.2,33.4z M35.3,32.9
		c-0.1-0.2-0.1-0.4-0.3-0.5c-0.6-0.3-1.1-0.5-1.7-0.8c-0.5-0.2-1-0.7-1.5-0.9c-0.6-0.3-2.3-0.7-3.2-0.9c-0.4-0.1-0.7,0-1,0.1
		c-0.2,0-0.2-0.2-0.5-0.1c-2.6,0.1-5,1.3-6.1,3.2c-0.7,1.1-1.4,2.5-1.4,3.8c0,0.4,0,1.4,0.1,1.8c0.1,0.3,0.6,1,1,1.5
		c0.2,0.2,0.7,0.7,0.9,0.8c1,0.4,1.5-0.4,2.4-0.3c0.1-0.2,0.3-0.3,0.3-0.7c-0.2-0.5-1.2-0.4-1.1-1.1c0.2-0.8,1.7,0,2.1,0.1
		c0,0.5,0.6,0.7,0.7,1.2c0.2,1-0.6,1.8-1.1,2.4c1.1,0.5,0,2.9-1,1.7c-0.2-0.9,0.5-1.1,0.6-1.4c-0.7,0-1.8,0.3-2.6,0.1
		c-0.8-0.1-1.4-0.5-1.9-0.9c-0.7-0.5-0.9-1-1.3-1.8c-0.2-0.4-0.4-0.7-0.6-1.1c-0.4-0.9-0.1-1.9-0.5-2.7c-1,0.1-1.5,0.8-2.8,0.7
		c-1.7-0.4-3.2-0.6-4.1-1.8c-0.8-1-1.2-2.3-1.5-3.9c-0.5,0.5-0.9,1.2-1.2,1.8c-0.5,1-1,2.1-1.5,3.1c-1,2.4-1.8,5-2.6,7.5
		c-0.2,0.7-0.4,1.6-0.5,2.3c0,0.3,0.1,0.6,0.1,0.9c-0.1,0.3-0.4,0.5-0.5,0.8c-0.2,0.4-0.1,0.9-0.1,1.3c1.7-0.4,1.5,1.5,0.3,1.6
		c-0.3-0.1-0.1-0.5-0.3-0.7C2,52,2.7,55.4,2.3,58.1c-0.1,0.8,0,1.8,0.1,2.8c0.2,4.8,1.3,9.2,2.5,13.1c0.9,2.9,2.1,5.7,3.2,8.3
		c2.4,4.7,5.3,8.8,8.5,12.6c0.2,0.1,0.4,0.3,0.6,0.4c2.7,3.3,6.3,6,9.7,8.4c0.4,0.3,0.8,0.6,1.2,0.8c0.2,0.1,0.6,0.2,0.8,0.3
		c0.4,0.2,0.7,0.6,1.1,0.8c1.3,0.7,2.5,1.3,3.8,1.9c0.9,0.4,1.6,0.9,2.6,1.3c0.7,0.2,1.6,0.7,2.6,0.8c0.3-0.5,0.5-1.2,0.6-1.9
		c0.1-0.2,0.4-0.3,0.6-0.5c0.1-0.1-0.1-0.3,0-0.5c0.1-0.3,0.6-0.4,0.7-0.7c0.2-0.3,0.2-0.8,0.1-1.3c0.3-0.2,0.5-0.6,0.9-0.7
		c0.2-1.3,0.7-2.2,0.8-3.5c0.2,0,0.4,0,0.5-0.1c-0.3-0.8,0.2-1.3,0.4-1.7c0.5-1,0.4-2.4,1.1-3.2c0.1-0.2-0.1-0.3-0.1-0.5
		c0.5-0.6,0.7-1.3,0.5-2.3c0.5-0.5,0.4-1.2,0.7-2.1c0.1-0.3,0.3-0.6,0.3-0.8c0.1-0.5-0.1-1,0-1.5c0.1-0.2,0.3-0.4,0.3-0.6
		c0-0.1,0-0.5,0.1-0.7c0.2-1.5,0.3-3.1,0.5-4.6c0.1-0.4,0.2-0.7,0.3-1.1c0.1-1.6-0.1-3.2,0-4.8c0.1-1-0.2-2.1-0.2-3.1
		c0-0.3,0.1-0.5,0.1-0.7c-0.1-0.7-0.5-1.4-0.6-2.2c-0.1-0.6,0-1.3-0.1-1.9c-0.1-0.8-0.7-1.5-0.6-2.3c-0.6-0.6-0.5-1.9-1.1-2.4
		c0-0.2,0-0.4,0-0.5c-0.1-0.1-0.4,0-0.5-0.1c-0.3-1.5-1.8-1.8-2.5-2.8c-1.4-0.6-2.5-1.3-4.1-1.4c-1.4-0.1-2.9,0.2-3.7,0.7
		c-1.7,0.8-3,2.2-3.4,4.3c-0.4,1.8,0.2,3,0.7,4.2c0.2,0.5,0.3,1,0.5,1.3c0.5,1,2.4,2.9,3.4,3.2c0.7,0.2,1.3,0,2.3,0.2
		c0.4-0.4,0.8-0.6,0.7-1.5c-0.7,0-1-0.5-1.1-1.2c0.9-0.7,2.1,0.4,2.4,1c0.3,0.8,0,1.9-0.6,2.4c-0.2,0.2-0.6,0.2-0.9,0.3
		c-0.4,0.2-0.6,0.5-0.9,0.5c-0.8,0.1-1.5-0.2-2.3,0c-0.4-0.2-0.6-0.7-1.3-0.6c-0.3-0.4-0.7-0.6-1.3-0.7c-0.5-0.6-0.7-1.3-1.3-1.7
		c-0.2,0.6,0.1,1.7,0,2.5c-0.4,0.6-0.1,1.2-0.3,1.7c-0.1,0.3-0.5,0.6-0.6,0.9c-0.1,0.2,0,0.5-0.1,0.7c-0.1,0.2-0.4,0.4-0.6,0.7
		c-0.6,0.8-1.1,1.5-1.9,2c-0.4,0.3-1,0.4-1.4,0.7c-0.2,0.1-0.4,0.4-0.6,0.6c-1.6,1.2-3.2,2.6-3.5,4.9c0,1.2,0.3,2.1,1.4,2.4
		c0.8-0.1,1.9-0.3,2-1.1c0-0.3-0.1-1-0.5-1.2c-0.5,0-0.6,0.4-1.1,0.4c-0.2-0.2-0.4-0.4-0.3-0.9c0.4-0.7,1.3-0.5,2.1-0.3
		c1.4,0.8,1.3,2.9,0.3,3.8c-0.8,0.3-1.1,0.6-1.9,0.8c0,0.4,0.4,0.4,0.4,0.7c-0.3,0.4-0.3,0.9-0.8,0.9c-0.5,0.1-0.8-0.3-0.8-0.7
		c0-0.4,0.5-0.6,0.5-1c-1.1-0.3-2-0.7-2.6-1.7c-0.7-1.7-0.1-3.7,0.5-5.2c0.4-0.4,1.1-0.9,1.1-1.5c-1.9,1-4.9,1.1-6.6-0.1
		c-0.1-0.4-0.5-0.6-0.5-1.2c0.8,0,1.3-1,2.1-1.2c0.7-0.2,1.7-0.1,2.4-0.1c1.2,0.1,2.4,0.6,3.1,1.1c0.1,0.4-0.2,0.6,0.1,0.7
		c0.6-0.4,1.2-0.8,1.5-1.4c-0.7-0.6-1.7-0.9-2.1-1.9c-0.1-0.2,0-0.5-0.1-0.7c-0.1-0.2-0.2-0.3-0.3-0.5c-0.2-1,0.2-1.8,0.3-2.6
		c0.6-0.5,1.1-0.9,2-1.1c0.8,0.3,2.1,0.8,2.1,1.7c0,0.4-0.4,0.6-0.5,1.1c-0.7,0.2-1.5,0.1-1.7-0.4c-0.5,0.2-0.6,0.8-0.5,1.5
		c0.3,0.7,0.4,1.5,1.1,1.9c0.8,0.4,1.9,0,2.4-0.7c0.3-0.4,0.3-0.8,0.9-1c0-0.6,0.3-0.9,0.5-1.3c0-0.8,0.5-1.5,0.7-2.3
		c0.2-1.4-0.2-2.8-0.1-4.4c-0.1-0.3-0.3-0.6-0.1-0.9c-0.1-0.1-0.3-0.1-0.3-0.3c0.2-0.8-0.4-1.4-0.5-2.2c0-0.3,0.2-0.6,0.2-0.9
		c0.2-1.4,0.1-2.8,0.7-3.6c-1.3-1.2-3.9-1.1-5.8-1.7c-1.1-0.3-1.7-0.9-2.6-1.3c-0.7-1-1.4-1.4-1.5-2.6c-0.2-1.8,1.6-3.7,3.2-3.6
		c0.9,0.1,1.8,0.8,1.9,1.8c0.4-0.1,0.5-0.5,1.1-0.4c0,0.1,0.1,0.1,0.1,0.1c0.2,0.7,0,1.3-0.6,1.2c-0.4,0-0.2-0.4-0.6-0.5
		c-0.2,0.2-0.1,0.6-0.3,0.9c-0.6,0.6-2.4,0.8-2.3-0.7c0.3-0.2,1-0.1,1.3-0.4c-0.9-2.4-3.5,0.8-2.3,2.4c1.2,1.5,3.8,2.1,6.2,2.3
		c0.8,0.1,1.4-0.1,1.7-0.2c0.8-0.2,1.5-0.2,2.3-0.4c1.5-0.4,2.6-1.2,4-1.9c0.6-0.3,1.3-0.6,1.9-0.7c1-0.2,2.2,0,2.9-0.5
		c-0.1-0.3-0.4-0.4-0.5-0.8c-0.6-0.3-1-0.8-1.5-1.2c-0.6-0.4-1.1-0.7-1.7-1.1c-0.2-0.1-0.3-0.3-0.5-0.5c-0.9-0.5-2.1-1-2.9-1.2
		c-1.7-0.4-3.3-0.7-4.9-0.5c-0.2-0.3-0.6,0-0.9-0.2c-0.3,0-0.2,0.3-0.5,0.3c-1.9,0.1-3.5,1-5.1,1.3c-0.2,0.1-0.5,0-0.7,0.1
		c-1.2,0.3-2.2,1.4-3.2,1.8c-0.1,0.2-0.1,0.3-0.1,0.5c-0.6,0.3-0.8,0.8-1.1,1.5c-0.2,0.3-0.5,0.6-0.6,0.9c-0.3,0.6-0.2,1.2-0.4,1.9
		c-0.1,0.3-0.3,0.6-0.3,0.9c-0.1,1.7,0.6,3.4,1.3,4.2c0.5,0.5,1,0.7,1.9,0.7c0.6-0.3,1-0.8,1.1-1.5c-0.3-0.4-0.8-0.7-1-1.3
		c0.9-0.4,1.9,0,2.4,0.7c0.6,0.8,0.1,2-0.5,2.6c-1.3,0.7-3,0.5-4.3,0.1C15,65.3,15,66,14.9,66.7c-0.1,0.5-0.5,0.8-0.6,1.3
		c-0.1,0.2,0,0.4-0.1,0.6c-0.5,1-1.8,2-3.4,1.6C10.4,70,9.6,69.5,9.4,69c-0.5-1.2,0.1-2.9,1.5-2.8c0.3,0.3,0.5,0.6,0.5,0.9
		c-0.1,0.6-0.9,0.5-0.9,0.9c-0.1,0.7,0.7,0.8,1.2,0.6c0.3-0.1,1.2-1,1.6-1.7c0.4-0.8,0.4-1.7,0.6-2.6c-0.3-1.3-1.2-2.3-1.2-3.6
		c-0.7-1.1,0.2-2.2,0.2-3.4c0.6-0.8,1-1.8,1.5-2.8c1.1-1.7,2.7-3.2,4.5-4c-0.8-0.1-1.7,0-2.5,0.1c-0.8,0.1-1.5,0.3-2.1,0.4
		c-1.4,0.3-3.4,0.1-4.5,0.5c-1.2-0.3-2.6-0.4-3.1-1.4c-0.8,0-0.9-0.9-1.2-1.4c-0.4-0.6-0.6-1.5-0.7-2.3c0-0.2,0.1-0.4,0.2-0.5
		c-0.3-1.6,0.8-2.3,1.3-3.4c1.1-1.2,3.1-1.8,5.4-1.3c0.3,0.3,0.7,0.4,1,0.6c0.2,0.5,0.6,0.7,0.8,1.2c0.6,1.7-0.7,3.4-2.8,3
		c-0.8-0.3-0.9-2,0.3-1.9c-0.1,0.6,0.1,1,0.7,0.9c0.2-0.4,0.2-0.9,0.3-1.3c-0.2-0.2-0.4-0.4-0.5-0.8c-0.6-0.1-1-0.3-1.5-0.5
		c-0.8,0.3-1.8,0-2.4,0.5c-0.6,0.4-1.3,1.9-1.4,2.6c-0.1,1,0.4,1.9,0.6,2.7c0.9,0.6,2.3,1.1,3.6,1c0.1-0.1-0.2-0.6,0.3-0.5
		c0.4-0.1,0,0.6,0.4,0.5c1,0,2.1-0.4,3.2-0.7c0.6-0.2,1.3-0.2,1.9-0.4c0.3-0.1,0.5-0.3,0.7-0.3c1.7-0.3,3.3-0.5,4.8-0.5
		c0.4-0.4,1.3-0.4,2.2-0.4c0.7,0,1.4-0.1,1.9-0.1c0.5,0,1.1,0.4,1.4-0.1c-0.3-1.2-0.9-2.4-0.9-3.7c0-1.5,0.2-2.9,0.7-3.9
		c0.5-1.3,1.2-1.8,2.1-2.8c0.6-0.6,1.3-1.1,1.9-1.5c0.6-0.3,1.6-0.6,2-0.7c1.4-0.3,3.3,0.2,3.9-0.9C36.2,33.2,35.9,33.2,35.3,32.9z
		 M58.1,32.7c-1.3,0.3-1.9,1.5-3.3,1.6c-0.9,0.8-1.6,1.7-2.6,2.4c-0.2,1.4-1.4,1.7-1.4,3.2c-0.1,0.1-0.4,0.2-0.4,0.4
		c0.4,0.3,0.2,1.3,0.1,1.8c0,0.3,0.3,0.2,0.3,0.5c-0.2,0.7,0,1.3-0.2,1.9c0.1,0.2,0.4,0.2,0.3,0.5c0,0.8,0.3,1.2,0.3,1.9
		c0,0.9,0,1.4,0.3,2.2c0.3,1.2,0.6,2.3,1.2,3c0,0.2-0.1,0.6,0.2,0.5c0.5-1.1,0.8-2.6,1-3.8c0.1-0.6,0.5-1.3,0.6-1.7
		c0.2-0.5,0.1-1.1,0.3-1.6c0.1-0.3,0.4-0.5,0.5-0.8c0.1-0.5,0.1-1,0.3-1.4c0.1-0.3,0.4-0.5,0.5-0.8c0.2-0.6,0.4-1.1,0.6-1.5
		c0.1-0.3,0.1-0.6,0.2-0.9c0.2-0.4,0.5-0.7,0.7-1.1c0.2-0.4,0.3-1,0.5-1.4c0.3-0.5,0.9-0.9,0.9-1.6c0.9-1,1.3-2.4,2.3-3.3
		C60.1,32.3,59.1,32.5,58.1,32.7z M62.2,34.2c-0.6,0.9-1,2-1.5,3c0.1,0.6-0.1,1.2-0.5,1.5c0.1,0.8-0.2,1.2-0.2,2
		c0.6-0.4,1.3-1,1.8-1.6c0.3-0.3,0.4-0.8,0.8-1.1c0.7-0.6,1.6-1,2-1.9C63.9,35.3,63.6,33.7,62.2,34.2z M30.7,37.1
		c-1.7,0.6-2.6,2.6-2.7,4.8c-0.2,2.8,1.5,4.7,3,5.7c2,0.3,3.6,0.6,5,1.5c2.3,0.7,4.1,1.7,5.8,3.2c0.7,0.2,1.1,0.6,1.6,1.1
		c1,1,2,2.2,2.8,3.3c0.7,0.4,1,1.1,1.6,1.6c0.5,0.8,1,1.5,1.5,2.1c0-0.9,0.1-1.8,0-2.7c-0.1-1-0.6-1.9-0.7-2.8
		c0-0.3,0.1-0.5,0.1-0.8c0-0.3-0.2-0.6-0.3-0.9c-0.2-1.3-0.5-2.5-0.7-3.8c-0.4-0.4-0.6-1.2-0.6-2c-0.1-0.2-0.3-0.3-0.3-0.5
		c-1.1-3.8-2.9-6.9-5.4-9.3c0-0.2,0-0.4-0.1-0.5c-0.4-0.2-0.7-0.3-1.2-0.4c-0.1,0.5,0.4,1,0.5,1.5c0,0.3,0.1,1,0.1,1.1
		C40.5,40,40,40.1,40,40.6c-0.4,0-0.5,0.2-0.7,0.5c0.3,0.2,0.4,0.8,0.3,1.3c-0.9,0.1-1.4-0.3-1.8-0.7c-2.3,0.5-3.7-0.8-3.2-3.2
		c0.3-0.4,1.5-0.7,1.9-0.1c-0.1,0.4-0.6,0.3-0.7,0.7c0.1,0.9,0.5,1.6,1.3,1.7c0.6-0.4,1.3-1,1.5-1.9c0.2-1.1-0.4-2-0.9-2.6
		c-2.9-0.1-5.7,1.8-5.4,4.8c0,0.2-0.2,0.3-0.1,0.5c0.7,1.4,1.4,2.7,3.6,2.6c0.2-0.2,0.6-0.3,0.7-0.6c-0.1-0.7-0.8-0.7-0.9-1.5
		c0.7-0.6,1.6,0.1,2.1,0.4c0.6,1.8-0.4,3.2-1.7,3.4c-1.5,0.3-4-0.5-4.7-2.1c-0.1-0.2,0-0.5-0.1-0.7c-0.1-0.3-0.3-0.4-0.4-0.6
		c-0.2-0.7,0.1-1.2-0.1-1.8c0.2-0.4,0.4-0.8,0.3-1.5c0.3-0.5,0.6-1,0.8-1.7c0.4-0.4,1-0.6,1.1-1.3c0.4-0.1,0.7-0.4,0.8-0.8
		C32.3,35.4,31.1,36.1,30.7,37.1z M93.6,50.9c0.9-0.6,1.5-2.3,1.3-3.6c-0.4-0.7-0.4-1.6-0.8-2.3c-0.7-0.3-1.1-1-1.8-1.4
		c-0.3-0.2-0.7-0.2-1.1-0.3c-0.2-0.1-0.3-0.3-0.5-0.3c-0.5-0.2-0.9-0.1-1.4-0.1c-0.9-0.1-1.7-0.4-2.6-0.5c-0.6,0.3-1.3,0.3-1.8,0.5
		c-0.2,0-0.2-0.2-0.4-0.2c-0.3,0.4-1.4,0.2-1.9,0.3c-0.4,0.1-1.1,0.3-1.5,0.4c-1.6,0.5-2.8,1.4-4,1.9c-0.2,0.1-0.2,0.4-0.5,0.5
		c-1.2,0.5-2.2,1.3-3.1,1.9c-0.7,0.5-1.3,1-1.9,1.5c-1.2,1.2-2.4,2.6-3.2,4.2c-0.4,0.1-0.7,0.4-0.8,0.7c0.7,0.1,1.4-0.5,1.9-0.5
		c0.1,0,0.3,0.1,0.5,0.1c0.2,0,0.4-0.2,0.5-0.3c0.8-0.2,1.5-0.1,2.1-0.1c0.3,0,0.6-0.2,0.9-0.2c0.6,0,1.4,0.3,2-0.1
		c1.1,0.5,2.9,0.4,3.6,1.1c1,0.1,1.7,0.9,2.8,0.9c1.6,0,3.8-0.7,4.6-1.7c0.4-0.5,0.5-1.3,0.5-2.1c-0.4-1.1-2.5-3.2-3.4-1.4
		c0.2,0.5,1,0.2,0.9,1c-1.6,0.4-2.3-1-1.9-2.4c0.5-0.7,1.1-1.3,2.5-1.1c0.4,0.4,1.1,0.6,1.7,0.7c0.2,0.5,0.7,0.7,1.1,0.9
		c0,0.6,0.5,0.9,0.6,1.4c0.4,1.4-0.5,2.5-0.7,3.7c-1.4,1.2-2.8,2.6-5,2.6c0.1,0.9,0.6,1.7,0.6,2.8c0,1.4-0.4,2.8-0.8,4
		c-0.5,0.4-0.9,1-1.4,1.4c-1,0.8-2.4,1-3.9,0.6c-0.6-0.2-1.7-0.7-2.1-1c-0.8-0.7-1.3-2.7-0.1-3.6c0-0.2,0-0.3,0-0.5
		c0.7-0.5,1.5-0.8,2.8-0.7c0.4,0.3,0.7,0.6,1.1,0.9c0.1,0.7-0.2,1.3-0.9,1.3c-0.4-0.3-0.1-0.9-0.6-1c-0.4-0.1-1.1,0.6-1.2,1.2
		c-0.1,0.7,0.8,2,1.1,2.3c0.8,0.6,1.8-0.1,2.3-0.5c1.4-1,2.7-2.4,2.1-4.9c-0.2-0.7-0.6-1.2-0.9-1.8c-0.6-1-1.1-1.4-2.2-1.8
		c-0.4,0.1-0.7,0.1-0.9-0.2c-0.5,0.5-1.4,0.1-2.1,0.1c-2.3,0-4.6,0.5-5.7,1.5c-2.1,1-4,2.5-5,4.4c1-0.1,2.1-0.1,3,0.3
		c0.7,0.4,1.7,1,1.7,2c1.1,1.1,0.3,3.4,0.2,5c-0.2,0.3-0.5,0.6-0.3,0.9c1.7-0.2,3.8-0.8,5.9-0.7c2.7,0.2,4.9,1.3,7,1.9
		c1.8,1.1,3.7,2.4,5.8,3.1c0.2,0.1,0.4,0.4,0.6,0.5c0.5,0.2,1.3,0.5,1.8,0.6c1,0.3,2.9,0.3,3.8,0.1c0.4-0.1,0.6-0.2,1-0.3
		c0.8-0.3,1.6-1.1,1.7-2.1c0-0.2-0.2-0.4-0.2-0.8c0,0,0.1-0.2,0.1-0.3c0-0.1-0.5-0.9-0.5-1c-0.2-0.3-0.9-0.6-1.2-0.7
		c-1.2-0.2-2.1,0.8-2.3,2.1c0.6,0.6,0.9-0.3,1.6-0.3c0,0.1,0.1,0.1,0.2,0.1c0.1,2.2-2.3,2-3.1,1.1c-1-1.1-1-3.5,0.5-4.4
		c0.4-0.2,0.8-0.1,1.1-0.6c-0.2-0.3-0.6-0.2-0.9-0.3c-0.7-0.2-1.2-0.9-1.8-1.3c-0.4-0.9-1.3-1.7-1.5-2.9c-0.1-0.5,0-1.2,0-1.8
		c0-0.2-0.1-0.4-0.1-0.5c0.1-1.1,1-1.6,1.2-2.5c1-0.9,2.5-2.2,4.6-1.9c0.4,0.1,0.6,0.4,1.1,0.3c0,0.5,0.3,0.6,0.6,0.7
		c0.1,0.4,0.5,0.6,0.6,1.1c0.3,1.1-0.7,3.4-2.2,2.8c-0.1-0.2-0.3-0.4-0.3-0.8c0.5-0.4,1.3-0.8,1.3-1.5c0-0.6-0.9-1-1.3-1.5
		c-0.9,0-1.7,0.6-2.5,0.8c-0.5,0.5-0.8,1.2-1.3,1.7c-0.6,2.7,1.1,4.2,2.6,5.4c1.1,0.2,2.2,0.7,3.4,0.3c1.1-0.3,2.1-0.8,2.9-1.5
		c0.9-0.8,1.9-1.6,1.9-3c0.2-0.2,0.5-0.1,0.7-0.3c-0.1-0.7,0.5-0.9,0.3-1.7c0.9-0.9,0.3-2.3,0.3-3.7c-0.3-0.4-0.3-1-0.3-1.7
		c-0.5-1.1-0.9-2.2-1.4-3.4c-0.4-0.2-0.6-0.7-0.7-1.2c-1-0.6-1.6-1.6-2.6-2.3c-0.6,0.5-0.7,1.6-0.7,2.4c-0.3,0.9-1.2,1.4-1.5,2.3
		c-0.7,0.2-1,0.7-1.7,0.9c-1.6,0.3-3.5-0.9-3.4-2.3c0-0.4,0.8-1.4,1.1-1.5c0.9-0.2,2,0.5,1.5,1.4c-0.5,0-0.9,0.2-1,0.6
		C92.4,51.4,93.2,51.2,93.6,50.9z M61.1,74.5c0.3,0,0.4-0.3,0.7-0.3c0.9-1,2-1.9,3.3-2.5c1.4-1.3,2.8-2.7,3.2-4.9
		c0.8-1.2,0.6-3.3-0.4-4c-1.2-0.8-3.1,0.4-2.3,1.8c0.1,0.1,0.4,0,0.5,0.2c0,0.2,0,0.4,0,0.5c-0.4,0.3-0.9,0.5-1.6,0.4
		c-0.7-0.4-0.8-1.4-1.4-1.9c-0.8,1.2-0.9,3.1-1.7,4.3c-0.6,2.4-1.4,4.6-1.5,7.5C60.4,75.6,60.9,75,61.1,74.5z M23.8,75.2
		c0.3,0.4,0.8,0.1,0.9-0.3C24.4,74.7,23.9,75,23.8,75.2z"/>
	<path class="st0" d="M59.8,9.4c0.3,0.2,0.4,0.9,0.1,1.2c-0.4,0-0.8,0-1-0.2c0-0.2,0-0.4,0-0.7C59.1,9.5,59.3,9.4,59.8,9.4z"/>
	<path class="st0" d="M70,11.4c0.6,0.6,0.1,1.9-0.5,2.1c-0.2,0.9-0.8,1.4-1.2,2.1c-0.5,0.1-0.7,0.4-0.9,0.7
		c-0.7,0.1-1.7,0.7-2.4,0.2c-0.2-1.3,0.5-2.2,0.9-3.1c0.8-0.3,1-1.3,1.9-1.6C68.4,11.6,69.2,11.6,70,11.4z"/>
	<path class="st0" d="M60.3,11.9c0.2,0.4,0,0.9-0.1,1.2c-0.2,0.1-0.7,0.1-0.9,0C59,12.4,59.4,11.5,60.3,11.9z"/>
	<path class="st0" d="M58.6,14c0,0.5-0.1,0.9-0.4,1.2c-0.3,0.1-0.4-0.1-0.7-0.1c-0.1-0.3-0.3-0.6-0.1-1C57.6,14,58.2,13.8,58.6,14z"
		/>
	<path class="st0" d="M25.5,15.1c0.2,0.5,0,1.2-0.6,1.1C24.4,15.8,24.7,14.6,25.5,15.1z"/>
	<path class="st0" d="M75.6,15.3c0.1,0.3,0.1,0.7,0.1,1.2C74.8,17.4,74.1,14.9,75.6,15.3z"/>
	<path class="st0" d="M27.2,16.4c0,0.7-0.2,1-0.9,1c-0.2-0.2-0.2-0.5-0.2-0.9C26.4,16.1,26.9,16.1,27.2,16.4z"/>
	<path class="st0" d="M76.2,17.2c0.3,0.3,0.3,1.5-0.5,1.3C75.3,18.3,75.3,17,76.2,17.2z"/>
	<path class="st0" d="M90.2,24.9c-1-0.3-1.4-1.1-2.2-1.6c0-0.8-0.4-1.1-0.4-1.7c0-0.2,0.2-0.5,0.3-1c0.2-0.9-0.1-2.4,0.7-2.4
		c0.5,0,0.7,0.6,0.9,1.1c0.3,0.6,1,1.5,1.1,2.3c0,0.1-0.1,0.3-0.1,0.5c0,0.2,0.2,0.3,0.2,0.5C90.8,23.3,90.5,24.2,90.2,24.9z"/>
	<path class="st0" d="M78.3,18.5c0.1,0.6,0,1.3-0.7,1.3c-0.1-0.4-0.4-0.6-0.3-1.1C77.5,18.4,78,18.2,78.3,18.5z"/>
	<path class="st0" d="M27.5,18.6c0.1,0.2,0.1,0.7,0,0.9C26.4,20.4,26.1,17.8,27.5,18.6z"/>
	<path class="st0" d="M15.1,25.1c0.1,0.5-0.1,0.7-0.3,0.9c-0.2,0-0.4,0-0.7,0C13.6,25.4,14.7,24.3,15.1,25.1z"/>
	<path class="st0" d="M41.8,26.7c0.2,0.4,0.1,0.9-0.1,1.2c-0.3,0.1-0.6,0.2-0.9,0.1c-0.3-0.2-0.3-0.8-0.2-1.2
		C40.8,26.5,41.5,26.4,41.8,26.7z"/>
	<path class="st0" d="M95.4,26.6c0.2,0.5-0.1,1.3-0.5,1.2C94.2,27.7,94.4,26.1,95.4,26.6z"/>
	<path class="st0" d="M16.3,26.7c0.3,0.3,0.5,0.9,0.3,1.5c-0.4,0-0.6,0.1-0.9,0c-0.2-0.3-0.3-0.7-0.3-1.2
		C15.6,26.8,15.8,26.7,16.3,26.7z"/>
	<path class="st0" d="M99.4,27.9c0.2,0.9-0.7,1.1-1.3,0.8C97.9,27.6,98.8,27.4,99.4,27.9z"/>
	<path class="st0" d="M38.6,29c-0.3-1.5,1.6-1.2,1.3-0.1C39.7,29.4,39.1,29.1,38.6,29z"/>
	<path class="st0" d="M96.8,28c0.7,0.8-0.7,1.5-1.1,0.7c0-0.2,0-0.4,0.1-0.5C96.1,28,96.5,28,96.8,28z"/>
	<path class="st0" d="M37.8,29.4c-0.5,0.2-1,0-1.3-0.3c-0.1-0.3-0.1-0.8,0.1-1C37.4,27.9,38.1,28.5,37.8,29.4z"/>
	<path class="st0" d="M16.5,30c0.1,0.2,0.1,0.7,0,0.9C16.3,31,15.9,31,15.6,31c-0.1-0.3-0.2-0.5-0.2-0.9
		C15.7,29.8,16.1,29.9,16.5,30z"/>
	<path class="st0" d="M77.5,34.5c0.3,0.7,0,1.9-0.9,1.9C76.2,35.7,76.5,34.1,77.5,34.5z"/>
	<path class="st0" d="M72.9,35.2c0.1,0.9-0.4,1.3-0.7,1.7c-0.2,0-0.4,0-0.6,0C70.8,36,71.6,34.8,72.9,35.2z"/>
	<path class="st0" d="M74.5,36.8c-0.3-0.2-0.6-0.4-0.7-0.7c-0.1-1.3,1.6-1.2,1.3,0.1C75.1,36.5,74.9,36.6,74.5,36.8z"/>
	<path class="st0" d="M17.2,37.5c-0.2,0.6,0,0.8,0,1.5c-0.1,2-1.1,3.7-2.6,4.6c-0.3,0-0.6,0-0.8-0.1c-0.6-1.4-0.5-3.8,0.4-4.8
		C15.1,38.2,15.7,37,17.2,37.5z"/>
	<path class="st0" d="M95.9,38.5c0.1,0.8-0.3,1.4-1.1,1.1c-0.1-0.4-0.3-0.7-0.1-1.1C95.1,38.2,95.5,38.2,95.9,38.5z"/>
	<path class="st0" d="M97.6,40.9c-0.3,0.1-0.5,0.1-0.9,0.1c-0.3-0.6-0.2-1.4,0.3-1.5C97.5,39.4,98.1,40.3,97.6,40.9z"/>
	<path class="st0" d="M99.4,39.7c0.4,0.7-0.1,1.7-0.8,1.5C97.9,41,98.1,39.3,99.4,39.7z"/>
	<path class="st0" d="M19.8,43.2c0.5,0.5,0.2,1.6-0.5,1.7C18.3,44.9,18.4,42.6,19.8,43.2z"/>
	<path class="st0" d="M39.4,43.5c0.3,0.2,0.4,0.9,0.3,1.4C39.5,45,39.2,45,39,45C38.6,44.7,38.3,43.1,39.4,43.5z"/>
	<path class="st0" d="M22.2,43.9c0.2,0.2,0.2,0.6,0.1,1c-0.3,0.2-0.9,0.2-1.1-0.1C21.2,44.2,21.6,43.9,22.2,43.9z"/>
	<path class="st0" d="M101.6,45.1c1.3-1,4.1-1.1,5.6-0.1c0.5,0.3,1.4,1.2,1.4,1.7c0,1.1-1.8,1-2.6,1.5c-1.9,0.2-3.7-0.7-4.4-2.1
		C101.6,45.7,101.6,45.4,101.6,45.1z"/>
	<path class="st0" d="M86,45.4c0.1,0.3,0.3,0.6,0.3,1.1c-0.4,0.1-0.8,0.2-1.1,0.4C84,46.5,84.8,44.6,86,45.4z"/>
	<path class="st0" d="M83.2,46c0,0.4,0,0.7,0,1.1c-0.2,0.3-0.6,0.3-1.1,0.3C81.3,46.6,82,45.1,83.2,46z"/>
	<path class="st0" d="M38,47.2c-0.4,0-0.5-0.1-0.8-0.2c0-0.3-0.1-0.4-0.1-0.7C37.6,45.3,38.7,46.5,38,47.2z"/>
	<path class="st0" d="M81.7,49.3c-0.3,0.5-1.1,0.6-1.6,0.2c-0.1-0.8,0.2-1.3,0.6-1.6C81.3,48.1,81.8,48.4,81.7,49.3z"/>
	<path class="st0" d="M6.2,51.2c0.4,1.4-1.4,1.7-1.4,0.5C4.8,51,5.8,50.8,6.2,51.2z"/>
	<path class="st0" d="M24.3,51.9c0.1,0.3,0.1,0.9-0.1,1.1c-0.1,0-0.1,0-0.1,0.1C22.9,53.3,23.2,51.2,24.3,51.9z"/>
	<path class="st0" d="M12,55.4c-0.4,0.1-0.7,0.2-0.9,0.5c-0.8,0.1-3.9,0.6-3.9-0.5c0-0.6,0.9-0.7,0.9-1.5c0.3-0.2,0.6-0.5,0.8-0.8
		c0.8,0,1.1-0.9,1.9-1.1c0.9-0.2,2.9-0.2,3,0.4c0.2,0.6-0.6,1.4-0.9,1.8C12.6,54.7,12.5,55,12,55.4z"/>
	<path class="st0" d="M97.7,55.9c0.2,0.5-0.1,1.2-1,0.9C96.2,56.1,97,55.5,97.7,55.9z"/>
	<path class="st0" d="M24,55.8c0.3,0.3,0.2,1.1,0,1.4c-0.4,0.1-0.7,0-0.9-0.2C23.1,56.4,23.2,55.7,24,55.8z"/>
	<path class="st0" d="M88.5,61.2c-2.5,1.1-4.9-0.7-4.8-3.6c1.3-0.8,3,0.3,3.6,1.1C88,59.4,88.3,60.4,88.5,61.2z"/>
	<path class="st0" d="M77.6,57.8c0,0.2,0,0.4,0,0.6c-0.2,0.3-0.8,0.4-1.1,0.1C76.1,57.6,77.2,57,77.6,57.8z"/>
	<path class="st0" d="M98.7,58c0.2,0.8-0.8,1-1.1,0.5C97.4,57.9,98.3,57.7,98.7,58z"/>
	<path class="st0" d="M74.9,58.8c0.1,0.7-0.3,1-0.9,1c-0.3-0.2-0.4-0.6-0.3-1.1C74,58.3,74.4,58.7,74.9,58.8z"/>
	<path class="st0" d="M20.6,59.7c0.2,0.3,0.1,0.7,0,1C19.3,61,19.5,59,20.6,59.7z"/>
	<path class="st0" d="M98.2,60.5c0.1,0.8-0.2,1.1-1,1.1c-0.1-0.3-0.2-0.6-0.1-0.9C97.4,60.5,97.9,60.4,98.2,60.5z"/>
	<path class="st0" d="M73,62.5c-0.6,0-1.1-0.2-1.2-0.7c-0.2-0.7,0.3-1.5,1-1C73.3,61.1,73,61.6,73,62.5z"/>
	<path class="st0" d="M21.8,61.5c0,0.3,0,0.6-0.1,0.9c-0.2-0.1-0.2,0.1-0.3,0.1c-0.4-0.1-0.6-0.4-0.5-0.9
		C21.1,61.4,21.5,61.2,21.8,61.5z"/>
	<path class="st0" d="M21.7,63.7c0.1,0.3,0.1,0.7,0.1,1.1c-0.3,0.2-0.9,0.1-1.1-0.1C20.5,63.9,21,63.3,21.7,63.7z"/>
	<path class="st0" d="M9,65.1c0.2,0.5,0,1.5-0.5,1.6c-0.5,0.1-0.9-0.6-0.7-1.3C8.2,65.2,8.6,64.9,9,65.1z"/>
	<path class="st0" d="M18,71.4c-1.6,0.3-2.7-0.7-2.8-2.3c-0.1-0.5,0.2-1.2,0.2-1.8c0-0.5-0.1-1.3,0.7-1.3c0.6,0,0.9,0.8,1.2,1.2
		c0.2,0.3,0.6,0.5,0.7,0.8C18.5,69,18.4,70.5,18,71.4z"/>
	<path class="st0" d="M8.5,69.1c-0.2,0.2-0.6,0.4-1.1,0.3c-0.2-0.3-0.2-0.8-0.2-1.3C7.8,67.3,8.8,68,8.5,69.1z"/>
	<path class="st0" d="M39.1,68.7c0.2,0.4,0.2,0.8,0,1.2C38.9,70,38.7,70,38.4,70C37.9,69.5,38,68.3,39.1,68.7z"/>
	<path class="st0" d="M9.4,70.7c0,0.5,0,1-0.1,1.3c-1,0.3-1.3-0.5-1.3-1.5C8.3,70,9.2,70.4,9.4,70.7z"/>
	<path class="st0" d="M41.2,71c0.1,0.5,0,0.8-0.3,1.1c-0.4,0.2-0.8-0.1-1.1-0.3c-0.1-0.3-0.1-0.7,0.1-0.9C40.3,70.8,40.7,71,41.2,71
		z"/>
	<path class="st0" d="M40.4,73.3c0.4,0.3,0.4,1-0.1,1.1C39.7,74.6,39.2,73.1,40.4,73.3z"/>
	<path class="st0" d="M77,73.6c0.2,0.2,0.2,0.7,0.1,1c-0.2,0.1-0.4,0.3-0.8,0.3C75.7,74.4,76.2,72.9,77,73.6z"/>
	<path class="st0" d="M21.4,73.6c0.2,0.3,0,0.7-0.2,0.9c-0.4,0-0.7-0.1-0.9-0.2C19.8,73.4,20.8,73.4,21.4,73.6z"/>
	<path class="st0" d="M99.1,73.9c0.8-0.3,1,1.4,0.3,1.5C98.7,75.5,98.2,74.2,99.1,73.9z"/>
	<path class="st0" d="M33.9,79.8c-1.8,0.1-2.3-1.3-3.2-2.2c-0.1-1.4,0.1-2.6,0.4-3.6c0.1,0,0.2,0,0.4,0c0.5,0.1,2.3,2.1,2.6,2.9
		C34.4,78,34,78.9,33.9,79.8z"/>
	<path class="st0" d="M101.5,75c0.1,0.3,0.2,1.1,0,1.4c-0.5,0-0.8-0.1-1.1-0.3c-0.1-0.3-0.1-0.8,0.1-1C100.8,74.9,101.1,75,101.5,75
		z"/>
	<path class="st0" d="M104.5,75.4c0.2,0.9-1.2,1-1.6,0.5C102.7,74.7,104.1,74.9,104.5,75.4z"/>
	<path class="st0" d="M88.5,81.6c-0.5,0-0.8-0.1-1.1-0.4c-2.7-0.1-2.9-3.4-2.2-5.8C87.7,76,89.5,78.6,88.5,81.6z"/>
	<path class="st0" d="M19.4,75.9c0.3,0,0.6,0,0.9,0C21.1,77,18.6,77.4,19.4,75.9z"/>
	<path class="st0" d="M76,77.9c-0.2,0-0.5,0-0.7,0c-0.3-0.2-0.4-0.9-0.2-1.4C76,76.3,76.3,77.2,76,77.9z"/>
	<path class="st0" d="M20.4,78c0.3-0.2,1.1,0.1,1.1,0.7C21.3,80.1,19.2,78.7,20.4,78z"/>
	<path class="st0" d="M78.1,78.8c0.1,0.5-0.1,0.8-0.2,1.1c-0.4,0-0.5-0.2-0.9-0.2C76.6,78.8,77.5,78.2,78.1,78.8z"/>
	<path class="st0" d="M27.7,86.7c0.1,0.4,0.3,1,0,1.3C26.4,88.3,26.4,85.9,27.7,86.7z"/>
	<path class="st0" d="M26.5,89.9c0,0.6-0.1,1-0.4,1.3c-0.6,0.1-0.9-0.1-1.1-0.5C25.2,90.1,25.7,89.5,26.5,89.9z"/>
</g>
</svg>
